<mxfile modified="2022-03-12T11:44:26.298Z" host="app.diagrams.net" agent="5.0 (Macintosh; Intel Mac OS X 10_15_7) AppleWebKit/537.36 (KHTML, like Gecko) Chrome/99.0.4844.51 Safari/537.36" etag="e5-bQYmVWPcH6GyzNU4a" version="17.1.2" type="github">
  <diagram id="d1ab7348-05c3-a1e3-ca4d-12c340fd6b49" name="Page-1">
    <mxGraphModel dx="2467" dy="699" grid="1" gridSize="10" guides="1" tooltips="1" connect="1" arrows="1" fold="1" page="1" pageScale="1" pageWidth="1169" pageHeight="827" background="none" math="0" shadow="0">
      <root>
        <mxCell id="0" />
        <mxCell id="1" parent="0" />
        <mxCell id="lkz7h4dLqbm93Tn8HokA-152" value="" style="rounded=1;absoluteArcSize=1;arcSize=2;html=1;strokeColor=none;gradientColor=none;shadow=0;dashed=1;strokeColor=#4284F3;fontSize=12;fontColor=#9E9E9E;align=left;verticalAlign=top;spacing=10;spacingTop=-4;fillColor=none;dashPattern=1 2;strokeWidth=2;" vertex="1" parent="1">
          <mxGeometry x="-40" y="650" width="1040" height="200" as="geometry" />
        </mxCell>
        <mxCell id="lkz7h4dLqbm93Tn8HokA-187" value="" style="rounded=1;absoluteArcSize=1;arcSize=2;html=1;strokeColor=none;gradientColor=none;shadow=0;dashed=1;strokeColor=#4284F3;fontSize=12;fontColor=#9E9E9E;align=left;verticalAlign=top;spacing=10;spacingTop=-4;fillColor=none;dashPattern=1 2;strokeWidth=2;" vertex="1" parent="1">
          <mxGeometry x="-40" y="900" width="1040" height="200" as="geometry" />
        </mxCell>
        <mxCell id="lkz7h4dLqbm93Tn8HokA-77" value="" style="rounded=1;absoluteArcSize=1;arcSize=2;html=1;strokeColor=none;gradientColor=none;shadow=0;dashed=1;strokeColor=#4284F3;fontSize=12;fontColor=#9E9E9E;align=left;verticalAlign=top;spacing=10;spacingTop=-4;fillColor=none;dashPattern=1 2;strokeWidth=2;" vertex="1" parent="1">
          <mxGeometry x="-40" y="380" width="1040" height="200" as="geometry" />
        </mxCell>
        <mxCell id="lkz7h4dLqbm93Tn8HokA-74" value="" style="rounded=1;absoluteArcSize=1;arcSize=2;html=1;strokeColor=none;gradientColor=none;shadow=0;dashed=1;strokeColor=#4284F3;fontSize=12;fontColor=#9E9E9E;align=left;verticalAlign=top;spacing=10;spacingTop=-4;fillColor=none;dashPattern=1 2;strokeWidth=2;" vertex="1" parent="1">
          <mxGeometry x="-50" y="170" width="1040" height="140" as="geometry" />
        </mxCell>
        <mxCell id="9" value="Site Sync flow" style="fillColor=#4DA1F5;strokeColor=none;shadow=1;gradientColor=none;fontSize=14;align=left;spacingLeft=50;fontColor=#ffffff;html=1;" parent="1" vertex="1">
          <mxGeometry x="-40" y="40" width="1150" height="40" as="geometry" />
        </mxCell>
        <mxCell id="44" style="edgeStyle=orthogonalEdgeStyle;rounded=0;html=1;labelBackgroundColor=none;startFill=1;startSize=4;endArrow=blockThin;endFill=1;endSize=4;jettySize=auto;orthogonalLoop=1;strokeColor=#4284F3;strokeWidth=2;fontSize=12;fontColor=#000000;align=left;dashed=0;startArrow=blockThin;" parent="1" edge="1">
          <mxGeometry relative="1" as="geometry">
            <mxPoint x="190" y="234.5" as="sourcePoint" />
            <mxPoint x="235" y="234.5" as="targetPoint" />
          </mxGeometry>
        </mxCell>
        <mxCell id="lkz7h4dLqbm93Tn8HokA-57" value="站点云端" style="fillColor=#dae8fc;strokeColor=#6c8ebf;shadow=1;fontSize=14;align=left;spacingLeft=50;" vertex="1" parent="1">
          <mxGeometry x="240" y="110" width="160" height="40" as="geometry" />
        </mxCell>
        <mxCell id="lkz7h4dLqbm93Tn8HokA-58" value="机器人端" style="fillColor=#ffe6cc;strokeColor=#d79b00;shadow=1;fontSize=14;align=left;spacingLeft=50;" vertex="1" parent="1">
          <mxGeometry x="540" y="110" width="170" height="40" as="geometry" />
        </mxCell>
        <mxCell id="lkz7h4dLqbm93Tn8HokA-60" value="" style="sketch=0;points=[[0,0,0],[0.25,0,0],[0.5,0,0],[0.75,0,0],[1,0,0],[1,0.25,0],[1,0.5,0],[1,0.75,0],[1,1,0],[0.75,1,0],[0.5,1,0],[0.25,1,0],[0,1,0],[0,0.75,0],[0,0.5,0],[0,0.25,0]];rounded=1;absoluteArcSize=1;arcSize=2;html=1;strokeColor=#d79b00;shadow=0;dashed=0;fontSize=12;align=left;verticalAlign=top;spacing=10;spacingTop=-4;fillColor=#ffe6cc;" vertex="1" parent="1">
          <mxGeometry x="540" y="180" width="170" height="100" as="geometry" />
        </mxCell>
        <mxCell id="lkz7h4dLqbm93Tn8HokA-78" value="" style="shape=image;verticalLabelPosition=bottom;verticalAlign=top;imageAspect=0;aspect=fixed;image=data:image/png,iVBORw0KGgoAAAANSUhEUgAAAOEAAADhCAMAAAAJbSJIAAAAclBMVEX///8qsnsfsHfu+PR8y6grtX8isHhEuIYYr3Xm9/AArG+D0K9XwJT8//7j8+yw3sn2/Pqm3MTR7eHD6Njd8unL692e2b/s9/Ko3ca349CR1Lfa8ec2toJ4y6doxp5MvI1gw5qN07RSvZC95NNexJmW1Lj7OwcvAAAN0klEQVR4nO1daXeqMBB9Ro0RtVJ3Ky6t7f//i681dwIIWVASaA/3wzvntZSQbWbuLMm/fx06dOjQoUOHDh06dOjQoUMHO+Ll5n3gEZPNPm6yf4tjFAnBPEIIEV3WTfVve+SiFwCMX8aNdHAxYiH6d+vjcNlAB9csWAd7PS72wTt44DxcB7/BQs9i/IEZZIINPYIJDCRP+mF7uIGMEZ/7bd8jtssT+sgmQTu4TTCDu5n3tvZD2cUoqECdsICbY4HRPIZoDBhHcom+hWluLrdEFFDzn25TyEeBNn88va1TNg1mwK3lmIr5X21w9imH9COcTXwJu2ga2BYrEXLj90dyCk9BWgMmsotsG6KxL2iKVYjGCGOpgNkgRFtS/4oQbWUAI0oc/Dc1kFM4DEzZ4mB74wBlv/He0h2usuHo6rmd2ek2lPwc3Hsyu8iWfeuoK7ZDeEL6b4HV8+q1FdBCNvXaigawFf0SxVco+4XPRnR4gRR/99hGH1opqLJP8Sa8E8V3MPugyj7FFhrDH1EkWuhzmRixg5zztkmOsoEkiHFYhvgsNcbFk++ExHUwWljEGmrfzyc0QAuL8EoU99gETTjYFQ4gNl8e3g3Tl396eHcFQBZwD7IgIH0xYTyUk1i/f3jLwlFQIzDSUe0jDTdC0kwkL4P+2Q9RJFeQjx1eEXM/Ei+wD9iIs/yWaa1qfwlN2wAtLIIsj12N7wQtrHnYHoYHorgL7wM2YSUZDquPAfQTKb4utb3xSUCwR7WpfdBC3hAtLAIBWlEXUWycFhaxq9ebMhByYzeu7FPUSxQXIoQXryLq9GrOiJI1mkFXwEd9nuk9lH2jtLCIAybx+egCrfiGaWERR6QsPa32N8yze+tRrJJ6iGIf5kNDPmAT4B8WL8+9BqlBvSdf4wP1RNtXUWtoYRHkGnvKWj62iBYWMCPG84TGCJ4aVA3rp13UsynUao1fVSumIIoPT2IDqUHVsEJE8dFEorhttLAIEEXxIFF8k5qCN+wDNuG5RKK+eOavA+EpTzxSg9pEC4tQiUQPEMVW0sIikEgkqicSzeCyC58aVBHTR4kiSHQ7fMAmLBAyqrrWYrjOW6vsU5yQIFJxEje+sx7qw0vvEaIIWihaSAuLeIgoviOJtDU+YBOQSFTJPzzGqLTIB2zCrjpRPFqCO/2xCTAS4/Qn+pZm6UOlkiJe794Hp9Pga2+wWmbwlrmHxqy0cGKq/aXVsovoJ0P9DknfVDID8fWDs58Hvv8VLNlo7euqRJGycc+6IUHukAZkBR1VkbA+vLBK/6yw5+PNWWTb4SLZ6L5IfpCz1xr+D70POB4aOqj6M1Kfp7f8jqrStvB1h6m4H0cuLpppXKBG0c2fRKlBemW/jUw9JL9c+pA2XXKVeeaS/9UuKlsnTJc1iKESTpP4Bdak39pLU5E6P/fvv55/aF50Soul7xT2m2YQmcYpVoUoghaaKkaoRPbnPIAiYCVcM8OgYWDrzCN5KfGufsNFJPj3W9VzmvVQgSjCB5wYLAQwR3aZlGGfH4bbk6WiBhKtV/w08kP3GPvYrFcvq/0koR9peFLfmSg6pAbFny6xjEGmXL88zJed5V5Wo+xpiYrLgj74ZUALRyPinVMnT/ZoIZU5G/0/0MJ4sswqnp0zY8A/0v21pZ5HOR8arVxdH+TrdAOgsHSghZhmM+mMsyculMrlXXYKs+KW5A+7W4/4uU4yuzklKDVIJ/xuwOrixiUPUYrp7hUfnSVZdcDS6ZrTXN0HPw/4g0jTLkZgaNQYO+wwow0LtsKMfli5LfhURqNLVM8mp3LSnQqRUSb4YUrpgveHwmAVAWPF4gM+oSGjFSidrfwoedj9glOrmJ1kk5Gy2WgKS4K7JEx0XNfBP+xUMUIyxJzMIo0M8SZ1XlE0y6b4CB1iamlhCsu2E5apNscEuVsGouhGC2E+aLeDbEyuTvG6ReLL3e/hehDzL/iD6GVXiJlhyUtBdfWRmB04hnbsB6CF5igAnFs8MT2EdGyxR6bD/QdPoJRQz5jKxw/9FH5zGov1aUskcvQBK1FqeuigsrFlF6L8rjqQfEFOs5KbfVL2pRsFRlCk3UXkHy6XRTMiWRaVCR+OOZOFAnMxRM6dmia7guonlCkGYcLK1RXJOL2oP5uIopUWAlNIc6MfHWKtR1OeH481BOlaNbrK/50m/9few4Vh+IkWWstDQX/Z9aWAdOQ+lUNZZjbmDZE03Z4yRfGLGdHmcopg76EiiiUkC0YUt/mAx/oDsNLSxzitFIwT2dfMukHWeG+hVhVJrRf5Gz4qFXY448Sop5BIVMYcho7ZKWt9D0XazlC1Q9Iy881n1X0qSqUZxqItKBeJPmliU8APFlfRdkOdvT1aOM9ZW1lk7Gvy1v3INKnxMuOON/DvptZYdrTtyL9QrpGVJjaa/HL5FMWJbNYhOfxdO4cZa4p8tD/N7O9EDQzP2zrCc+o0JpBKjbQn09uceyHfWbROIdTtbvypvoepADxmTgeRLCM1pMnk/vlMIkoQLFjRuuwPrAxm9vz2S0Rb+k3cnvxEnsSikyazMLBh+O1Tbi0qh/QWxuNr5mU0KWqjlbtQXt0yC24v5Zf7iZajaS/SIKMjeZ0XoP54Rssp013a4TC5b7+KITpJv1u8B5hxm9F12wXFQ6Uwh9bEFEh6s9okEiDTbuXOhTk8zu605d2kkCgZlg80lKXNJtHMoes+pJViDGWBIED0wKqRdBKJ/3LNbu4sGNjrGqOLQgCReaHp9qGrLCWzymiVvua+fJGZqFVGyKYGCGmSF2MPyeQ3khq9LHXUh+TjNPs56MvlQ31YNelvYFcgrSwNyoA1arI9aRuas9jw0pKl7GbTwAjpcWNImaxLzI3kfD9SDIV1MLQR/6A4QLoPSwXeDDKOmwOhWpvG0S59EXcfVQqSt1gQcmV/vxkrgGIUBaYZk5O17O1k0ZnZXcZevIcbt1hW8CQq1wSsmquSQJDYm3sbjTR+WfQBGcG2jGxTEMqJH35Z3F3ZN6m5kTT3e+/DLU09IhsttYWKP1EgQmIIKP8z80M3jn/Uf0IKGgYSCeORXB1YlaTtYhiAmcLznVYX0QI2j63i+OV9cPDTuDA0NQzpapClU8NR/v0kV3qpmTGmHVyYKHIacKOwt+Xx2X1t9FHGWCsNd3oqH32e3J30tyXxD/LFFlbZHia6WQ/H5DzQLUO7v5TMMWNKwBZ9SYl6NgiTMqNryZIk4pHkjSvyoloiS/YTeqw+bzdPolwq7FMNQzZen1KftxLhGJPSS7Jd2amAotGq7NuLZ61xCydPIomLlOT00+SNzA4m1ZCjuzTIfKh+vDzTErDkybrktdtiTxSXHk1L8AExNykMA0WNczaTin/k5qVPZ9lzdp7MF8v9ZMRVgNtcbOgSe1InzunihypHpjQZCq8+FUmOyjzIhNmU1MpvraUKK3JJrB3SctCuS/zQEgNW8r0UWG6KqGcWC4ma7Bah+MforpGv8kQTZqv5XduV3Q3GOP7aeJY+Mi5gGebGckFfnc1H0Gn317Iu8qktfdQxjm/OxdibUoV6XHZpQT7PTFOzOyvnB7Rdi2O+Vzsv83JbGon7oS6mfJp3wQ0AM32VD+W16pndnshKuSmTz5XIx5cBLyS12Txs7vWWplKZ08gELLdJcvtfkk9y+vlhkpuuM/6sNERxeBtJbx7rUVfFp0mEVCmesee1hcFhfZ3P98uDMvmEoZRyXKXu2Z6bGBhvStWUB2x+UCk30TmQGAwqMYWPNMyC8ksdzx9QOcKtKQhSlrvQLKxptRzhFpb/kqmblAuHZeWC4CM87+0p4b5pO3Eqn6MZHXjoXqLXwnqL5beZqttlr1ZaWATVzDStMTJYJzrJ90jNTCvrnrRbhuqeqhW7/r7atapbakaWup+vqhMXmOlVdduvqSGl7KPK9cq/rA6YPfCdB0fK3DAer+X+bfX4j/zx3z9T4Tedi/HgcVh//2yTX3A+jVNk3wB1xlA7jp4t4sOS2W4HEcU6T+ytEdVpYRF01ldj9z2YMKvjdGM6ry3QVY7VQD7g58REm8/cS2q5k6XF5yYinvX0vTrtPfsS0dynPS3tPb8UHsbnvWV//gxaRRRbdo7wuUav9aK+0aoPz9DCIpDWq4sZNAFralA1bNt3JnvdN9zBIdm+c/VrI+cgiu3RGLXfjdC2+y2cUoOqAZmglmSBYPBxmeWfv2emVXcFVT/ZywktvO+pbqFAd3Y1ThS9XXy+RbaDvztAHUH3rtWvnP/83XmKKDZy2XGK+mhhEa1IJALRcU0NqgYqWmr2HlKvyUx+NG0lkA/Yl+Xx5+8DppqdGm90q4hHUoOq4c/fy9303ep1+YBNqPlGt2qg2yy8bhJbxYlXXDzQwiKWmUNLAiOQslKJROGJYqiLz1F6F94/fA0WXUBEcRjYP/xUalA1gCjWdgeoI6h6OoQqRiJR2IqTl6euzKkIb24EE7A3WBiTeB6eKB7COsLoaIKAqaeghcGcmcETiepIDaqGU9hEIgQVQl58Pg6bSNREBiEqTlgQYSNPYQrsqsWhaz22879w9kOH0xLrB/wJPXbZb/sesV2eUBHswwdsAp0t0+OCDT2CUcVz+EK6AzfW5teOMFs+hzXTH2RaO3gTlPvfIgnWRTZsJpSwPYaZRsYvjSUrLU5RJEx3Pz2Nn0NDL42mgMTLzfvAIyabfbsyBjt06NChQ4cOHTp06NChQ4eW4j9Cmc1YYoiQOQAAAABJRU5ErkJggg==" vertex="1" parent="1">
          <mxGeometry x="440" y="200" width="60" height="60" as="geometry" />
        </mxCell>
        <mxCell id="lkz7h4dLqbm93Tn8HokA-83" value="Message" style="swimlane;childLayout=stackLayout;horizontal=1;startSize=30;horizontalStack=0;rounded=1;fontSize=14;fontStyle=0;strokeWidth=2;resizeParent=0;resizeLast=1;shadow=0;dashed=0;align=center;" vertex="1" parent="1">
          <mxGeometry x="240" y="180" width="160" height="120" as="geometry" />
        </mxCell>
        <mxCell id="lkz7h4dLqbm93Tn8HokA-84" value="+SiteId&#xa;+Version&#xa;+addition" style="align=left;strokeColor=none;fillColor=none;spacingLeft=4;fontSize=12;verticalAlign=top;resizable=0;rotatable=0;part=1;" vertex="1" parent="lkz7h4dLqbm93Tn8HokA-83">
          <mxGeometry y="30" width="160" height="90" as="geometry" />
        </mxCell>
        <mxCell id="lkz7h4dLqbm93Tn8HokA-85" style="edgeStyle=orthogonalEdgeStyle;rounded=0;html=1;labelBackgroundColor=none;startFill=1;startSize=4;endArrow=blockThin;endFill=1;endSize=4;jettySize=auto;orthogonalLoop=1;strokeColor=#9E9E9E;strokeWidth=2;fontSize=12;fontColor=#000000;align=left;dashed=0;entryX=0;entryY=0.5;entryDx=0;entryDy=0;" edge="1" parent="1" target="lkz7h4dLqbm93Tn8HokA-78">
          <mxGeometry relative="1" as="geometry">
            <mxPoint x="400" y="229.5" as="sourcePoint" />
            <mxPoint x="480" y="229.5" as="targetPoint" />
          </mxGeometry>
        </mxCell>
        <mxCell id="lkz7h4dLqbm93Tn8HokA-86" style="edgeStyle=orthogonalEdgeStyle;rounded=0;html=1;labelBackgroundColor=none;startFill=1;startSize=4;endArrow=blockThin;endFill=1;endSize=4;jettySize=auto;orthogonalLoop=1;strokeColor=#9E9E9E;strokeWidth=2;fontSize=12;fontColor=#000000;align=left;dashed=0;" edge="1" parent="1" target="lkz7h4dLqbm93Tn8HokA-60">
          <mxGeometry relative="1" as="geometry">
            <mxPoint x="500" y="230" as="sourcePoint" />
            <mxPoint x="450" y="240" as="targetPoint" />
          </mxGeometry>
        </mxCell>
        <mxCell id="lkz7h4dLqbm93Tn8HokA-87" value="&lt;font style=&quot;font-size: 32px&quot;&gt;RCC&lt;/font&gt;" style="text;html=1;resizable=0;autosize=1;align=center;verticalAlign=middle;points=[];fillColor=none;strokeColor=none;rounded=0;" vertex="1" parent="1">
          <mxGeometry x="585" y="220" width="90" height="30" as="geometry" />
        </mxCell>
        <mxCell id="lkz7h4dLqbm93Tn8HokA-128" value="" style="fillColor=#dae8fc;strokeColor=#6c8ebf;shadow=1;fontSize=14;align=left;spacingLeft=50;" vertex="1" parent="1">
          <mxGeometry x="240" y="419.5" width="160" height="96" as="geometry" />
        </mxCell>
        <mxCell id="lkz7h4dLqbm93Tn8HokA-130" value="" style="sketch=0;aspect=fixed;html=1;points=[];align=left;image;fontSize=12;image=img/lib/mscae/Management_Groups.svg;shadow=0;dashed=0;fontFamily=Helvetica;fontColor=#9E9E9E;fillColor=#E1F5FE;" vertex="1" parent="1">
          <mxGeometry x="284.55" y="435.5" width="70.91" height="60" as="geometry" />
        </mxCell>
        <mxCell id="lkz7h4dLqbm93Tn8HokA-212" style="edgeStyle=orthogonalEdgeStyle;rounded=0;orthogonalLoop=1;jettySize=auto;html=1;entryX=1;entryY=0.5;entryDx=0;entryDy=0;fontSize=22;fontColor=#FF3333;strokeColor=#3333FF;strokeWidth=2;" edge="1" parent="1" source="lkz7h4dLqbm93Tn8HokA-131" target="lkz7h4dLqbm93Tn8HokA-128">
          <mxGeometry relative="1" as="geometry" />
        </mxCell>
        <mxCell id="lkz7h4dLqbm93Tn8HokA-219" style="edgeStyle=orthogonalEdgeStyle;curved=1;rounded=0;orthogonalLoop=1;jettySize=auto;html=1;fontSize=22;fontColor=#FF3333;strokeColor=#3333FF;strokeWidth=2;exitX=0.465;exitY=1.035;exitDx=0;exitDy=0;exitPerimeter=0;" edge="1" parent="1" source="lkz7h4dLqbm93Tn8HokA-131" target="lkz7h4dLqbm93Tn8HokA-133">
          <mxGeometry relative="1" as="geometry">
            <Array as="points">
              <mxPoint x="624" y="540" />
              <mxPoint x="510" y="540" />
            </Array>
          </mxGeometry>
        </mxCell>
        <mxCell id="lkz7h4dLqbm93Tn8HokA-131" value="" style="sketch=0;points=[[0,0,0],[0.25,0,0],[0.5,0,0],[0.75,0,0],[1,0,0],[1,0.25,0],[1,0.5,0],[1,0.75,0],[1,1,0],[0.75,1,0],[0.5,1,0],[0.25,1,0],[0,1,0],[0,0.75,0],[0,0.5,0],[0,0.25,0]];rounded=1;absoluteArcSize=1;arcSize=2;html=1;strokeColor=#d79b00;shadow=0;dashed=0;fontSize=12;align=left;verticalAlign=top;spacing=10;spacingTop=-4;fillColor=#ffe6cc;" vertex="1" parent="1">
          <mxGeometry x="545" y="417.5" width="170" height="100" as="geometry" />
        </mxCell>
        <mxCell id="lkz7h4dLqbm93Tn8HokA-133" value="&lt;font style=&quot;font-size: 22px&quot;&gt;下载站点&lt;/font&gt;" style="text;html=1;resizable=0;autosize=1;align=center;verticalAlign=middle;points=[];fillColor=none;strokeColor=none;rounded=0;fontSize=32;" vertex="1" parent="1">
          <mxGeometry x="420" y="417.5" width="100" height="50" as="geometry" />
        </mxCell>
        <mxCell id="lkz7h4dLqbm93Tn8HokA-134" value="&lt;font style=&quot;font-size: 32px&quot;&gt;RCC&lt;/font&gt;" style="text;html=1;resizable=0;autosize=1;align=center;verticalAlign=middle;points=[];fillColor=none;strokeColor=none;rounded=0;" vertex="1" parent="1">
          <mxGeometry x="585" y="452.5" width="90" height="30" as="geometry" />
        </mxCell>
        <mxCell id="lkz7h4dLqbm93Tn8HokA-135" value="地图云端" style="fillColor=#b1ddf0;strokeColor=#10739e;shadow=1;fontSize=14;align=left;spacingLeft=50;" vertex="1" parent="1">
          <mxGeometry x="820" y="110" width="160" height="40" as="geometry" />
        </mxCell>
        <mxCell id="lkz7h4dLqbm93Tn8HokA-137" value="" style="group" vertex="1" connectable="0" parent="1">
          <mxGeometry x="-40" y="110" width="230" height="200" as="geometry" />
        </mxCell>
        <mxCell id="8" value="UI" style="rounded=1;absoluteArcSize=1;arcSize=2;html=1;strokeColor=none;gradientColor=none;shadow=0;dashed=0;fontSize=12;fontColor=#9E9E9E;align=left;verticalAlign=top;spacing=10;spacingTop=-4;fillColor=#F1F8E9;" parent="lkz7h4dLqbm93Tn8HokA-137" vertex="1">
          <mxGeometry width="230" height="200" as="geometry" />
        </mxCell>
        <mxCell id="lkz7h4dLqbm93Tn8HokA-56" value="" style="points=[[0.35,0,0],[0.98,0.51,0],[1,0.71,0],[0.67,1,0],[0,0.795,0],[0,0.65,0]];verticalLabelPosition=bottom;sketch=0;html=1;verticalAlign=top;aspect=fixed;align=center;pointerEvents=1;shape=mxgraph.cisco19.user;fillColor=#005073;strokeColor=none;" vertex="1" parent="lkz7h4dLqbm93Tn8HokA-137">
          <mxGeometry x="12" y="80" width="50" height="50" as="geometry" />
        </mxCell>
        <mxCell id="lkz7h4dLqbm93Tn8HokA-76" value="绑定站点" style="text;html=1;resizable=0;autosize=1;align=center;verticalAlign=middle;points=[];fillColor=none;strokeColor=none;rounded=0;" vertex="1" parent="lkz7h4dLqbm93Tn8HokA-137">
          <mxGeometry x="98.5" y="170" width="60" height="20" as="geometry" />
        </mxCell>
        <mxCell id="lkz7h4dLqbm93Tn8HokA-119" value="机器人列表" style="html=1;fillColor=none;strokeColor=none;fontSize=11;align=left;fontColor=#596780;whiteSpace=wrap;sketch=1;hachureGap=4;pointerEvents=0;fontFamily=Architects Daughter;fontSource=https%3A%2F%2Ffonts.googleapis.com%2Fcss%3Ffamily%3DArchitects%2BDaughter;" vertex="1" parent="lkz7h4dLqbm93Tn8HokA-137">
          <mxGeometry x="61.5" y="30" width="150" height="20" as="geometry" />
        </mxCell>
        <mxCell id="lkz7h4dLqbm93Tn8HokA-120" value="站点" style="html=1;fillColor=none;strokeColor=none;fontSize=11;align=left;fontColor=#596780;whiteSpace=wrap;sketch=1;hachureGap=4;pointerEvents=0;fontFamily=Architects Daughter;fontSource=https%3A%2F%2Ffonts.googleapis.com%2Fcss%3Ffamily%3DArchitects%2BDaughter;" vertex="1" parent="lkz7h4dLqbm93Tn8HokA-137">
          <mxGeometry x="168.5" y="30" width="43" height="22" as="geometry" />
        </mxCell>
        <mxCell id="lkz7h4dLqbm93Tn8HokA-121" value="" style="shape=line;strokeWidth=2;html=1;strokeColor=#DFE1E5;resizeWidth=1;sketch=1;hachureGap=4;pointerEvents=0;fontFamily=Architects Daughter;fontSource=https%3A%2F%2Ffonts.googleapis.com%2Fcss%3Ffamily%3DArchitects%2BDaughter;fontSize=20;" vertex="1" parent="lkz7h4dLqbm93Tn8HokA-137">
          <mxGeometry x="57.5" y="50" width="150" height="10" as="geometry" />
        </mxCell>
        <mxCell id="lkz7h4dLqbm93Tn8HokA-122" value="XXX" style="html=1;fillColor=none;strokeColor=none;fontSize=12;align=left;fontColor=#000000;whiteSpace=wrap;fontStyle=1;sketch=1;hachureGap=4;pointerEvents=0;fontFamily=Architects Daughter;fontSource=https%3A%2F%2Ffonts.googleapis.com%2Fcss%3Ffamily%3DArchitects%2BDaughter;" vertex="1" parent="lkz7h4dLqbm93Tn8HokA-137">
          <mxGeometry x="108.5" y="73" width="73" height="26" as="geometry" />
        </mxCell>
        <mxCell id="lkz7h4dLqbm93Tn8HokA-123" value="YYY" style="html=1;fillColor=none;strokeColor=none;fontSize=12;align=left;fontColor=#000000;whiteSpace=wrap;fontStyle=1;sketch=1;hachureGap=4;pointerEvents=0;fontFamily=Architects Daughter;fontSource=https%3A%2F%2Ffonts.googleapis.com%2Fcss%3Ffamily%3DArchitects%2BDaughter;" vertex="1" parent="lkz7h4dLqbm93Tn8HokA-137">
          <mxGeometry x="98.5" y="121" width="33" height="11" as="geometry" />
        </mxCell>
        <mxCell id="lkz7h4dLqbm93Tn8HokA-124" value="" style="shape=mxgraph.office.security.lock_protected;fillColor=#5E6C84;strokeColor=none;sketch=0;hachureGap=4;pointerEvents=0;fontFamily=Architects Daughter;fontSource=https%3A%2F%2Ffonts.googleapis.com%2Fcss%3Ffamily%3DArchitects%2BDaughter;fontSize=20;" vertex="1" parent="lkz7h4dLqbm93Tn8HokA-137">
          <mxGeometry x="181.5" y="118" width="10" height="14" as="geometry" />
        </mxCell>
        <mxCell id="lkz7h4dLqbm93Tn8HokA-125" value="" style="shape=image;verticalLabelPosition=bottom;verticalAlign=top;imageAspect=0;aspect=fixed;image=data:image/webp,UklGRooYAABXRUJQVlA4IH4YAABwuwCdASpWAvQBPpFEnkwlo60iIhFJCaASCWlu7ulSKOAQFbJMn/GerrxqiA+yzONPN/uD4s9kjcDw/0LlA/dP+7cY9E2Tz8+P8bzg+z+w6yC+s1/recz651HQRfO+UT3+PnAonv8fOBRPf4+cCie/x84FE9/j5wKJ7/HzgUT3+PnAonv8fOBRPf4+cCie/x84FE9/j5wKJcJYRIC3MNYoBpeVWtFXlx9YON6Cie/x84FE9/j5wKJhjL/mXi4f/jiiVvFUDciPOjHzkXRyRANF9U16qMusd97UjSA5ZpF5nZ/1BAipuOE5XCVCtVzrRKfarnWiU+1Hy+x+sNeKfl6lA7QnZjSKOTfQF5MVEZ6YrTuAUMe8oupkNxJIN+tURK4UtCRLdGX6jcdyYIQTRsp7X1vtVzrRKfarnWiU+xtmBiy8omEDcpDE4j7jr5VwlMT6PZ6gSVu3VKI7h+i1E65cFbteNpKMUfnl4IsJ7/HzgUT3+PnAol3Cl/uJSWwBory5yUOAyMlzuTlrK5Rhk+biAndQbWx2OvTNv//kwzsTUPhGVTaJU6daJT7Vc60Sn2q51ViDjRfVHBizDevAXbZZmNMjq/h1ntcK/CGfH2j5wKJ7/HzgUT38W6c/kv4uTxHed1/MIC+pxoI5i1Ws/NElB7Vc60Sn2q51olNkWtItGOMdzS6f4lieuMkuMWEiUeiO1rujfLo/aqbTHXnG76VZM0GWlolPtVzrRKfarkHUwmnUV9vCT/5uzfpnpOQIS73jGiSwEygRsMdh4MnTk07ncz+NETK4MFFarnWiU+1XIM3H+2hwfl9RfsTHKpm/tKLgmfBhpJbEpc4RWhHCuIju1L8XID+QD5wKJ7/HzgUT3+HkcH+5z0ih1DXINfnLTcc++YqROzW1Zv7EUPzvlE9/j5wKJ7/DnprS8iMh3K4Cz4+sVVL+XEha4kotbj9JJS+rDrYCK8Q80GCitVzrRKfarnVXI3oSiH3XRxXfKaElqmTVNUXOSlGziuUsECxP8syATPNBm4NpvhH7R84FE9/j5wKDmf9rqh1OXg+oPlFWVdGuPGr6wirmillCf6hnsocK3UPbukCFKiSn2q51olPtVyFHqz4VJg1I8whtAgJSGnt2DInuqHiJPchRgp0k0VCC3VlE9/j5wKJ7+WgLmYqMy4RC0GrQ6tp2YPhGLNQg3RYalzola6+n2NPicPHfKJ7/HzgUT38tJakeDA0X4dDFx15lnYaAB0ukKqW3d57VTv2ALasrQ75ho+cCie/x84FE8rr2l/jUploPhFSkfVYJD/TYGdOgOAaPhMzWuyQL3k5GM+QrODWfPzGmdp451olPtVzrQ7+xZMEpqu23n4H4H8bTBOB9/mNpr7CPahx6bbOocaLa6ODAU9sEb9TmTckp9qudaJT8icW0iCRr0kecr/iTHiBZxZE+SUrWOvn65L9tTg6vsCBj/t6QqcP/7j3rrfJoWr2IaoQSr5twxRIGaQCC/6M3+IhFMOErBUQ67WitXv2SMM8jl1N9kMrDVCY1k9ZRvFGF7a479ekc5BOhl3FbMtYGByIEAVl4ujLYqw1iFjGRlP2b4ScLD11bzP3yiidetFE6VeI9TcQUKFT4NUvr8kgy02BFPhK3Vw0Ykhf1zxIka9RR6FQBlp+4IDfeljSaJ/Xr2s6RbsPbfbANrJhiZ5U0hr4ftW/8DX3HRdY/Una8i1FOypPfpnuCleWNvuUbsbQRZP+YUJajIgHzgUUDx1fyr3z2jJZEo/CvtjIGqb6IQIxvy1TM+HBY9gvu061tCK/zo9m77vw9j5V2GW78ZiaNsxiFh+0VsJfA/ZFWXAPwXazyp40/9gAijfjP5SGXyKFs+SX0uOKY+sSLkf1imphq5SXuz4+hXbZbR84GuI4eCaXOYWtdbhmMF/Kam6PDVRPf4+eZGkmobxewVLKOlIA4FE9/j5wKJ7/In+ff3U5XpNk9/j5wKJ7/HzgUT4Cg+PoVu+tEp9qudaJT7VccAAD+/iLAAAAAAAeeli/f4gB6wjlme00Frqv6g6Po+TH96x9ZnuwdrarcOpNpASgjEtRlfCL6k79ehJVRazXgo3MidQvLq6bBsOoipsx3bZOH5nuBvo9/938F/9x+qelQviDc1i4ohfCxy2j2dq0AV/LBZ2Y9+aSu3LG8dtXgACe1uZFoUjbZxK6IRoTfywH/eT+w9SK2X+qfrq1+LWLnwgFOlmv+39FS5aLbmlsKi1sDjSEnGzegjjJZ5jKG+z6joU+utijtaGzmBgToIceMO/d3Aqe9b6sZX/LyQ9tlwV1hHwgxrPEdde+C1M0fJuwMSHsTgP0CRSbINYwqjAR1hTbcqweP2HtqI4Mru+Nrr2TFEGvAzs1V+uCGE+TqHV5psOdKq7UCOuHTM/XjyR7Z4IrSFIS207DTzYMBU+Hbpet+Jh+QJ+luajboKJbwdO4ATcGO7giXbYshzp1qFBsCwP2xzhd4JejQBGtxbuiR3veHXC1kO2d1lwhn8eeYrX8/TIWhCZUqHRoKarwEvqhU0hPjlFXMhXiaRDdQqkSq39+lNw4CT7pkJ9zZXTpgQN4RQXAOEOKy5zdXg9URqFb7j1AwFa3gvzQ4l0P9w0OttwsFfL37gtDEdxemegxTXC0GLH8TKhtmExD4vY3bLlCzDnIKZpYEM4GqpN4Tgdq4pxZGifAB0h89tjyl/SWuaLpoG4ONJmV8o9ivBetibUAlpEEjaKqwhuMy2kWB5qudJ1iSJGBKxl1qCJ16jr52eu+jm98d0ux+zd9MFjPW8UYTDluqLFJRRwKpykSy2vyUUwfIaKXwjeFgw8m7I4avg9/DSg6oDc2TgncD2ryTnvcz/1PLLdjIKrasLgPkUHoa1lPxlEwTyGIUy/dAz1u5AQu2KPDvnwzukADt6KLYiaLaJOVney6ax7VW/494I1OUmsMOwa8vh/1jw4Ah7NCnqIP6ARexDAL0AwmEQtO7UxUNtfnhg5e82fzzTiPrr3AnwIjvkh7piSDo4AJjkSUbSfMWf92w4vvr8gSCc+7I/jd+9Rxs4hmOL4kMgCtMt0UHJ8tSOSenu5pzd8WaTgv6sNn1Kh55KEp/y7+aicHSDcNg+9IEwivQG8bgisSlVnTvqL+BJ/CS9z30E4lhD5nB3tna9SOyoktZUgMTH1I8Bo3j8X7xxcw5O3rNgDEQ1wuf9fSUyPoGo7LL2d17+zoGcmu0fa+AcPOnnGRS49dnKR8L4ZRvk7yZ+I/DhX+Cidm1abSju/CmBQXZwiTJzI0sXxt68abKNMfRdjpla6yVxOSPXYahDL8O1JoKevEq3n7baWhGZ430oVsUz6vOkTlPA7nNMyGXXeLfQm+hob2aGkMrJpYa+DxH/urmuz4S7l0oaEGYUe+4w+v7v2THLA+k0HXicBKHnMO86welOETC0UjnecsF2XokUTBTi1cHoE1S6CCBCx00Gqxf3r1tgQA9QKpAYR3rSHRNFfmxKRHuQwfqGImDEJJ7OWtJiDuNLBj6NGw3N5KHtAldFc9sRpUm/bSjFSUBj9CH+8PYzvv84fvIXofWgZprEtPyz0rjr1KVJdYxbxNy85KAA4eeKXcr+7jXEBwbrNkIMQJDG/axtinIe8vuNdGldNPZJ/3ZcOX1TOjkEgK8tNJt+P2OlqUHPJkQwTYgrOCcTMAu1KYGVO09aPtbN8uvoN+BKoDXPdGX7jbKCr9EjrxI7D4oWS+OLeY63PCwClInVS0erutkA5dVysoFTQxoH9VUDcHmzU0ajtBGV1Om8zcc/Y8Y5ZYpHwmcqWsLmIe4JhnpudEpYUpt0H26QH7riqX/p1CoKWpHcNPn4r7eyEnMJ4OPdiqQDSP382ucAsdX8komo+bCFdJRo77wa2z6xwNeK9D6Kf4kmcLpLdL2Z4Vwar7769s19NnY60akw+u5kYDWDjmwLWLRnSwzQrQme5zWHHjXrHGGF9cGtOADn9/CX37eaEMVw5jZSN4SJ8Tw28pwiNRJ3m7DyBMnUR4hiZzZRL4Bi9HCKrOXCr9NgYenwbgG0AA1lpuzet+quo4vCPieNDgiXpWVMBbKt47VemANw1nAufG7hKxGfD6QsKy11joH2yvAfkUlVrUhNXcJb1oIK/bAkGaNA/Cn+/4CRN9k8xAwRMFHf9u4LHMbKpBRB2MW/xTmF4Jh59uUUP6gEsLiuTOaMrIRCPEEx515coBEpzRNzUAaHm4fZAXIgVssRprv9Ev4IjpGsQ6anLwLQSVkMJuBI5er4N7tuYS1e5rtWjWq8ItEqYEENDbamiYrqAxqsUHFclqw6Fpw+Pv3+m80epe+WSbMKHsuXazTKVChepQyno2oVIZ/LnD2pOI+UDar8vXW76sPoKxuL6PRVrpNcwcTx0qBKY7HZFohZGN+BK3qMwMs5g4NuUYWOKeL5k81vXRuzLx8NNkBuRwAyDaCEXXWeEpz8id0R9+CkU66vQ7Yy9qIbGHP22eqxKXyFJqJ7GGM06JiZXkWRAONZGb6jpVpOBxKCIZpjTlyZT3lMU3WtlO5Gy56hc9L1KKiQD20cp6CgnWwpYpU75vpDThwCahfDpjZDEF+MCxJ8Xh84KseOwL0c38UgVbhPVpM7SG8kpDBNwUMfQ6rgaCTm9R/KLlpYslNZgLuzeSTsN359oL4PWC5aoMD+2yeoJWAbQk1nnrMIBJiIaosk6YP/4TIPMGCNJ2n5kYwenWORYGO/eG/9EKHXfOrMLlOLcYCVKT9OQ+aAkjS2qgeRCZz4O9tIAWhRN1qqlQDg+Xa2m+8y8GV/RF4LIDDgzO9eLUb2R6h+x1j2jmjx1B2xapFqNym+SH2OnAbJ9DpcN8HOkGwOPVvzVljpqFQsj801NNMeHn+i90j+A54PoAAyjJWp3dBGDK98xb3ywO0yl+eSpau0rtRBgbOmcFQKoyjM5uxMhc8Cm5TjKvs17c8op21L7Xf0jgCVitDFFtjSmIacGbZTVycoDzyMe3a5Lvg8PaOxivR/5Pi3rTIy7ZQAD3wOn6f9qiWSCw687SvRab0vjjv8xFn1V5vRosmHK8g3ILbde6F1LxJbkxefD9hHNTLM/JR3fRIx8hykh2KWMp7yiCOVynMKxbX9CmN1w9UkUvPVQ7FFIIdSRvqTOdHNM3UiPXeREdXj8U6rFdkyurr/BDoXwRBhWE9bh/oYXmsJ4zdVgCI2Oudl3NsRRj7nKMkrRKvAnpreVW5eQaiHdDeyjs1L2y6zpHgeHDMNGmln8MsDFnvKH13fF2mqUQzYiupHH7zX4bbJYcGpHZoyEbQ0yvfsdHVGgkgpBIAhFCeNJ7PLrCngaG5qWB7uDeMzhqVDeTSUyBy8dbvt2cmcBvtZCIqRiVzGgKKWFiZ/EHxkgboUoRBkh4Rho7dS0j9JFEGkHv/2Fy+D1cviRA0+8k/rakZMfYe2CkrHCa7kBfgu2wF1KCm9xwpF7WPRlXK/vOCY+aJ70rK5LVOpSWLzvkp4zC+BuTiKE9TmVPa2GEm5LsvvnHIG8frhiN6dTuRqFP4LvY7vwQiS/7JZU4CeXq7rEnNiYLi2/JgI1MLm7IJlXgozYsh7DsANeLqMGu3/wbRWQbB3nNaf8gMOKnegwXF+gJ8Tb2QCR+vCpSEmWOZmJfXKcJ0tPRD4/kT9RZoKDsPw9ymON+T3ZZqRcFDTURwp9X8zXjfvRhaYxI9EfRM8FXu65lAXUbCECs+9CEs+hr1AjCtebmizigCzNlZZdybSzo8K65UEm9+h234fvzcj5xaRDaqXef0pOIYcevgL7wcZxH7Q6W25/t3zPMYwbjQem+8vWHlTyspkHez++Dh++kKWn3hqZpsY4GhGUQ1UspOEvi8c/FzL5e0ur0+3oAFPpap8L7opm0a4AWRQ0y44PBRfYvgC6NwPw/WRJgXheS/AMCOP1GiSq3skN0ZiaV+Hvc5xwhmfkcUeIhzaLqw9YR7V1Up0IH0/9TmmBDBxrTKUbo2Cr60Axu5OJqxjw0TWRvMqExO7BRqbIl5Nz/5Odha29Q8fvZkwsZg51fJREH/xuHYj/bVACIdyY6OfXwKyJm/H8ttfN3/7UqIzSof807L6vRArxYTuusFyciIVnIQgAR2mXjMblUdIMj6GgzU3bvIGShS7ccboil8vkM2UgA3yz+aVYuqYCAIMuR+2Xt/NNhx6GcUfzUHbfeuNeQW9tSDN7luT06di1EXB1coDL01vUc1vC4X8WHTzJ/NvEdDDFpf1zHSn+S2dvL36su9TueMuybcImTRUkvgwVLQ/56Kw2MMRu/qJfC5TKcUFVEfOf72kEB9+T7U7J/nS3NcJQZ5RUPHg/bH13qDxhtJawP3FD9mN1N+sKp1c08bsqc5STaa8svKJTLuoUTuQY+cNCjTrMo83nQRQf+yIizDwD51i1HucEcZa2w49QunDGSwTC99UdMgs4rWbj80Pj7fIVktWKBGtrU8xirevWsWsOwpmQ/R3fOXP9rStXmbfy5MJ5psko0h+JpB5f4iDjRNzIdiYV6igQEHtQkhb6CNInA6OTU8qQHkA8Ax2HyVwW5Wn5oYHb2Umgx2QT02/4/so3QZvLxPMecc/njzSjohID5vHHcFoN2zwZoIl/2Ucxuc1rCTNrCPKANtEMUXk/f/41ZruM+sHA05/9Gc8QFpmxmr0IpTzPMlvlpa/8TnrVR2tf/BUaBmsMz7jgixNM38uerk2Oh7zyLa5UEb1OCg8I2sNJ8mHHZYIGwR7wquH1PMFQuchm3Wxleu1YgBextbeBzwsNpEgQh/ZkCupVNw5mVJeqE4pmqGMmrEYE3GLfL05I71X5Ys+u8qNeXeXC+pJnN5CDxs44/fodiset4a+UDHJVCAQG8PjXXHKfyCgTY2b2oQQTz3hPcGglmgnnbZM7UL64tN+q9scMgdUk8WWpoz5VZJQrqSUgALEyApI0NiRMG6/AgQddhelwhiZhMA3o0qi03Y2lYvDcA1QTwY+4B0OacT7EP4vNlSIc+Fb90fme60NhGt9RZ6BZj7mFHHMv9qn4R6QqcF/u+ZMnSqo0k7kK/8yXJnYc0f2j1O41XHjtGmdifHv3kEMPkRaMuO+sdsVUVNdlgHCJ/gyKLxu0eV76pdEgRp/p16z/C/XCkPrIabSiayowgrCmI8oIJA1QbNBl9m6VRzkqZWi2zQRaLTy+iUNmrgs8ka/nSxPW1Oba26PEMs1oLIyBLWCuVwtmiQ0HfPhyOykPiLspB76VtOgl2WZayysNaUNjKvyHb43Ruq30Q0QSWKF4wCM80O6Ke5iCoy0ng0MZO7i2OzugCGaXnWVx+cckTpHGKEEwzEwW/VSwyYLaWb3dYJjopvZRo/U5cKqTDWXPMH7hWvZP4pVNaz9UgzoVBGh+xa7S2IquQPrZlMjLx4rgH+21DRcrDKELlQHCj6sWOuCPAoaZlSUt1nJeyRiai345kk6klbkVEb3W9ywxJ4n8UECATEB6n9BJYYtp0I/ZACb+jkrZc24mSASLgBIjwjOJc0ohgRdh8vbpqtW2G6pAvZSQ/khb7tVemQNL4Z5L8wAeekparc6ozwqDU/bNbW4GHEE5AvsHhneFUp4v5SmL0oBmaI5OurfkNGc1QYvxigqSiIQOQWWsKPMQpyRRSU6T67a+7ewLe/O27YWQvdQowIu04zUuyElX+fhdYUipmSB6gctiRxUYQwaAsQIFaTZmYLWSmb7NJH6DsbOYYgujstRbDVmE+7LXq2KTYHjAbHXDiFEgs3tof+NEE4Wb4GVWeqXoEyPhFZIX3rvY2YLN9q8b1cUdYvTnYgAETuuLVlvsKUC90i6b1Y2SoJaG4HUEjNzzRcG99dZ1fLRtxh3rluHkMvOZHp+PRvipFdRKCkilgm+dLA4G2QJ7SOraZurrBzNtEuoF+Pn7e+l70fdpPguIG27SHx5TbOda9RZQgMQJMbdHkW/T61li06tn/MfzPNI5MsBbp8yNuvdSqhD26BO0JSMaaXyKIUbbJpKVxHVAnpp0l/wKRlETxme7pVkzEkt6PIeTYhqiczAdIHZSQ/OzHJHjglwD0aisiGesXeGtWZsw0MmwAFU9fVBGc96t4JGCp/pGdQwAi4MBzdFrgCDzExEszmg9VI4xEEF4xIFRl8FrNGHdMFqLV0vz8hw9XW4rq+XzcRxTl/6RPpxmRG/2E9F1mj9joAIvUTkRBXwxDNhh5fzEmsf74qta1M98DARN5we3wb3RwHaaNdkyulvjqx0jrncL3/ElEZgXXEiCI5vLQmGP4YRinfcbdzfUS/+KH9oaR5fvCS92u6TPoY1Tu1JZpxsTe6xDUJYAIKgurwTRI2/D1wNzLP60X1rJBY8jjSQXRAAAA=;fontSize=32;" vertex="1" parent="lkz7h4dLqbm93Tn8HokA-137">
          <mxGeometry x="74.5" y="76" width="31.1" height="26" as="geometry" />
        </mxCell>
        <mxCell id="lkz7h4dLqbm93Tn8HokA-126" value="" style="shape=image;verticalLabelPosition=bottom;verticalAlign=top;imageAspect=0;aspect=fixed;image=data:image/webp,UklGRooYAABXRUJQVlA4IH4YAABwuwCdASpWAvQBPpFEnkwlo60iIhFJCaASCWlu7ulSKOAQFbJMn/GerrxqiA+yzONPN/uD4s9kjcDw/0LlA/dP+7cY9E2Tz8+P8bzg+z+w6yC+s1/recz651HQRfO+UT3+PnAonv8fOBRPf4+cCie/x84FE9/j5wKJ7/HzgUT3+PnAonv8fOBRPf4+cCie/x84FE9/j5wKJcJYRIC3MNYoBpeVWtFXlx9YON6Cie/x84FE9/j5wKJhjL/mXi4f/jiiVvFUDciPOjHzkXRyRANF9U16qMusd97UjSA5ZpF5nZ/1BAipuOE5XCVCtVzrRKfarnWiU+1Hy+x+sNeKfl6lA7QnZjSKOTfQF5MVEZ6YrTuAUMe8oupkNxJIN+tURK4UtCRLdGX6jcdyYIQTRsp7X1vtVzrRKfarnWiU+xtmBiy8omEDcpDE4j7jr5VwlMT6PZ6gSVu3VKI7h+i1E65cFbteNpKMUfnl4IsJ7/HzgUT3+PnAol3Cl/uJSWwBory5yUOAyMlzuTlrK5Rhk+biAndQbWx2OvTNv//kwzsTUPhGVTaJU6daJT7Vc60Sn2q51ViDjRfVHBizDevAXbZZmNMjq/h1ntcK/CGfH2j5wKJ7/HzgUT38W6c/kv4uTxHed1/MIC+pxoI5i1Ws/NElB7Vc60Sn2q51olNkWtItGOMdzS6f4lieuMkuMWEiUeiO1rujfLo/aqbTHXnG76VZM0GWlolPtVzrRKfarkHUwmnUV9vCT/5uzfpnpOQIS73jGiSwEygRsMdh4MnTk07ncz+NETK4MFFarnWiU+1XIM3H+2hwfl9RfsTHKpm/tKLgmfBhpJbEpc4RWhHCuIju1L8XID+QD5wKJ7/HzgUT3+HkcH+5z0ih1DXINfnLTcc++YqROzW1Zv7EUPzvlE9/j5wKJ7/DnprS8iMh3K4Cz4+sVVL+XEha4kotbj9JJS+rDrYCK8Q80GCitVzrRKfarnVXI3oSiH3XRxXfKaElqmTVNUXOSlGziuUsECxP8syATPNBm4NpvhH7R84FE9/j5wKDmf9rqh1OXg+oPlFWVdGuPGr6wirmillCf6hnsocK3UPbukCFKiSn2q51olPtVyFHqz4VJg1I8whtAgJSGnt2DInuqHiJPchRgp0k0VCC3VlE9/j5wKJ7+WgLmYqMy4RC0GrQ6tp2YPhGLNQg3RYalzola6+n2NPicPHfKJ7/HzgUT38tJakeDA0X4dDFx15lnYaAB0ukKqW3d57VTv2ALasrQ75ho+cCie/x84FE8rr2l/jUploPhFSkfVYJD/TYGdOgOAaPhMzWuyQL3k5GM+QrODWfPzGmdp451olPtVzrQ7+xZMEpqu23n4H4H8bTBOB9/mNpr7CPahx6bbOocaLa6ODAU9sEb9TmTckp9qudaJT8icW0iCRr0kecr/iTHiBZxZE+SUrWOvn65L9tTg6vsCBj/t6QqcP/7j3rrfJoWr2IaoQSr5twxRIGaQCC/6M3+IhFMOErBUQ67WitXv2SMM8jl1N9kMrDVCY1k9ZRvFGF7a479ekc5BOhl3FbMtYGByIEAVl4ujLYqw1iFjGRlP2b4ScLD11bzP3yiidetFE6VeI9TcQUKFT4NUvr8kgy02BFPhK3Vw0Ykhf1zxIka9RR6FQBlp+4IDfeljSaJ/Xr2s6RbsPbfbANrJhiZ5U0hr4ftW/8DX3HRdY/Una8i1FOypPfpnuCleWNvuUbsbQRZP+YUJajIgHzgUUDx1fyr3z2jJZEo/CvtjIGqb6IQIxvy1TM+HBY9gvu061tCK/zo9m77vw9j5V2GW78ZiaNsxiFh+0VsJfA/ZFWXAPwXazyp40/9gAijfjP5SGXyKFs+SX0uOKY+sSLkf1imphq5SXuz4+hXbZbR84GuI4eCaXOYWtdbhmMF/Kam6PDVRPf4+eZGkmobxewVLKOlIA4FE9/j5wKJ7/In+ff3U5XpNk9/j5wKJ7/HzgUT4Cg+PoVu+tEp9qudaJT7VccAAD+/iLAAAAAAAeeli/f4gB6wjlme00Frqv6g6Po+TH96x9ZnuwdrarcOpNpASgjEtRlfCL6k79ehJVRazXgo3MidQvLq6bBsOoipsx3bZOH5nuBvo9/938F/9x+qelQviDc1i4ohfCxy2j2dq0AV/LBZ2Y9+aSu3LG8dtXgACe1uZFoUjbZxK6IRoTfywH/eT+w9SK2X+qfrq1+LWLnwgFOlmv+39FS5aLbmlsKi1sDjSEnGzegjjJZ5jKG+z6joU+utijtaGzmBgToIceMO/d3Aqe9b6sZX/LyQ9tlwV1hHwgxrPEdde+C1M0fJuwMSHsTgP0CRSbINYwqjAR1hTbcqweP2HtqI4Mru+Nrr2TFEGvAzs1V+uCGE+TqHV5psOdKq7UCOuHTM/XjyR7Z4IrSFIS207DTzYMBU+Hbpet+Jh+QJ+luajboKJbwdO4ATcGO7giXbYshzp1qFBsCwP2xzhd4JejQBGtxbuiR3veHXC1kO2d1lwhn8eeYrX8/TIWhCZUqHRoKarwEvqhU0hPjlFXMhXiaRDdQqkSq39+lNw4CT7pkJ9zZXTpgQN4RQXAOEOKy5zdXg9URqFb7j1AwFa3gvzQ4l0P9w0OttwsFfL37gtDEdxemegxTXC0GLH8TKhtmExD4vY3bLlCzDnIKZpYEM4GqpN4Tgdq4pxZGifAB0h89tjyl/SWuaLpoG4ONJmV8o9ivBetibUAlpEEjaKqwhuMy2kWB5qudJ1iSJGBKxl1qCJ16jr52eu+jm98d0ux+zd9MFjPW8UYTDluqLFJRRwKpykSy2vyUUwfIaKXwjeFgw8m7I4avg9/DSg6oDc2TgncD2ryTnvcz/1PLLdjIKrasLgPkUHoa1lPxlEwTyGIUy/dAz1u5AQu2KPDvnwzukADt6KLYiaLaJOVney6ax7VW/494I1OUmsMOwa8vh/1jw4Ah7NCnqIP6ARexDAL0AwmEQtO7UxUNtfnhg5e82fzzTiPrr3AnwIjvkh7piSDo4AJjkSUbSfMWf92w4vvr8gSCc+7I/jd+9Rxs4hmOL4kMgCtMt0UHJ8tSOSenu5pzd8WaTgv6sNn1Kh55KEp/y7+aicHSDcNg+9IEwivQG8bgisSlVnTvqL+BJ/CS9z30E4lhD5nB3tna9SOyoktZUgMTH1I8Bo3j8X7xxcw5O3rNgDEQ1wuf9fSUyPoGo7LL2d17+zoGcmu0fa+AcPOnnGRS49dnKR8L4ZRvk7yZ+I/DhX+Cidm1abSju/CmBQXZwiTJzI0sXxt68abKNMfRdjpla6yVxOSPXYahDL8O1JoKevEq3n7baWhGZ430oVsUz6vOkTlPA7nNMyGXXeLfQm+hob2aGkMrJpYa+DxH/urmuz4S7l0oaEGYUe+4w+v7v2THLA+k0HXicBKHnMO86welOETC0UjnecsF2XokUTBTi1cHoE1S6CCBCx00Gqxf3r1tgQA9QKpAYR3rSHRNFfmxKRHuQwfqGImDEJJ7OWtJiDuNLBj6NGw3N5KHtAldFc9sRpUm/bSjFSUBj9CH+8PYzvv84fvIXofWgZprEtPyz0rjr1KVJdYxbxNy85KAA4eeKXcr+7jXEBwbrNkIMQJDG/axtinIe8vuNdGldNPZJ/3ZcOX1TOjkEgK8tNJt+P2OlqUHPJkQwTYgrOCcTMAu1KYGVO09aPtbN8uvoN+BKoDXPdGX7jbKCr9EjrxI7D4oWS+OLeY63PCwClInVS0erutkA5dVysoFTQxoH9VUDcHmzU0ajtBGV1Om8zcc/Y8Y5ZYpHwmcqWsLmIe4JhnpudEpYUpt0H26QH7riqX/p1CoKWpHcNPn4r7eyEnMJ4OPdiqQDSP382ucAsdX8komo+bCFdJRo77wa2z6xwNeK9D6Kf4kmcLpLdL2Z4Vwar7769s19NnY60akw+u5kYDWDjmwLWLRnSwzQrQme5zWHHjXrHGGF9cGtOADn9/CX37eaEMVw5jZSN4SJ8Tw28pwiNRJ3m7DyBMnUR4hiZzZRL4Bi9HCKrOXCr9NgYenwbgG0AA1lpuzet+quo4vCPieNDgiXpWVMBbKt47VemANw1nAufG7hKxGfD6QsKy11joH2yvAfkUlVrUhNXcJb1oIK/bAkGaNA/Cn+/4CRN9k8xAwRMFHf9u4LHMbKpBRB2MW/xTmF4Jh59uUUP6gEsLiuTOaMrIRCPEEx515coBEpzRNzUAaHm4fZAXIgVssRprv9Ev4IjpGsQ6anLwLQSVkMJuBI5er4N7tuYS1e5rtWjWq8ItEqYEENDbamiYrqAxqsUHFclqw6Fpw+Pv3+m80epe+WSbMKHsuXazTKVChepQyno2oVIZ/LnD2pOI+UDar8vXW76sPoKxuL6PRVrpNcwcTx0qBKY7HZFohZGN+BK3qMwMs5g4NuUYWOKeL5k81vXRuzLx8NNkBuRwAyDaCEXXWeEpz8id0R9+CkU66vQ7Yy9qIbGHP22eqxKXyFJqJ7GGM06JiZXkWRAONZGb6jpVpOBxKCIZpjTlyZT3lMU3WtlO5Gy56hc9L1KKiQD20cp6CgnWwpYpU75vpDThwCahfDpjZDEF+MCxJ8Xh84KseOwL0c38UgVbhPVpM7SG8kpDBNwUMfQ6rgaCTm9R/KLlpYslNZgLuzeSTsN359oL4PWC5aoMD+2yeoJWAbQk1nnrMIBJiIaosk6YP/4TIPMGCNJ2n5kYwenWORYGO/eG/9EKHXfOrMLlOLcYCVKT9OQ+aAkjS2qgeRCZz4O9tIAWhRN1qqlQDg+Xa2m+8y8GV/RF4LIDDgzO9eLUb2R6h+x1j2jmjx1B2xapFqNym+SH2OnAbJ9DpcN8HOkGwOPVvzVljpqFQsj801NNMeHn+i90j+A54PoAAyjJWp3dBGDK98xb3ywO0yl+eSpau0rtRBgbOmcFQKoyjM5uxMhc8Cm5TjKvs17c8op21L7Xf0jgCVitDFFtjSmIacGbZTVycoDzyMe3a5Lvg8PaOxivR/5Pi3rTIy7ZQAD3wOn6f9qiWSCw687SvRab0vjjv8xFn1V5vRosmHK8g3ILbde6F1LxJbkxefD9hHNTLM/JR3fRIx8hykh2KWMp7yiCOVynMKxbX9CmN1w9UkUvPVQ7FFIIdSRvqTOdHNM3UiPXeREdXj8U6rFdkyurr/BDoXwRBhWE9bh/oYXmsJ4zdVgCI2Oudl3NsRRj7nKMkrRKvAnpreVW5eQaiHdDeyjs1L2y6zpHgeHDMNGmln8MsDFnvKH13fF2mqUQzYiupHH7zX4bbJYcGpHZoyEbQ0yvfsdHVGgkgpBIAhFCeNJ7PLrCngaG5qWB7uDeMzhqVDeTSUyBy8dbvt2cmcBvtZCIqRiVzGgKKWFiZ/EHxkgboUoRBkh4Rho7dS0j9JFEGkHv/2Fy+D1cviRA0+8k/rakZMfYe2CkrHCa7kBfgu2wF1KCm9xwpF7WPRlXK/vOCY+aJ70rK5LVOpSWLzvkp4zC+BuTiKE9TmVPa2GEm5LsvvnHIG8frhiN6dTuRqFP4LvY7vwQiS/7JZU4CeXq7rEnNiYLi2/JgI1MLm7IJlXgozYsh7DsANeLqMGu3/wbRWQbB3nNaf8gMOKnegwXF+gJ8Tb2QCR+vCpSEmWOZmJfXKcJ0tPRD4/kT9RZoKDsPw9ymON+T3ZZqRcFDTURwp9X8zXjfvRhaYxI9EfRM8FXu65lAXUbCECs+9CEs+hr1AjCtebmizigCzNlZZdybSzo8K65UEm9+h234fvzcj5xaRDaqXef0pOIYcevgL7wcZxH7Q6W25/t3zPMYwbjQem+8vWHlTyspkHez++Dh++kKWn3hqZpsY4GhGUQ1UspOEvi8c/FzL5e0ur0+3oAFPpap8L7opm0a4AWRQ0y44PBRfYvgC6NwPw/WRJgXheS/AMCOP1GiSq3skN0ZiaV+Hvc5xwhmfkcUeIhzaLqw9YR7V1Up0IH0/9TmmBDBxrTKUbo2Cr60Axu5OJqxjw0TWRvMqExO7BRqbIl5Nz/5Odha29Q8fvZkwsZg51fJREH/xuHYj/bVACIdyY6OfXwKyJm/H8ttfN3/7UqIzSof807L6vRArxYTuusFyciIVnIQgAR2mXjMblUdIMj6GgzU3bvIGShS7ccboil8vkM2UgA3yz+aVYuqYCAIMuR+2Xt/NNhx6GcUfzUHbfeuNeQW9tSDN7luT06di1EXB1coDL01vUc1vC4X8WHTzJ/NvEdDDFpf1zHSn+S2dvL36su9TueMuybcImTRUkvgwVLQ/56Kw2MMRu/qJfC5TKcUFVEfOf72kEB9+T7U7J/nS3NcJQZ5RUPHg/bH13qDxhtJawP3FD9mN1N+sKp1c08bsqc5STaa8svKJTLuoUTuQY+cNCjTrMo83nQRQf+yIizDwD51i1HucEcZa2w49QunDGSwTC99UdMgs4rWbj80Pj7fIVktWKBGtrU8xirevWsWsOwpmQ/R3fOXP9rStXmbfy5MJ5psko0h+JpB5f4iDjRNzIdiYV6igQEHtQkhb6CNInA6OTU8qQHkA8Ax2HyVwW5Wn5oYHb2Umgx2QT02/4/so3QZvLxPMecc/njzSjohID5vHHcFoN2zwZoIl/2Ucxuc1rCTNrCPKANtEMUXk/f/41ZruM+sHA05/9Gc8QFpmxmr0IpTzPMlvlpa/8TnrVR2tf/BUaBmsMz7jgixNM38uerk2Oh7zyLa5UEb1OCg8I2sNJ8mHHZYIGwR7wquH1PMFQuchm3Wxleu1YgBextbeBzwsNpEgQh/ZkCupVNw5mVJeqE4pmqGMmrEYE3GLfL05I71X5Ys+u8qNeXeXC+pJnN5CDxs44/fodiset4a+UDHJVCAQG8PjXXHKfyCgTY2b2oQQTz3hPcGglmgnnbZM7UL64tN+q9scMgdUk8WWpoz5VZJQrqSUgALEyApI0NiRMG6/AgQddhelwhiZhMA3o0qi03Y2lYvDcA1QTwY+4B0OacT7EP4vNlSIc+Fb90fme60NhGt9RZ6BZj7mFHHMv9qn4R6QqcF/u+ZMnSqo0k7kK/8yXJnYc0f2j1O41XHjtGmdifHv3kEMPkRaMuO+sdsVUVNdlgHCJ/gyKLxu0eV76pdEgRp/p16z/C/XCkPrIabSiayowgrCmI8oIJA1QbNBl9m6VRzkqZWi2zQRaLTy+iUNmrgs8ka/nSxPW1Oba26PEMs1oLIyBLWCuVwtmiQ0HfPhyOykPiLspB76VtOgl2WZayysNaUNjKvyHb43Ruq30Q0QSWKF4wCM80O6Ke5iCoy0ng0MZO7i2OzugCGaXnWVx+cckTpHGKEEwzEwW/VSwyYLaWb3dYJjopvZRo/U5cKqTDWXPMH7hWvZP4pVNaz9UgzoVBGh+xa7S2IquQPrZlMjLx4rgH+21DRcrDKELlQHCj6sWOuCPAoaZlSUt1nJeyRiai345kk6klbkVEb3W9ywxJ4n8UECATEB6n9BJYYtp0I/ZACb+jkrZc24mSASLgBIjwjOJc0ohgRdh8vbpqtW2G6pAvZSQ/khb7tVemQNL4Z5L8wAeekparc6ozwqDU/bNbW4GHEE5AvsHhneFUp4v5SmL0oBmaI5OurfkNGc1QYvxigqSiIQOQWWsKPMQpyRRSU6T67a+7ewLe/O27YWQvdQowIu04zUuyElX+fhdYUipmSB6gctiRxUYQwaAsQIFaTZmYLWSmb7NJH6DsbOYYgujstRbDVmE+7LXq2KTYHjAbHXDiFEgs3tof+NEE4Wb4GVWeqXoEyPhFZIX3rvY2YLN9q8b1cUdYvTnYgAETuuLVlvsKUC90i6b1Y2SoJaG4HUEjNzzRcG99dZ1fLRtxh3rluHkMvOZHp+PRvipFdRKCkilgm+dLA4G2QJ7SOraZurrBzNtEuoF+Pn7e+l70fdpPguIG27SHx5TbOda9RZQgMQJMbdHkW/T61li06tn/MfzPNI5MsBbp8yNuvdSqhD26BO0JSMaaXyKIUbbJpKVxHVAnpp0l/wKRlETxme7pVkzEkt6PIeTYhqiczAdIHZSQ/OzHJHjglwD0aisiGesXeGtWZsw0MmwAFU9fVBGc96t4JGCp/pGdQwAi4MBzdFrgCDzExEszmg9VI4xEEF4xIFRl8FrNGHdMFqLV0vz8hw9XW4rq+XzcRxTl/6RPpxmRG/2E9F1mj9joAIvUTkRBXwxDNhh5fzEmsf74qta1M98DARN5we3wb3RwHaaNdkyulvjqx0jrncL3/ElEZgXXEiCI5vLQmGP4YRinfcbdzfUS/+KH9oaR5fvCS92u6TPoY1Tu1JZpxsTe6xDUJYAIKgurwTRI2/D1wNzLP60X1rJBY8jjSQXRAAAA=;fontSize=32;" vertex="1" parent="lkz7h4dLqbm93Tn8HokA-137">
          <mxGeometry x="74.5" y="119" width="31.1" height="26" as="geometry" />
        </mxCell>
        <mxCell id="lkz7h4dLqbm93Tn8HokA-127" value="&lt;font color=&quot;#ff3333&quot;&gt;下发成功&lt;/font&gt;" style="text;html=1;resizable=0;autosize=1;align=center;verticalAlign=middle;points=[];fillColor=none;strokeColor=none;rounded=0;" vertex="1" parent="lkz7h4dLqbm93Tn8HokA-137">
          <mxGeometry x="156.5" y="73" width="60" height="20" as="geometry" />
        </mxCell>
        <mxCell id="lkz7h4dLqbm93Tn8HokA-138" value="" style="group" vertex="1" connectable="0" parent="1">
          <mxGeometry x="-30" y="380" width="230" height="200" as="geometry" />
        </mxCell>
        <mxCell id="lkz7h4dLqbm93Tn8HokA-139" value="UI" style="rounded=1;absoluteArcSize=1;arcSize=2;html=1;strokeColor=none;gradientColor=none;shadow=0;dashed=0;fontSize=12;fontColor=#9E9E9E;align=left;verticalAlign=top;spacing=10;spacingTop=-4;fillColor=#F1F8E9;" vertex="1" parent="lkz7h4dLqbm93Tn8HokA-138">
          <mxGeometry width="230" height="200" as="geometry" />
        </mxCell>
        <mxCell id="lkz7h4dLqbm93Tn8HokA-140" value="" style="points=[[0.35,0,0],[0.98,0.51,0],[1,0.71,0],[0.67,1,0],[0,0.795,0],[0,0.65,0]];verticalLabelPosition=bottom;sketch=0;html=1;verticalAlign=top;aspect=fixed;align=center;pointerEvents=1;shape=mxgraph.cisco19.user;fillColor=#005073;strokeColor=none;" vertex="1" parent="lkz7h4dLqbm93Tn8HokA-138">
          <mxGeometry x="12" y="80" width="50" height="50" as="geometry" />
        </mxCell>
        <mxCell id="lkz7h4dLqbm93Tn8HokA-141" value="刷新" style="text;html=1;resizable=0;autosize=1;align=center;verticalAlign=middle;points=[];fillColor=none;strokeColor=none;rounded=0;" vertex="1" parent="lkz7h4dLqbm93Tn8HokA-138">
          <mxGeometry x="108.5" y="170" width="40" height="20" as="geometry" />
        </mxCell>
        <mxCell id="lkz7h4dLqbm93Tn8HokA-142" value="机器人列表" style="html=1;fillColor=none;strokeColor=none;fontSize=11;align=left;fontColor=#596780;whiteSpace=wrap;sketch=1;hachureGap=4;pointerEvents=0;fontFamily=Architects Daughter;fontSource=https%3A%2F%2Ffonts.googleapis.com%2Fcss%3Ffamily%3DArchitects%2BDaughter;" vertex="1" parent="lkz7h4dLqbm93Tn8HokA-138">
          <mxGeometry x="61.5" y="30" width="150" height="20" as="geometry" />
        </mxCell>
        <mxCell id="lkz7h4dLqbm93Tn8HokA-143" value="站点" style="html=1;fillColor=none;strokeColor=none;fontSize=11;align=left;fontColor=#596780;whiteSpace=wrap;sketch=1;hachureGap=4;pointerEvents=0;fontFamily=Architects Daughter;fontSource=https%3A%2F%2Ffonts.googleapis.com%2Fcss%3Ffamily%3DArchitects%2BDaughter;" vertex="1" parent="lkz7h4dLqbm93Tn8HokA-138">
          <mxGeometry x="168.5" y="30" width="43" height="22" as="geometry" />
        </mxCell>
        <mxCell id="lkz7h4dLqbm93Tn8HokA-144" value="" style="shape=line;strokeWidth=2;html=1;strokeColor=#DFE1E5;resizeWidth=1;sketch=1;hachureGap=4;pointerEvents=0;fontFamily=Architects Daughter;fontSource=https%3A%2F%2Ffonts.googleapis.com%2Fcss%3Ffamily%3DArchitects%2BDaughter;fontSize=20;" vertex="1" parent="lkz7h4dLqbm93Tn8HokA-138">
          <mxGeometry x="57.5" y="50" width="150" height="10" as="geometry" />
        </mxCell>
        <mxCell id="lkz7h4dLqbm93Tn8HokA-145" value="XXX" style="html=1;fillColor=none;strokeColor=none;fontSize=12;align=left;fontColor=#000000;whiteSpace=wrap;fontStyle=1;sketch=1;hachureGap=4;pointerEvents=0;fontFamily=Architects Daughter;fontSource=https%3A%2F%2Ffonts.googleapis.com%2Fcss%3Ffamily%3DArchitects%2BDaughter;" vertex="1" parent="lkz7h4dLqbm93Tn8HokA-138">
          <mxGeometry x="108.5" y="73" width="73" height="26" as="geometry" />
        </mxCell>
        <mxCell id="lkz7h4dLqbm93Tn8HokA-146" value="YYY" style="html=1;fillColor=none;strokeColor=none;fontSize=12;align=left;fontColor=#000000;whiteSpace=wrap;fontStyle=1;sketch=1;hachureGap=4;pointerEvents=0;fontFamily=Architects Daughter;fontSource=https%3A%2F%2Ffonts.googleapis.com%2Fcss%3Ffamily%3DArchitects%2BDaughter;" vertex="1" parent="lkz7h4dLqbm93Tn8HokA-138">
          <mxGeometry x="98.5" y="121" width="33" height="11" as="geometry" />
        </mxCell>
        <mxCell id="lkz7h4dLqbm93Tn8HokA-147" value="" style="shape=mxgraph.office.security.lock_protected;fillColor=#5E6C84;strokeColor=none;sketch=0;hachureGap=4;pointerEvents=0;fontFamily=Architects Daughter;fontSource=https%3A%2F%2Ffonts.googleapis.com%2Fcss%3Ffamily%3DArchitects%2BDaughter;fontSize=20;" vertex="1" parent="lkz7h4dLqbm93Tn8HokA-138">
          <mxGeometry x="181.5" y="118" width="10" height="14" as="geometry" />
        </mxCell>
        <mxCell id="lkz7h4dLqbm93Tn8HokA-148" value="" style="shape=image;verticalLabelPosition=bottom;verticalAlign=top;imageAspect=0;aspect=fixed;image=data:image/webp,UklGRooYAABXRUJQVlA4IH4YAABwuwCdASpWAvQBPpFEnkwlo60iIhFJCaASCWlu7ulSKOAQFbJMn/GerrxqiA+yzONPN/uD4s9kjcDw/0LlA/dP+7cY9E2Tz8+P8bzg+z+w6yC+s1/recz651HQRfO+UT3+PnAonv8fOBRPf4+cCie/x84FE9/j5wKJ7/HzgUT3+PnAonv8fOBRPf4+cCie/x84FE9/j5wKJcJYRIC3MNYoBpeVWtFXlx9YON6Cie/x84FE9/j5wKJhjL/mXi4f/jiiVvFUDciPOjHzkXRyRANF9U16qMusd97UjSA5ZpF5nZ/1BAipuOE5XCVCtVzrRKfarnWiU+1Hy+x+sNeKfl6lA7QnZjSKOTfQF5MVEZ6YrTuAUMe8oupkNxJIN+tURK4UtCRLdGX6jcdyYIQTRsp7X1vtVzrRKfarnWiU+xtmBiy8omEDcpDE4j7jr5VwlMT6PZ6gSVu3VKI7h+i1E65cFbteNpKMUfnl4IsJ7/HzgUT3+PnAol3Cl/uJSWwBory5yUOAyMlzuTlrK5Rhk+biAndQbWx2OvTNv//kwzsTUPhGVTaJU6daJT7Vc60Sn2q51ViDjRfVHBizDevAXbZZmNMjq/h1ntcK/CGfH2j5wKJ7/HzgUT38W6c/kv4uTxHed1/MIC+pxoI5i1Ws/NElB7Vc60Sn2q51olNkWtItGOMdzS6f4lieuMkuMWEiUeiO1rujfLo/aqbTHXnG76VZM0GWlolPtVzrRKfarkHUwmnUV9vCT/5uzfpnpOQIS73jGiSwEygRsMdh4MnTk07ncz+NETK4MFFarnWiU+1XIM3H+2hwfl9RfsTHKpm/tKLgmfBhpJbEpc4RWhHCuIju1L8XID+QD5wKJ7/HzgUT3+HkcH+5z0ih1DXINfnLTcc++YqROzW1Zv7EUPzvlE9/j5wKJ7/DnprS8iMh3K4Cz4+sVVL+XEha4kotbj9JJS+rDrYCK8Q80GCitVzrRKfarnVXI3oSiH3XRxXfKaElqmTVNUXOSlGziuUsECxP8syATPNBm4NpvhH7R84FE9/j5wKDmf9rqh1OXg+oPlFWVdGuPGr6wirmillCf6hnsocK3UPbukCFKiSn2q51olPtVyFHqz4VJg1I8whtAgJSGnt2DInuqHiJPchRgp0k0VCC3VlE9/j5wKJ7+WgLmYqMy4RC0GrQ6tp2YPhGLNQg3RYalzola6+n2NPicPHfKJ7/HzgUT38tJakeDA0X4dDFx15lnYaAB0ukKqW3d57VTv2ALasrQ75ho+cCie/x84FE8rr2l/jUploPhFSkfVYJD/TYGdOgOAaPhMzWuyQL3k5GM+QrODWfPzGmdp451olPtVzrQ7+xZMEpqu23n4H4H8bTBOB9/mNpr7CPahx6bbOocaLa6ODAU9sEb9TmTckp9qudaJT8icW0iCRr0kecr/iTHiBZxZE+SUrWOvn65L9tTg6vsCBj/t6QqcP/7j3rrfJoWr2IaoQSr5twxRIGaQCC/6M3+IhFMOErBUQ67WitXv2SMM8jl1N9kMrDVCY1k9ZRvFGF7a479ekc5BOhl3FbMtYGByIEAVl4ujLYqw1iFjGRlP2b4ScLD11bzP3yiidetFE6VeI9TcQUKFT4NUvr8kgy02BFPhK3Vw0Ykhf1zxIka9RR6FQBlp+4IDfeljSaJ/Xr2s6RbsPbfbANrJhiZ5U0hr4ftW/8DX3HRdY/Una8i1FOypPfpnuCleWNvuUbsbQRZP+YUJajIgHzgUUDx1fyr3z2jJZEo/CvtjIGqb6IQIxvy1TM+HBY9gvu061tCK/zo9m77vw9j5V2GW78ZiaNsxiFh+0VsJfA/ZFWXAPwXazyp40/9gAijfjP5SGXyKFs+SX0uOKY+sSLkf1imphq5SXuz4+hXbZbR84GuI4eCaXOYWtdbhmMF/Kam6PDVRPf4+eZGkmobxewVLKOlIA4FE9/j5wKJ7/In+ff3U5XpNk9/j5wKJ7/HzgUT4Cg+PoVu+tEp9qudaJT7VccAAD+/iLAAAAAAAeeli/f4gB6wjlme00Frqv6g6Po+TH96x9ZnuwdrarcOpNpASgjEtRlfCL6k79ehJVRazXgo3MidQvLq6bBsOoipsx3bZOH5nuBvo9/938F/9x+qelQviDc1i4ohfCxy2j2dq0AV/LBZ2Y9+aSu3LG8dtXgACe1uZFoUjbZxK6IRoTfywH/eT+w9SK2X+qfrq1+LWLnwgFOlmv+39FS5aLbmlsKi1sDjSEnGzegjjJZ5jKG+z6joU+utijtaGzmBgToIceMO/d3Aqe9b6sZX/LyQ9tlwV1hHwgxrPEdde+C1M0fJuwMSHsTgP0CRSbINYwqjAR1hTbcqweP2HtqI4Mru+Nrr2TFEGvAzs1V+uCGE+TqHV5psOdKq7UCOuHTM/XjyR7Z4IrSFIS207DTzYMBU+Hbpet+Jh+QJ+luajboKJbwdO4ATcGO7giXbYshzp1qFBsCwP2xzhd4JejQBGtxbuiR3veHXC1kO2d1lwhn8eeYrX8/TIWhCZUqHRoKarwEvqhU0hPjlFXMhXiaRDdQqkSq39+lNw4CT7pkJ9zZXTpgQN4RQXAOEOKy5zdXg9URqFb7j1AwFa3gvzQ4l0P9w0OttwsFfL37gtDEdxemegxTXC0GLH8TKhtmExD4vY3bLlCzDnIKZpYEM4GqpN4Tgdq4pxZGifAB0h89tjyl/SWuaLpoG4ONJmV8o9ivBetibUAlpEEjaKqwhuMy2kWB5qudJ1iSJGBKxl1qCJ16jr52eu+jm98d0ux+zd9MFjPW8UYTDluqLFJRRwKpykSy2vyUUwfIaKXwjeFgw8m7I4avg9/DSg6oDc2TgncD2ryTnvcz/1PLLdjIKrasLgPkUHoa1lPxlEwTyGIUy/dAz1u5AQu2KPDvnwzukADt6KLYiaLaJOVney6ax7VW/494I1OUmsMOwa8vh/1jw4Ah7NCnqIP6ARexDAL0AwmEQtO7UxUNtfnhg5e82fzzTiPrr3AnwIjvkh7piSDo4AJjkSUbSfMWf92w4vvr8gSCc+7I/jd+9Rxs4hmOL4kMgCtMt0UHJ8tSOSenu5pzd8WaTgv6sNn1Kh55KEp/y7+aicHSDcNg+9IEwivQG8bgisSlVnTvqL+BJ/CS9z30E4lhD5nB3tna9SOyoktZUgMTH1I8Bo3j8X7xxcw5O3rNgDEQ1wuf9fSUyPoGo7LL2d17+zoGcmu0fa+AcPOnnGRS49dnKR8L4ZRvk7yZ+I/DhX+Cidm1abSju/CmBQXZwiTJzI0sXxt68abKNMfRdjpla6yVxOSPXYahDL8O1JoKevEq3n7baWhGZ430oVsUz6vOkTlPA7nNMyGXXeLfQm+hob2aGkMrJpYa+DxH/urmuz4S7l0oaEGYUe+4w+v7v2THLA+k0HXicBKHnMO86welOETC0UjnecsF2XokUTBTi1cHoE1S6CCBCx00Gqxf3r1tgQA9QKpAYR3rSHRNFfmxKRHuQwfqGImDEJJ7OWtJiDuNLBj6NGw3N5KHtAldFc9sRpUm/bSjFSUBj9CH+8PYzvv84fvIXofWgZprEtPyz0rjr1KVJdYxbxNy85KAA4eeKXcr+7jXEBwbrNkIMQJDG/axtinIe8vuNdGldNPZJ/3ZcOX1TOjkEgK8tNJt+P2OlqUHPJkQwTYgrOCcTMAu1KYGVO09aPtbN8uvoN+BKoDXPdGX7jbKCr9EjrxI7D4oWS+OLeY63PCwClInVS0erutkA5dVysoFTQxoH9VUDcHmzU0ajtBGV1Om8zcc/Y8Y5ZYpHwmcqWsLmIe4JhnpudEpYUpt0H26QH7riqX/p1CoKWpHcNPn4r7eyEnMJ4OPdiqQDSP382ucAsdX8komo+bCFdJRo77wa2z6xwNeK9D6Kf4kmcLpLdL2Z4Vwar7769s19NnY60akw+u5kYDWDjmwLWLRnSwzQrQme5zWHHjXrHGGF9cGtOADn9/CX37eaEMVw5jZSN4SJ8Tw28pwiNRJ3m7DyBMnUR4hiZzZRL4Bi9HCKrOXCr9NgYenwbgG0AA1lpuzet+quo4vCPieNDgiXpWVMBbKt47VemANw1nAufG7hKxGfD6QsKy11joH2yvAfkUlVrUhNXcJb1oIK/bAkGaNA/Cn+/4CRN9k8xAwRMFHf9u4LHMbKpBRB2MW/xTmF4Jh59uUUP6gEsLiuTOaMrIRCPEEx515coBEpzRNzUAaHm4fZAXIgVssRprv9Ev4IjpGsQ6anLwLQSVkMJuBI5er4N7tuYS1e5rtWjWq8ItEqYEENDbamiYrqAxqsUHFclqw6Fpw+Pv3+m80epe+WSbMKHsuXazTKVChepQyno2oVIZ/LnD2pOI+UDar8vXW76sPoKxuL6PRVrpNcwcTx0qBKY7HZFohZGN+BK3qMwMs5g4NuUYWOKeL5k81vXRuzLx8NNkBuRwAyDaCEXXWeEpz8id0R9+CkU66vQ7Yy9qIbGHP22eqxKXyFJqJ7GGM06JiZXkWRAONZGb6jpVpOBxKCIZpjTlyZT3lMU3WtlO5Gy56hc9L1KKiQD20cp6CgnWwpYpU75vpDThwCahfDpjZDEF+MCxJ8Xh84KseOwL0c38UgVbhPVpM7SG8kpDBNwUMfQ6rgaCTm9R/KLlpYslNZgLuzeSTsN359oL4PWC5aoMD+2yeoJWAbQk1nnrMIBJiIaosk6YP/4TIPMGCNJ2n5kYwenWORYGO/eG/9EKHXfOrMLlOLcYCVKT9OQ+aAkjS2qgeRCZz4O9tIAWhRN1qqlQDg+Xa2m+8y8GV/RF4LIDDgzO9eLUb2R6h+x1j2jmjx1B2xapFqNym+SH2OnAbJ9DpcN8HOkGwOPVvzVljpqFQsj801NNMeHn+i90j+A54PoAAyjJWp3dBGDK98xb3ywO0yl+eSpau0rtRBgbOmcFQKoyjM5uxMhc8Cm5TjKvs17c8op21L7Xf0jgCVitDFFtjSmIacGbZTVycoDzyMe3a5Lvg8PaOxivR/5Pi3rTIy7ZQAD3wOn6f9qiWSCw687SvRab0vjjv8xFn1V5vRosmHK8g3ILbde6F1LxJbkxefD9hHNTLM/JR3fRIx8hykh2KWMp7yiCOVynMKxbX9CmN1w9UkUvPVQ7FFIIdSRvqTOdHNM3UiPXeREdXj8U6rFdkyurr/BDoXwRBhWE9bh/oYXmsJ4zdVgCI2Oudl3NsRRj7nKMkrRKvAnpreVW5eQaiHdDeyjs1L2y6zpHgeHDMNGmln8MsDFnvKH13fF2mqUQzYiupHH7zX4bbJYcGpHZoyEbQ0yvfsdHVGgkgpBIAhFCeNJ7PLrCngaG5qWB7uDeMzhqVDeTSUyBy8dbvt2cmcBvtZCIqRiVzGgKKWFiZ/EHxkgboUoRBkh4Rho7dS0j9JFEGkHv/2Fy+D1cviRA0+8k/rakZMfYe2CkrHCa7kBfgu2wF1KCm9xwpF7WPRlXK/vOCY+aJ70rK5LVOpSWLzvkp4zC+BuTiKE9TmVPa2GEm5LsvvnHIG8frhiN6dTuRqFP4LvY7vwQiS/7JZU4CeXq7rEnNiYLi2/JgI1MLm7IJlXgozYsh7DsANeLqMGu3/wbRWQbB3nNaf8gMOKnegwXF+gJ8Tb2QCR+vCpSEmWOZmJfXKcJ0tPRD4/kT9RZoKDsPw9ymON+T3ZZqRcFDTURwp9X8zXjfvRhaYxI9EfRM8FXu65lAXUbCECs+9CEs+hr1AjCtebmizigCzNlZZdybSzo8K65UEm9+h234fvzcj5xaRDaqXef0pOIYcevgL7wcZxH7Q6W25/t3zPMYwbjQem+8vWHlTyspkHez++Dh++kKWn3hqZpsY4GhGUQ1UspOEvi8c/FzL5e0ur0+3oAFPpap8L7opm0a4AWRQ0y44PBRfYvgC6NwPw/WRJgXheS/AMCOP1GiSq3skN0ZiaV+Hvc5xwhmfkcUeIhzaLqw9YR7V1Up0IH0/9TmmBDBxrTKUbo2Cr60Axu5OJqxjw0TWRvMqExO7BRqbIl5Nz/5Odha29Q8fvZkwsZg51fJREH/xuHYj/bVACIdyY6OfXwKyJm/H8ttfN3/7UqIzSof807L6vRArxYTuusFyciIVnIQgAR2mXjMblUdIMj6GgzU3bvIGShS7ccboil8vkM2UgA3yz+aVYuqYCAIMuR+2Xt/NNhx6GcUfzUHbfeuNeQW9tSDN7luT06di1EXB1coDL01vUc1vC4X8WHTzJ/NvEdDDFpf1zHSn+S2dvL36su9TueMuybcImTRUkvgwVLQ/56Kw2MMRu/qJfC5TKcUFVEfOf72kEB9+T7U7J/nS3NcJQZ5RUPHg/bH13qDxhtJawP3FD9mN1N+sKp1c08bsqc5STaa8svKJTLuoUTuQY+cNCjTrMo83nQRQf+yIizDwD51i1HucEcZa2w49QunDGSwTC99UdMgs4rWbj80Pj7fIVktWKBGtrU8xirevWsWsOwpmQ/R3fOXP9rStXmbfy5MJ5psko0h+JpB5f4iDjRNzIdiYV6igQEHtQkhb6CNInA6OTU8qQHkA8Ax2HyVwW5Wn5oYHb2Umgx2QT02/4/so3QZvLxPMecc/njzSjohID5vHHcFoN2zwZoIl/2Ucxuc1rCTNrCPKANtEMUXk/f/41ZruM+sHA05/9Gc8QFpmxmr0IpTzPMlvlpa/8TnrVR2tf/BUaBmsMz7jgixNM38uerk2Oh7zyLa5UEb1OCg8I2sNJ8mHHZYIGwR7wquH1PMFQuchm3Wxleu1YgBextbeBzwsNpEgQh/ZkCupVNw5mVJeqE4pmqGMmrEYE3GLfL05I71X5Ys+u8qNeXeXC+pJnN5CDxs44/fodiset4a+UDHJVCAQG8PjXXHKfyCgTY2b2oQQTz3hPcGglmgnnbZM7UL64tN+q9scMgdUk8WWpoz5VZJQrqSUgALEyApI0NiRMG6/AgQddhelwhiZhMA3o0qi03Y2lYvDcA1QTwY+4B0OacT7EP4vNlSIc+Fb90fme60NhGt9RZ6BZj7mFHHMv9qn4R6QqcF/u+ZMnSqo0k7kK/8yXJnYc0f2j1O41XHjtGmdifHv3kEMPkRaMuO+sdsVUVNdlgHCJ/gyKLxu0eV76pdEgRp/p16z/C/XCkPrIabSiayowgrCmI8oIJA1QbNBl9m6VRzkqZWi2zQRaLTy+iUNmrgs8ka/nSxPW1Oba26PEMs1oLIyBLWCuVwtmiQ0HfPhyOykPiLspB76VtOgl2WZayysNaUNjKvyHb43Ruq30Q0QSWKF4wCM80O6Ke5iCoy0ng0MZO7i2OzugCGaXnWVx+cckTpHGKEEwzEwW/VSwyYLaWb3dYJjopvZRo/U5cKqTDWXPMH7hWvZP4pVNaz9UgzoVBGh+xa7S2IquQPrZlMjLx4rgH+21DRcrDKELlQHCj6sWOuCPAoaZlSUt1nJeyRiai345kk6klbkVEb3W9ywxJ4n8UECATEB6n9BJYYtp0I/ZACb+jkrZc24mSASLgBIjwjOJc0ohgRdh8vbpqtW2G6pAvZSQ/khb7tVemQNL4Z5L8wAeekparc6ozwqDU/bNbW4GHEE5AvsHhneFUp4v5SmL0oBmaI5OurfkNGc1QYvxigqSiIQOQWWsKPMQpyRRSU6T67a+7ewLe/O27YWQvdQowIu04zUuyElX+fhdYUipmSB6gctiRxUYQwaAsQIFaTZmYLWSmb7NJH6DsbOYYgujstRbDVmE+7LXq2KTYHjAbHXDiFEgs3tof+NEE4Wb4GVWeqXoEyPhFZIX3rvY2YLN9q8b1cUdYvTnYgAETuuLVlvsKUC90i6b1Y2SoJaG4HUEjNzzRcG99dZ1fLRtxh3rluHkMvOZHp+PRvipFdRKCkilgm+dLA4G2QJ7SOraZurrBzNtEuoF+Pn7e+l70fdpPguIG27SHx5TbOda9RZQgMQJMbdHkW/T61li06tn/MfzPNI5MsBbp8yNuvdSqhD26BO0JSMaaXyKIUbbJpKVxHVAnpp0l/wKRlETxme7pVkzEkt6PIeTYhqiczAdIHZSQ/OzHJHjglwD0aisiGesXeGtWZsw0MmwAFU9fVBGc96t4JGCp/pGdQwAi4MBzdFrgCDzExEszmg9VI4xEEF4xIFRl8FrNGHdMFqLV0vz8hw9XW4rq+XzcRxTl/6RPpxmRG/2E9F1mj9joAIvUTkRBXwxDNhh5fzEmsf74qta1M98DARN5we3wb3RwHaaNdkyulvjqx0jrncL3/ElEZgXXEiCI5vLQmGP4YRinfcbdzfUS/+KH9oaR5fvCS92u6TPoY1Tu1JZpxsTe6xDUJYAIKgurwTRI2/D1wNzLP60X1rJBY8jjSQXRAAAA=;fontSize=32;" vertex="1" parent="lkz7h4dLqbm93Tn8HokA-138">
          <mxGeometry x="74.5" y="76" width="31.1" height="26" as="geometry" />
        </mxCell>
        <mxCell id="lkz7h4dLqbm93Tn8HokA-149" value="" style="shape=image;verticalLabelPosition=bottom;verticalAlign=top;imageAspect=0;aspect=fixed;image=data:image/webp,UklGRooYAABXRUJQVlA4IH4YAABwuwCdASpWAvQBPpFEnkwlo60iIhFJCaASCWlu7ulSKOAQFbJMn/GerrxqiA+yzONPN/uD4s9kjcDw/0LlA/dP+7cY9E2Tz8+P8bzg+z+w6yC+s1/recz651HQRfO+UT3+PnAonv8fOBRPf4+cCie/x84FE9/j5wKJ7/HzgUT3+PnAonv8fOBRPf4+cCie/x84FE9/j5wKJcJYRIC3MNYoBpeVWtFXlx9YON6Cie/x84FE9/j5wKJhjL/mXi4f/jiiVvFUDciPOjHzkXRyRANF9U16qMusd97UjSA5ZpF5nZ/1BAipuOE5XCVCtVzrRKfarnWiU+1Hy+x+sNeKfl6lA7QnZjSKOTfQF5MVEZ6YrTuAUMe8oupkNxJIN+tURK4UtCRLdGX6jcdyYIQTRsp7X1vtVzrRKfarnWiU+xtmBiy8omEDcpDE4j7jr5VwlMT6PZ6gSVu3VKI7h+i1E65cFbteNpKMUfnl4IsJ7/HzgUT3+PnAol3Cl/uJSWwBory5yUOAyMlzuTlrK5Rhk+biAndQbWx2OvTNv//kwzsTUPhGVTaJU6daJT7Vc60Sn2q51ViDjRfVHBizDevAXbZZmNMjq/h1ntcK/CGfH2j5wKJ7/HzgUT38W6c/kv4uTxHed1/MIC+pxoI5i1Ws/NElB7Vc60Sn2q51olNkWtItGOMdzS6f4lieuMkuMWEiUeiO1rujfLo/aqbTHXnG76VZM0GWlolPtVzrRKfarkHUwmnUV9vCT/5uzfpnpOQIS73jGiSwEygRsMdh4MnTk07ncz+NETK4MFFarnWiU+1XIM3H+2hwfl9RfsTHKpm/tKLgmfBhpJbEpc4RWhHCuIju1L8XID+QD5wKJ7/HzgUT3+HkcH+5z0ih1DXINfnLTcc++YqROzW1Zv7EUPzvlE9/j5wKJ7/DnprS8iMh3K4Cz4+sVVL+XEha4kotbj9JJS+rDrYCK8Q80GCitVzrRKfarnVXI3oSiH3XRxXfKaElqmTVNUXOSlGziuUsECxP8syATPNBm4NpvhH7R84FE9/j5wKDmf9rqh1OXg+oPlFWVdGuPGr6wirmillCf6hnsocK3UPbukCFKiSn2q51olPtVyFHqz4VJg1I8whtAgJSGnt2DInuqHiJPchRgp0k0VCC3VlE9/j5wKJ7+WgLmYqMy4RC0GrQ6tp2YPhGLNQg3RYalzola6+n2NPicPHfKJ7/HzgUT38tJakeDA0X4dDFx15lnYaAB0ukKqW3d57VTv2ALasrQ75ho+cCie/x84FE8rr2l/jUploPhFSkfVYJD/TYGdOgOAaPhMzWuyQL3k5GM+QrODWfPzGmdp451olPtVzrQ7+xZMEpqu23n4H4H8bTBOB9/mNpr7CPahx6bbOocaLa6ODAU9sEb9TmTckp9qudaJT8icW0iCRr0kecr/iTHiBZxZE+SUrWOvn65L9tTg6vsCBj/t6QqcP/7j3rrfJoWr2IaoQSr5twxRIGaQCC/6M3+IhFMOErBUQ67WitXv2SMM8jl1N9kMrDVCY1k9ZRvFGF7a479ekc5BOhl3FbMtYGByIEAVl4ujLYqw1iFjGRlP2b4ScLD11bzP3yiidetFE6VeI9TcQUKFT4NUvr8kgy02BFPhK3Vw0Ykhf1zxIka9RR6FQBlp+4IDfeljSaJ/Xr2s6RbsPbfbANrJhiZ5U0hr4ftW/8DX3HRdY/Una8i1FOypPfpnuCleWNvuUbsbQRZP+YUJajIgHzgUUDx1fyr3z2jJZEo/CvtjIGqb6IQIxvy1TM+HBY9gvu061tCK/zo9m77vw9j5V2GW78ZiaNsxiFh+0VsJfA/ZFWXAPwXazyp40/9gAijfjP5SGXyKFs+SX0uOKY+sSLkf1imphq5SXuz4+hXbZbR84GuI4eCaXOYWtdbhmMF/Kam6PDVRPf4+eZGkmobxewVLKOlIA4FE9/j5wKJ7/In+ff3U5XpNk9/j5wKJ7/HzgUT4Cg+PoVu+tEp9qudaJT7VccAAD+/iLAAAAAAAeeli/f4gB6wjlme00Frqv6g6Po+TH96x9ZnuwdrarcOpNpASgjEtRlfCL6k79ehJVRazXgo3MidQvLq6bBsOoipsx3bZOH5nuBvo9/938F/9x+qelQviDc1i4ohfCxy2j2dq0AV/LBZ2Y9+aSu3LG8dtXgACe1uZFoUjbZxK6IRoTfywH/eT+w9SK2X+qfrq1+LWLnwgFOlmv+39FS5aLbmlsKi1sDjSEnGzegjjJZ5jKG+z6joU+utijtaGzmBgToIceMO/d3Aqe9b6sZX/LyQ9tlwV1hHwgxrPEdde+C1M0fJuwMSHsTgP0CRSbINYwqjAR1hTbcqweP2HtqI4Mru+Nrr2TFEGvAzs1V+uCGE+TqHV5psOdKq7UCOuHTM/XjyR7Z4IrSFIS207DTzYMBU+Hbpet+Jh+QJ+luajboKJbwdO4ATcGO7giXbYshzp1qFBsCwP2xzhd4JejQBGtxbuiR3veHXC1kO2d1lwhn8eeYrX8/TIWhCZUqHRoKarwEvqhU0hPjlFXMhXiaRDdQqkSq39+lNw4CT7pkJ9zZXTpgQN4RQXAOEOKy5zdXg9URqFb7j1AwFa3gvzQ4l0P9w0OttwsFfL37gtDEdxemegxTXC0GLH8TKhtmExD4vY3bLlCzDnIKZpYEM4GqpN4Tgdq4pxZGifAB0h89tjyl/SWuaLpoG4ONJmV8o9ivBetibUAlpEEjaKqwhuMy2kWB5qudJ1iSJGBKxl1qCJ16jr52eu+jm98d0ux+zd9MFjPW8UYTDluqLFJRRwKpykSy2vyUUwfIaKXwjeFgw8m7I4avg9/DSg6oDc2TgncD2ryTnvcz/1PLLdjIKrasLgPkUHoa1lPxlEwTyGIUy/dAz1u5AQu2KPDvnwzukADt6KLYiaLaJOVney6ax7VW/494I1OUmsMOwa8vh/1jw4Ah7NCnqIP6ARexDAL0AwmEQtO7UxUNtfnhg5e82fzzTiPrr3AnwIjvkh7piSDo4AJjkSUbSfMWf92w4vvr8gSCc+7I/jd+9Rxs4hmOL4kMgCtMt0UHJ8tSOSenu5pzd8WaTgv6sNn1Kh55KEp/y7+aicHSDcNg+9IEwivQG8bgisSlVnTvqL+BJ/CS9z30E4lhD5nB3tna9SOyoktZUgMTH1I8Bo3j8X7xxcw5O3rNgDEQ1wuf9fSUyPoGo7LL2d17+zoGcmu0fa+AcPOnnGRS49dnKR8L4ZRvk7yZ+I/DhX+Cidm1abSju/CmBQXZwiTJzI0sXxt68abKNMfRdjpla6yVxOSPXYahDL8O1JoKevEq3n7baWhGZ430oVsUz6vOkTlPA7nNMyGXXeLfQm+hob2aGkMrJpYa+DxH/urmuz4S7l0oaEGYUe+4w+v7v2THLA+k0HXicBKHnMO86welOETC0UjnecsF2XokUTBTi1cHoE1S6CCBCx00Gqxf3r1tgQA9QKpAYR3rSHRNFfmxKRHuQwfqGImDEJJ7OWtJiDuNLBj6NGw3N5KHtAldFc9sRpUm/bSjFSUBj9CH+8PYzvv84fvIXofWgZprEtPyz0rjr1KVJdYxbxNy85KAA4eeKXcr+7jXEBwbrNkIMQJDG/axtinIe8vuNdGldNPZJ/3ZcOX1TOjkEgK8tNJt+P2OlqUHPJkQwTYgrOCcTMAu1KYGVO09aPtbN8uvoN+BKoDXPdGX7jbKCr9EjrxI7D4oWS+OLeY63PCwClInVS0erutkA5dVysoFTQxoH9VUDcHmzU0ajtBGV1Om8zcc/Y8Y5ZYpHwmcqWsLmIe4JhnpudEpYUpt0H26QH7riqX/p1CoKWpHcNPn4r7eyEnMJ4OPdiqQDSP382ucAsdX8komo+bCFdJRo77wa2z6xwNeK9D6Kf4kmcLpLdL2Z4Vwar7769s19NnY60akw+u5kYDWDjmwLWLRnSwzQrQme5zWHHjXrHGGF9cGtOADn9/CX37eaEMVw5jZSN4SJ8Tw28pwiNRJ3m7DyBMnUR4hiZzZRL4Bi9HCKrOXCr9NgYenwbgG0AA1lpuzet+quo4vCPieNDgiXpWVMBbKt47VemANw1nAufG7hKxGfD6QsKy11joH2yvAfkUlVrUhNXcJb1oIK/bAkGaNA/Cn+/4CRN9k8xAwRMFHf9u4LHMbKpBRB2MW/xTmF4Jh59uUUP6gEsLiuTOaMrIRCPEEx515coBEpzRNzUAaHm4fZAXIgVssRprv9Ev4IjpGsQ6anLwLQSVkMJuBI5er4N7tuYS1e5rtWjWq8ItEqYEENDbamiYrqAxqsUHFclqw6Fpw+Pv3+m80epe+WSbMKHsuXazTKVChepQyno2oVIZ/LnD2pOI+UDar8vXW76sPoKxuL6PRVrpNcwcTx0qBKY7HZFohZGN+BK3qMwMs5g4NuUYWOKeL5k81vXRuzLx8NNkBuRwAyDaCEXXWeEpz8id0R9+CkU66vQ7Yy9qIbGHP22eqxKXyFJqJ7GGM06JiZXkWRAONZGb6jpVpOBxKCIZpjTlyZT3lMU3WtlO5Gy56hc9L1KKiQD20cp6CgnWwpYpU75vpDThwCahfDpjZDEF+MCxJ8Xh84KseOwL0c38UgVbhPVpM7SG8kpDBNwUMfQ6rgaCTm9R/KLlpYslNZgLuzeSTsN359oL4PWC5aoMD+2yeoJWAbQk1nnrMIBJiIaosk6YP/4TIPMGCNJ2n5kYwenWORYGO/eG/9EKHXfOrMLlOLcYCVKT9OQ+aAkjS2qgeRCZz4O9tIAWhRN1qqlQDg+Xa2m+8y8GV/RF4LIDDgzO9eLUb2R6h+x1j2jmjx1B2xapFqNym+SH2OnAbJ9DpcN8HOkGwOPVvzVljpqFQsj801NNMeHn+i90j+A54PoAAyjJWp3dBGDK98xb3ywO0yl+eSpau0rtRBgbOmcFQKoyjM5uxMhc8Cm5TjKvs17c8op21L7Xf0jgCVitDFFtjSmIacGbZTVycoDzyMe3a5Lvg8PaOxivR/5Pi3rTIy7ZQAD3wOn6f9qiWSCw687SvRab0vjjv8xFn1V5vRosmHK8g3ILbde6F1LxJbkxefD9hHNTLM/JR3fRIx8hykh2KWMp7yiCOVynMKxbX9CmN1w9UkUvPVQ7FFIIdSRvqTOdHNM3UiPXeREdXj8U6rFdkyurr/BDoXwRBhWE9bh/oYXmsJ4zdVgCI2Oudl3NsRRj7nKMkrRKvAnpreVW5eQaiHdDeyjs1L2y6zpHgeHDMNGmln8MsDFnvKH13fF2mqUQzYiupHH7zX4bbJYcGpHZoyEbQ0yvfsdHVGgkgpBIAhFCeNJ7PLrCngaG5qWB7uDeMzhqVDeTSUyBy8dbvt2cmcBvtZCIqRiVzGgKKWFiZ/EHxkgboUoRBkh4Rho7dS0j9JFEGkHv/2Fy+D1cviRA0+8k/rakZMfYe2CkrHCa7kBfgu2wF1KCm9xwpF7WPRlXK/vOCY+aJ70rK5LVOpSWLzvkp4zC+BuTiKE9TmVPa2GEm5LsvvnHIG8frhiN6dTuRqFP4LvY7vwQiS/7JZU4CeXq7rEnNiYLi2/JgI1MLm7IJlXgozYsh7DsANeLqMGu3/wbRWQbB3nNaf8gMOKnegwXF+gJ8Tb2QCR+vCpSEmWOZmJfXKcJ0tPRD4/kT9RZoKDsPw9ymON+T3ZZqRcFDTURwp9X8zXjfvRhaYxI9EfRM8FXu65lAXUbCECs+9CEs+hr1AjCtebmizigCzNlZZdybSzo8K65UEm9+h234fvzcj5xaRDaqXef0pOIYcevgL7wcZxH7Q6W25/t3zPMYwbjQem+8vWHlTyspkHez++Dh++kKWn3hqZpsY4GhGUQ1UspOEvi8c/FzL5e0ur0+3oAFPpap8L7opm0a4AWRQ0y44PBRfYvgC6NwPw/WRJgXheS/AMCOP1GiSq3skN0ZiaV+Hvc5xwhmfkcUeIhzaLqw9YR7V1Up0IH0/9TmmBDBxrTKUbo2Cr60Axu5OJqxjw0TWRvMqExO7BRqbIl5Nz/5Odha29Q8fvZkwsZg51fJREH/xuHYj/bVACIdyY6OfXwKyJm/H8ttfN3/7UqIzSof807L6vRArxYTuusFyciIVnIQgAR2mXjMblUdIMj6GgzU3bvIGShS7ccboil8vkM2UgA3yz+aVYuqYCAIMuR+2Xt/NNhx6GcUfzUHbfeuNeQW9tSDN7luT06di1EXB1coDL01vUc1vC4X8WHTzJ/NvEdDDFpf1zHSn+S2dvL36su9TueMuybcImTRUkvgwVLQ/56Kw2MMRu/qJfC5TKcUFVEfOf72kEB9+T7U7J/nS3NcJQZ5RUPHg/bH13qDxhtJawP3FD9mN1N+sKp1c08bsqc5STaa8svKJTLuoUTuQY+cNCjTrMo83nQRQf+yIizDwD51i1HucEcZa2w49QunDGSwTC99UdMgs4rWbj80Pj7fIVktWKBGtrU8xirevWsWsOwpmQ/R3fOXP9rStXmbfy5MJ5psko0h+JpB5f4iDjRNzIdiYV6igQEHtQkhb6CNInA6OTU8qQHkA8Ax2HyVwW5Wn5oYHb2Umgx2QT02/4/so3QZvLxPMecc/njzSjohID5vHHcFoN2zwZoIl/2Ucxuc1rCTNrCPKANtEMUXk/f/41ZruM+sHA05/9Gc8QFpmxmr0IpTzPMlvlpa/8TnrVR2tf/BUaBmsMz7jgixNM38uerk2Oh7zyLa5UEb1OCg8I2sNJ8mHHZYIGwR7wquH1PMFQuchm3Wxleu1YgBextbeBzwsNpEgQh/ZkCupVNw5mVJeqE4pmqGMmrEYE3GLfL05I71X5Ys+u8qNeXeXC+pJnN5CDxs44/fodiset4a+UDHJVCAQG8PjXXHKfyCgTY2b2oQQTz3hPcGglmgnnbZM7UL64tN+q9scMgdUk8WWpoz5VZJQrqSUgALEyApI0NiRMG6/AgQddhelwhiZhMA3o0qi03Y2lYvDcA1QTwY+4B0OacT7EP4vNlSIc+Fb90fme60NhGt9RZ6BZj7mFHHMv9qn4R6QqcF/u+ZMnSqo0k7kK/8yXJnYc0f2j1O41XHjtGmdifHv3kEMPkRaMuO+sdsVUVNdlgHCJ/gyKLxu0eV76pdEgRp/p16z/C/XCkPrIabSiayowgrCmI8oIJA1QbNBl9m6VRzkqZWi2zQRaLTy+iUNmrgs8ka/nSxPW1Oba26PEMs1oLIyBLWCuVwtmiQ0HfPhyOykPiLspB76VtOgl2WZayysNaUNjKvyHb43Ruq30Q0QSWKF4wCM80O6Ke5iCoy0ng0MZO7i2OzugCGaXnWVx+cckTpHGKEEwzEwW/VSwyYLaWb3dYJjopvZRo/U5cKqTDWXPMH7hWvZP4pVNaz9UgzoVBGh+xa7S2IquQPrZlMjLx4rgH+21DRcrDKELlQHCj6sWOuCPAoaZlSUt1nJeyRiai345kk6klbkVEb3W9ywxJ4n8UECATEB6n9BJYYtp0I/ZACb+jkrZc24mSASLgBIjwjOJc0ohgRdh8vbpqtW2G6pAvZSQ/khb7tVemQNL4Z5L8wAeekparc6ozwqDU/bNbW4GHEE5AvsHhneFUp4v5SmL0oBmaI5OurfkNGc1QYvxigqSiIQOQWWsKPMQpyRRSU6T67a+7ewLe/O27YWQvdQowIu04zUuyElX+fhdYUipmSB6gctiRxUYQwaAsQIFaTZmYLWSmb7NJH6DsbOYYgujstRbDVmE+7LXq2KTYHjAbHXDiFEgs3tof+NEE4Wb4GVWeqXoEyPhFZIX3rvY2YLN9q8b1cUdYvTnYgAETuuLVlvsKUC90i6b1Y2SoJaG4HUEjNzzRcG99dZ1fLRtxh3rluHkMvOZHp+PRvipFdRKCkilgm+dLA4G2QJ7SOraZurrBzNtEuoF+Pn7e+l70fdpPguIG27SHx5TbOda9RZQgMQJMbdHkW/T61li06tn/MfzPNI5MsBbp8yNuvdSqhD26BO0JSMaaXyKIUbbJpKVxHVAnpp0l/wKRlETxme7pVkzEkt6PIeTYhqiczAdIHZSQ/OzHJHjglwD0aisiGesXeGtWZsw0MmwAFU9fVBGc96t4JGCp/pGdQwAi4MBzdFrgCDzExEszmg9VI4xEEF4xIFRl8FrNGHdMFqLV0vz8hw9XW4rq+XzcRxTl/6RPpxmRG/2E9F1mj9joAIvUTkRBXwxDNhh5fzEmsf74qta1M98DARN5we3wb3RwHaaNdkyulvjqx0jrncL3/ElEZgXXEiCI5vLQmGP4YRinfcbdzfUS/+KH9oaR5fvCS92u6TPoY1Tu1JZpxsTe6xDUJYAIKgurwTRI2/D1wNzLP60X1rJBY8jjSQXRAAAA=;fontSize=32;" vertex="1" parent="lkz7h4dLqbm93Tn8HokA-138">
          <mxGeometry x="74.5" y="119" width="31.1" height="26" as="geometry" />
        </mxCell>
        <mxCell id="lkz7h4dLqbm93Tn8HokA-150" value="&lt;font color=&quot;#ff3333&quot;&gt;已下载&lt;/font&gt;" style="text;html=1;resizable=0;autosize=1;align=center;verticalAlign=middle;points=[];fillColor=none;strokeColor=none;rounded=0;" vertex="1" parent="lkz7h4dLqbm93Tn8HokA-138">
          <mxGeometry x="161.5" y="73" width="50" height="20" as="geometry" />
        </mxCell>
        <mxCell id="lkz7h4dLqbm93Tn8HokA-151" style="edgeStyle=orthogonalEdgeStyle;rounded=0;html=1;labelBackgroundColor=none;startFill=1;startSize=4;endArrow=blockThin;endFill=1;endSize=4;jettySize=auto;orthogonalLoop=1;strokeColor=#9E9E9E;strokeWidth=2;fontSize=12;fontColor=#000000;align=left;dashed=0;" edge="1" parent="1">
          <mxGeometry relative="1" as="geometry">
            <mxPoint x="230" y="470" as="sourcePoint" />
            <mxPoint x="200" y="470" as="targetPoint" />
          </mxGeometry>
        </mxCell>
        <mxCell id="lkz7h4dLqbm93Tn8HokA-154" value="" style="group" vertex="1" connectable="0" parent="1">
          <mxGeometry x="-40" y="650" width="230" height="200" as="geometry" />
        </mxCell>
        <mxCell id="lkz7h4dLqbm93Tn8HokA-155" value="UI" style="rounded=1;absoluteArcSize=1;arcSize=2;html=1;strokeColor=none;gradientColor=none;shadow=0;dashed=0;fontSize=12;fontColor=#9E9E9E;align=left;verticalAlign=top;spacing=10;spacingTop=-4;fillColor=#F1F8E9;" vertex="1" parent="lkz7h4dLqbm93Tn8HokA-154">
          <mxGeometry width="230" height="200" as="geometry" />
        </mxCell>
        <mxCell id="lkz7h4dLqbm93Tn8HokA-156" value="" style="points=[[0.35,0,0],[0.98,0.51,0],[1,0.71,0],[0.67,1,0],[0,0.795,0],[0,0.65,0]];verticalLabelPosition=bottom;sketch=0;html=1;verticalAlign=top;aspect=fixed;align=center;pointerEvents=1;shape=mxgraph.cisco19.user;fillColor=#005073;strokeColor=none;" vertex="1" parent="lkz7h4dLqbm93Tn8HokA-154">
          <mxGeometry x="12" y="80" width="50" height="50" as="geometry" />
        </mxCell>
        <mxCell id="lkz7h4dLqbm93Tn8HokA-157" value="刷新" style="text;html=1;resizable=0;autosize=1;align=center;verticalAlign=middle;points=[];fillColor=none;strokeColor=none;rounded=0;" vertex="1" parent="lkz7h4dLqbm93Tn8HokA-154">
          <mxGeometry x="108.5" y="170" width="40" height="20" as="geometry" />
        </mxCell>
        <mxCell id="lkz7h4dLqbm93Tn8HokA-158" value="机器人列表" style="html=1;fillColor=none;strokeColor=none;fontSize=11;align=left;fontColor=#596780;whiteSpace=wrap;sketch=1;hachureGap=4;pointerEvents=0;fontFamily=Architects Daughter;fontSource=https%3A%2F%2Ffonts.googleapis.com%2Fcss%3Ffamily%3DArchitects%2BDaughter;" vertex="1" parent="lkz7h4dLqbm93Tn8HokA-154">
          <mxGeometry x="61.5" y="30" width="150" height="20" as="geometry" />
        </mxCell>
        <mxCell id="lkz7h4dLqbm93Tn8HokA-159" value="站点" style="html=1;fillColor=none;strokeColor=none;fontSize=11;align=left;fontColor=#596780;whiteSpace=wrap;sketch=1;hachureGap=4;pointerEvents=0;fontFamily=Architects Daughter;fontSource=https%3A%2F%2Ffonts.googleapis.com%2Fcss%3Ffamily%3DArchitects%2BDaughter;" vertex="1" parent="lkz7h4dLqbm93Tn8HokA-154">
          <mxGeometry x="168.5" y="30" width="43" height="22" as="geometry" />
        </mxCell>
        <mxCell id="lkz7h4dLqbm93Tn8HokA-160" value="" style="shape=line;strokeWidth=2;html=1;strokeColor=#DFE1E5;resizeWidth=1;sketch=1;hachureGap=4;pointerEvents=0;fontFamily=Architects Daughter;fontSource=https%3A%2F%2Ffonts.googleapis.com%2Fcss%3Ffamily%3DArchitects%2BDaughter;fontSize=20;" vertex="1" parent="lkz7h4dLqbm93Tn8HokA-154">
          <mxGeometry x="57.5" y="50" width="150" height="10" as="geometry" />
        </mxCell>
        <mxCell id="lkz7h4dLqbm93Tn8HokA-161" value="XXX" style="html=1;fillColor=none;strokeColor=none;fontSize=12;align=left;fontColor=#000000;whiteSpace=wrap;fontStyle=1;sketch=1;hachureGap=4;pointerEvents=0;fontFamily=Architects Daughter;fontSource=https%3A%2F%2Ffonts.googleapis.com%2Fcss%3Ffamily%3DArchitects%2BDaughter;" vertex="1" parent="lkz7h4dLqbm93Tn8HokA-154">
          <mxGeometry x="108.5" y="73" width="73" height="26" as="geometry" />
        </mxCell>
        <mxCell id="lkz7h4dLqbm93Tn8HokA-162" value="YYY" style="html=1;fillColor=none;strokeColor=none;fontSize=12;align=left;fontColor=#000000;whiteSpace=wrap;fontStyle=1;sketch=1;hachureGap=4;pointerEvents=0;fontFamily=Architects Daughter;fontSource=https%3A%2F%2Ffonts.googleapis.com%2Fcss%3Ffamily%3DArchitects%2BDaughter;" vertex="1" parent="lkz7h4dLqbm93Tn8HokA-154">
          <mxGeometry x="98.5" y="121" width="33" height="11" as="geometry" />
        </mxCell>
        <mxCell id="lkz7h4dLqbm93Tn8HokA-163" value="" style="shape=mxgraph.office.security.lock_protected;fillColor=#5E6C84;strokeColor=none;sketch=0;hachureGap=4;pointerEvents=0;fontFamily=Architects Daughter;fontSource=https%3A%2F%2Ffonts.googleapis.com%2Fcss%3Ffamily%3DArchitects%2BDaughter;fontSize=20;" vertex="1" parent="lkz7h4dLqbm93Tn8HokA-154">
          <mxGeometry x="181.5" y="118" width="10" height="14" as="geometry" />
        </mxCell>
        <mxCell id="lkz7h4dLqbm93Tn8HokA-164" value="" style="shape=image;verticalLabelPosition=bottom;verticalAlign=top;imageAspect=0;aspect=fixed;image=data:image/webp,UklGRooYAABXRUJQVlA4IH4YAABwuwCdASpWAvQBPpFEnkwlo60iIhFJCaASCWlu7ulSKOAQFbJMn/GerrxqiA+yzONPN/uD4s9kjcDw/0LlA/dP+7cY9E2Tz8+P8bzg+z+w6yC+s1/recz651HQRfO+UT3+PnAonv8fOBRPf4+cCie/x84FE9/j5wKJ7/HzgUT3+PnAonv8fOBRPf4+cCie/x84FE9/j5wKJcJYRIC3MNYoBpeVWtFXlx9YON6Cie/x84FE9/j5wKJhjL/mXi4f/jiiVvFUDciPOjHzkXRyRANF9U16qMusd97UjSA5ZpF5nZ/1BAipuOE5XCVCtVzrRKfarnWiU+1Hy+x+sNeKfl6lA7QnZjSKOTfQF5MVEZ6YrTuAUMe8oupkNxJIN+tURK4UtCRLdGX6jcdyYIQTRsp7X1vtVzrRKfarnWiU+xtmBiy8omEDcpDE4j7jr5VwlMT6PZ6gSVu3VKI7h+i1E65cFbteNpKMUfnl4IsJ7/HzgUT3+PnAol3Cl/uJSWwBory5yUOAyMlzuTlrK5Rhk+biAndQbWx2OvTNv//kwzsTUPhGVTaJU6daJT7Vc60Sn2q51ViDjRfVHBizDevAXbZZmNMjq/h1ntcK/CGfH2j5wKJ7/HzgUT38W6c/kv4uTxHed1/MIC+pxoI5i1Ws/NElB7Vc60Sn2q51olNkWtItGOMdzS6f4lieuMkuMWEiUeiO1rujfLo/aqbTHXnG76VZM0GWlolPtVzrRKfarkHUwmnUV9vCT/5uzfpnpOQIS73jGiSwEygRsMdh4MnTk07ncz+NETK4MFFarnWiU+1XIM3H+2hwfl9RfsTHKpm/tKLgmfBhpJbEpc4RWhHCuIju1L8XID+QD5wKJ7/HzgUT3+HkcH+5z0ih1DXINfnLTcc++YqROzW1Zv7EUPzvlE9/j5wKJ7/DnprS8iMh3K4Cz4+sVVL+XEha4kotbj9JJS+rDrYCK8Q80GCitVzrRKfarnVXI3oSiH3XRxXfKaElqmTVNUXOSlGziuUsECxP8syATPNBm4NpvhH7R84FE9/j5wKDmf9rqh1OXg+oPlFWVdGuPGr6wirmillCf6hnsocK3UPbukCFKiSn2q51olPtVyFHqz4VJg1I8whtAgJSGnt2DInuqHiJPchRgp0k0VCC3VlE9/j5wKJ7+WgLmYqMy4RC0GrQ6tp2YPhGLNQg3RYalzola6+n2NPicPHfKJ7/HzgUT38tJakeDA0X4dDFx15lnYaAB0ukKqW3d57VTv2ALasrQ75ho+cCie/x84FE8rr2l/jUploPhFSkfVYJD/TYGdOgOAaPhMzWuyQL3k5GM+QrODWfPzGmdp451olPtVzrQ7+xZMEpqu23n4H4H8bTBOB9/mNpr7CPahx6bbOocaLa6ODAU9sEb9TmTckp9qudaJT8icW0iCRr0kecr/iTHiBZxZE+SUrWOvn65L9tTg6vsCBj/t6QqcP/7j3rrfJoWr2IaoQSr5twxRIGaQCC/6M3+IhFMOErBUQ67WitXv2SMM8jl1N9kMrDVCY1k9ZRvFGF7a479ekc5BOhl3FbMtYGByIEAVl4ujLYqw1iFjGRlP2b4ScLD11bzP3yiidetFE6VeI9TcQUKFT4NUvr8kgy02BFPhK3Vw0Ykhf1zxIka9RR6FQBlp+4IDfeljSaJ/Xr2s6RbsPbfbANrJhiZ5U0hr4ftW/8DX3HRdY/Una8i1FOypPfpnuCleWNvuUbsbQRZP+YUJajIgHzgUUDx1fyr3z2jJZEo/CvtjIGqb6IQIxvy1TM+HBY9gvu061tCK/zo9m77vw9j5V2GW78ZiaNsxiFh+0VsJfA/ZFWXAPwXazyp40/9gAijfjP5SGXyKFs+SX0uOKY+sSLkf1imphq5SXuz4+hXbZbR84GuI4eCaXOYWtdbhmMF/Kam6PDVRPf4+eZGkmobxewVLKOlIA4FE9/j5wKJ7/In+ff3U5XpNk9/j5wKJ7/HzgUT4Cg+PoVu+tEp9qudaJT7VccAAD+/iLAAAAAAAeeli/f4gB6wjlme00Frqv6g6Po+TH96x9ZnuwdrarcOpNpASgjEtRlfCL6k79ehJVRazXgo3MidQvLq6bBsOoipsx3bZOH5nuBvo9/938F/9x+qelQviDc1i4ohfCxy2j2dq0AV/LBZ2Y9+aSu3LG8dtXgACe1uZFoUjbZxK6IRoTfywH/eT+w9SK2X+qfrq1+LWLnwgFOlmv+39FS5aLbmlsKi1sDjSEnGzegjjJZ5jKG+z6joU+utijtaGzmBgToIceMO/d3Aqe9b6sZX/LyQ9tlwV1hHwgxrPEdde+C1M0fJuwMSHsTgP0CRSbINYwqjAR1hTbcqweP2HtqI4Mru+Nrr2TFEGvAzs1V+uCGE+TqHV5psOdKq7UCOuHTM/XjyR7Z4IrSFIS207DTzYMBU+Hbpet+Jh+QJ+luajboKJbwdO4ATcGO7giXbYshzp1qFBsCwP2xzhd4JejQBGtxbuiR3veHXC1kO2d1lwhn8eeYrX8/TIWhCZUqHRoKarwEvqhU0hPjlFXMhXiaRDdQqkSq39+lNw4CT7pkJ9zZXTpgQN4RQXAOEOKy5zdXg9URqFb7j1AwFa3gvzQ4l0P9w0OttwsFfL37gtDEdxemegxTXC0GLH8TKhtmExD4vY3bLlCzDnIKZpYEM4GqpN4Tgdq4pxZGifAB0h89tjyl/SWuaLpoG4ONJmV8o9ivBetibUAlpEEjaKqwhuMy2kWB5qudJ1iSJGBKxl1qCJ16jr52eu+jm98d0ux+zd9MFjPW8UYTDluqLFJRRwKpykSy2vyUUwfIaKXwjeFgw8m7I4avg9/DSg6oDc2TgncD2ryTnvcz/1PLLdjIKrasLgPkUHoa1lPxlEwTyGIUy/dAz1u5AQu2KPDvnwzukADt6KLYiaLaJOVney6ax7VW/494I1OUmsMOwa8vh/1jw4Ah7NCnqIP6ARexDAL0AwmEQtO7UxUNtfnhg5e82fzzTiPrr3AnwIjvkh7piSDo4AJjkSUbSfMWf92w4vvr8gSCc+7I/jd+9Rxs4hmOL4kMgCtMt0UHJ8tSOSenu5pzd8WaTgv6sNn1Kh55KEp/y7+aicHSDcNg+9IEwivQG8bgisSlVnTvqL+BJ/CS9z30E4lhD5nB3tna9SOyoktZUgMTH1I8Bo3j8X7xxcw5O3rNgDEQ1wuf9fSUyPoGo7LL2d17+zoGcmu0fa+AcPOnnGRS49dnKR8L4ZRvk7yZ+I/DhX+Cidm1abSju/CmBQXZwiTJzI0sXxt68abKNMfRdjpla6yVxOSPXYahDL8O1JoKevEq3n7baWhGZ430oVsUz6vOkTlPA7nNMyGXXeLfQm+hob2aGkMrJpYa+DxH/urmuz4S7l0oaEGYUe+4w+v7v2THLA+k0HXicBKHnMO86welOETC0UjnecsF2XokUTBTi1cHoE1S6CCBCx00Gqxf3r1tgQA9QKpAYR3rSHRNFfmxKRHuQwfqGImDEJJ7OWtJiDuNLBj6NGw3N5KHtAldFc9sRpUm/bSjFSUBj9CH+8PYzvv84fvIXofWgZprEtPyz0rjr1KVJdYxbxNy85KAA4eeKXcr+7jXEBwbrNkIMQJDG/axtinIe8vuNdGldNPZJ/3ZcOX1TOjkEgK8tNJt+P2OlqUHPJkQwTYgrOCcTMAu1KYGVO09aPtbN8uvoN+BKoDXPdGX7jbKCr9EjrxI7D4oWS+OLeY63PCwClInVS0erutkA5dVysoFTQxoH9VUDcHmzU0ajtBGV1Om8zcc/Y8Y5ZYpHwmcqWsLmIe4JhnpudEpYUpt0H26QH7riqX/p1CoKWpHcNPn4r7eyEnMJ4OPdiqQDSP382ucAsdX8komo+bCFdJRo77wa2z6xwNeK9D6Kf4kmcLpLdL2Z4Vwar7769s19NnY60akw+u5kYDWDjmwLWLRnSwzQrQme5zWHHjXrHGGF9cGtOADn9/CX37eaEMVw5jZSN4SJ8Tw28pwiNRJ3m7DyBMnUR4hiZzZRL4Bi9HCKrOXCr9NgYenwbgG0AA1lpuzet+quo4vCPieNDgiXpWVMBbKt47VemANw1nAufG7hKxGfD6QsKy11joH2yvAfkUlVrUhNXcJb1oIK/bAkGaNA/Cn+/4CRN9k8xAwRMFHf9u4LHMbKpBRB2MW/xTmF4Jh59uUUP6gEsLiuTOaMrIRCPEEx515coBEpzRNzUAaHm4fZAXIgVssRprv9Ev4IjpGsQ6anLwLQSVkMJuBI5er4N7tuYS1e5rtWjWq8ItEqYEENDbamiYrqAxqsUHFclqw6Fpw+Pv3+m80epe+WSbMKHsuXazTKVChepQyno2oVIZ/LnD2pOI+UDar8vXW76sPoKxuL6PRVrpNcwcTx0qBKY7HZFohZGN+BK3qMwMs5g4NuUYWOKeL5k81vXRuzLx8NNkBuRwAyDaCEXXWeEpz8id0R9+CkU66vQ7Yy9qIbGHP22eqxKXyFJqJ7GGM06JiZXkWRAONZGb6jpVpOBxKCIZpjTlyZT3lMU3WtlO5Gy56hc9L1KKiQD20cp6CgnWwpYpU75vpDThwCahfDpjZDEF+MCxJ8Xh84KseOwL0c38UgVbhPVpM7SG8kpDBNwUMfQ6rgaCTm9R/KLlpYslNZgLuzeSTsN359oL4PWC5aoMD+2yeoJWAbQk1nnrMIBJiIaosk6YP/4TIPMGCNJ2n5kYwenWORYGO/eG/9EKHXfOrMLlOLcYCVKT9OQ+aAkjS2qgeRCZz4O9tIAWhRN1qqlQDg+Xa2m+8y8GV/RF4LIDDgzO9eLUb2R6h+x1j2jmjx1B2xapFqNym+SH2OnAbJ9DpcN8HOkGwOPVvzVljpqFQsj801NNMeHn+i90j+A54PoAAyjJWp3dBGDK98xb3ywO0yl+eSpau0rtRBgbOmcFQKoyjM5uxMhc8Cm5TjKvs17c8op21L7Xf0jgCVitDFFtjSmIacGbZTVycoDzyMe3a5Lvg8PaOxivR/5Pi3rTIy7ZQAD3wOn6f9qiWSCw687SvRab0vjjv8xFn1V5vRosmHK8g3ILbde6F1LxJbkxefD9hHNTLM/JR3fRIx8hykh2KWMp7yiCOVynMKxbX9CmN1w9UkUvPVQ7FFIIdSRvqTOdHNM3UiPXeREdXj8U6rFdkyurr/BDoXwRBhWE9bh/oYXmsJ4zdVgCI2Oudl3NsRRj7nKMkrRKvAnpreVW5eQaiHdDeyjs1L2y6zpHgeHDMNGmln8MsDFnvKH13fF2mqUQzYiupHH7zX4bbJYcGpHZoyEbQ0yvfsdHVGgkgpBIAhFCeNJ7PLrCngaG5qWB7uDeMzhqVDeTSUyBy8dbvt2cmcBvtZCIqRiVzGgKKWFiZ/EHxkgboUoRBkh4Rho7dS0j9JFEGkHv/2Fy+D1cviRA0+8k/rakZMfYe2CkrHCa7kBfgu2wF1KCm9xwpF7WPRlXK/vOCY+aJ70rK5LVOpSWLzvkp4zC+BuTiKE9TmVPa2GEm5LsvvnHIG8frhiN6dTuRqFP4LvY7vwQiS/7JZU4CeXq7rEnNiYLi2/JgI1MLm7IJlXgozYsh7DsANeLqMGu3/wbRWQbB3nNaf8gMOKnegwXF+gJ8Tb2QCR+vCpSEmWOZmJfXKcJ0tPRD4/kT9RZoKDsPw9ymON+T3ZZqRcFDTURwp9X8zXjfvRhaYxI9EfRM8FXu65lAXUbCECs+9CEs+hr1AjCtebmizigCzNlZZdybSzo8K65UEm9+h234fvzcj5xaRDaqXef0pOIYcevgL7wcZxH7Q6W25/t3zPMYwbjQem+8vWHlTyspkHez++Dh++kKWn3hqZpsY4GhGUQ1UspOEvi8c/FzL5e0ur0+3oAFPpap8L7opm0a4AWRQ0y44PBRfYvgC6NwPw/WRJgXheS/AMCOP1GiSq3skN0ZiaV+Hvc5xwhmfkcUeIhzaLqw9YR7V1Up0IH0/9TmmBDBxrTKUbo2Cr60Axu5OJqxjw0TWRvMqExO7BRqbIl5Nz/5Odha29Q8fvZkwsZg51fJREH/xuHYj/bVACIdyY6OfXwKyJm/H8ttfN3/7UqIzSof807L6vRArxYTuusFyciIVnIQgAR2mXjMblUdIMj6GgzU3bvIGShS7ccboil8vkM2UgA3yz+aVYuqYCAIMuR+2Xt/NNhx6GcUfzUHbfeuNeQW9tSDN7luT06di1EXB1coDL01vUc1vC4X8WHTzJ/NvEdDDFpf1zHSn+S2dvL36su9TueMuybcImTRUkvgwVLQ/56Kw2MMRu/qJfC5TKcUFVEfOf72kEB9+T7U7J/nS3NcJQZ5RUPHg/bH13qDxhtJawP3FD9mN1N+sKp1c08bsqc5STaa8svKJTLuoUTuQY+cNCjTrMo83nQRQf+yIizDwD51i1HucEcZa2w49QunDGSwTC99UdMgs4rWbj80Pj7fIVktWKBGtrU8xirevWsWsOwpmQ/R3fOXP9rStXmbfy5MJ5psko0h+JpB5f4iDjRNzIdiYV6igQEHtQkhb6CNInA6OTU8qQHkA8Ax2HyVwW5Wn5oYHb2Umgx2QT02/4/so3QZvLxPMecc/njzSjohID5vHHcFoN2zwZoIl/2Ucxuc1rCTNrCPKANtEMUXk/f/41ZruM+sHA05/9Gc8QFpmxmr0IpTzPMlvlpa/8TnrVR2tf/BUaBmsMz7jgixNM38uerk2Oh7zyLa5UEb1OCg8I2sNJ8mHHZYIGwR7wquH1PMFQuchm3Wxleu1YgBextbeBzwsNpEgQh/ZkCupVNw5mVJeqE4pmqGMmrEYE3GLfL05I71X5Ys+u8qNeXeXC+pJnN5CDxs44/fodiset4a+UDHJVCAQG8PjXXHKfyCgTY2b2oQQTz3hPcGglmgnnbZM7UL64tN+q9scMgdUk8WWpoz5VZJQrqSUgALEyApI0NiRMG6/AgQddhelwhiZhMA3o0qi03Y2lYvDcA1QTwY+4B0OacT7EP4vNlSIc+Fb90fme60NhGt9RZ6BZj7mFHHMv9qn4R6QqcF/u+ZMnSqo0k7kK/8yXJnYc0f2j1O41XHjtGmdifHv3kEMPkRaMuO+sdsVUVNdlgHCJ/gyKLxu0eV76pdEgRp/p16z/C/XCkPrIabSiayowgrCmI8oIJA1QbNBl9m6VRzkqZWi2zQRaLTy+iUNmrgs8ka/nSxPW1Oba26PEMs1oLIyBLWCuVwtmiQ0HfPhyOykPiLspB76VtOgl2WZayysNaUNjKvyHb43Ruq30Q0QSWKF4wCM80O6Ke5iCoy0ng0MZO7i2OzugCGaXnWVx+cckTpHGKEEwzEwW/VSwyYLaWb3dYJjopvZRo/U5cKqTDWXPMH7hWvZP4pVNaz9UgzoVBGh+xa7S2IquQPrZlMjLx4rgH+21DRcrDKELlQHCj6sWOuCPAoaZlSUt1nJeyRiai345kk6klbkVEb3W9ywxJ4n8UECATEB6n9BJYYtp0I/ZACb+jkrZc24mSASLgBIjwjOJc0ohgRdh8vbpqtW2G6pAvZSQ/khb7tVemQNL4Z5L8wAeekparc6ozwqDU/bNbW4GHEE5AvsHhneFUp4v5SmL0oBmaI5OurfkNGc1QYvxigqSiIQOQWWsKPMQpyRRSU6T67a+7ewLe/O27YWQvdQowIu04zUuyElX+fhdYUipmSB6gctiRxUYQwaAsQIFaTZmYLWSmb7NJH6DsbOYYgujstRbDVmE+7LXq2KTYHjAbHXDiFEgs3tof+NEE4Wb4GVWeqXoEyPhFZIX3rvY2YLN9q8b1cUdYvTnYgAETuuLVlvsKUC90i6b1Y2SoJaG4HUEjNzzRcG99dZ1fLRtxh3rluHkMvOZHp+PRvipFdRKCkilgm+dLA4G2QJ7SOraZurrBzNtEuoF+Pn7e+l70fdpPguIG27SHx5TbOda9RZQgMQJMbdHkW/T61li06tn/MfzPNI5MsBbp8yNuvdSqhD26BO0JSMaaXyKIUbbJpKVxHVAnpp0l/wKRlETxme7pVkzEkt6PIeTYhqiczAdIHZSQ/OzHJHjglwD0aisiGesXeGtWZsw0MmwAFU9fVBGc96t4JGCp/pGdQwAi4MBzdFrgCDzExEszmg9VI4xEEF4xIFRl8FrNGHdMFqLV0vz8hw9XW4rq+XzcRxTl/6RPpxmRG/2E9F1mj9joAIvUTkRBXwxDNhh5fzEmsf74qta1M98DARN5we3wb3RwHaaNdkyulvjqx0jrncL3/ElEZgXXEiCI5vLQmGP4YRinfcbdzfUS/+KH9oaR5fvCS92u6TPoY1Tu1JZpxsTe6xDUJYAIKgurwTRI2/D1wNzLP60X1rJBY8jjSQXRAAAA=;fontSize=32;" vertex="1" parent="lkz7h4dLqbm93Tn8HokA-154">
          <mxGeometry x="74.5" y="76" width="31.1" height="26" as="geometry" />
        </mxCell>
        <mxCell id="lkz7h4dLqbm93Tn8HokA-165" value="" style="shape=image;verticalLabelPosition=bottom;verticalAlign=top;imageAspect=0;aspect=fixed;image=data:image/webp,UklGRooYAABXRUJQVlA4IH4YAABwuwCdASpWAvQBPpFEnkwlo60iIhFJCaASCWlu7ulSKOAQFbJMn/GerrxqiA+yzONPN/uD4s9kjcDw/0LlA/dP+7cY9E2Tz8+P8bzg+z+w6yC+s1/recz651HQRfO+UT3+PnAonv8fOBRPf4+cCie/x84FE9/j5wKJ7/HzgUT3+PnAonv8fOBRPf4+cCie/x84FE9/j5wKJcJYRIC3MNYoBpeVWtFXlx9YON6Cie/x84FE9/j5wKJhjL/mXi4f/jiiVvFUDciPOjHzkXRyRANF9U16qMusd97UjSA5ZpF5nZ/1BAipuOE5XCVCtVzrRKfarnWiU+1Hy+x+sNeKfl6lA7QnZjSKOTfQF5MVEZ6YrTuAUMe8oupkNxJIN+tURK4UtCRLdGX6jcdyYIQTRsp7X1vtVzrRKfarnWiU+xtmBiy8omEDcpDE4j7jr5VwlMT6PZ6gSVu3VKI7h+i1E65cFbteNpKMUfnl4IsJ7/HzgUT3+PnAol3Cl/uJSWwBory5yUOAyMlzuTlrK5Rhk+biAndQbWx2OvTNv//kwzsTUPhGVTaJU6daJT7Vc60Sn2q51ViDjRfVHBizDevAXbZZmNMjq/h1ntcK/CGfH2j5wKJ7/HzgUT38W6c/kv4uTxHed1/MIC+pxoI5i1Ws/NElB7Vc60Sn2q51olNkWtItGOMdzS6f4lieuMkuMWEiUeiO1rujfLo/aqbTHXnG76VZM0GWlolPtVzrRKfarkHUwmnUV9vCT/5uzfpnpOQIS73jGiSwEygRsMdh4MnTk07ncz+NETK4MFFarnWiU+1XIM3H+2hwfl9RfsTHKpm/tKLgmfBhpJbEpc4RWhHCuIju1L8XID+QD5wKJ7/HzgUT3+HkcH+5z0ih1DXINfnLTcc++YqROzW1Zv7EUPzvlE9/j5wKJ7/DnprS8iMh3K4Cz4+sVVL+XEha4kotbj9JJS+rDrYCK8Q80GCitVzrRKfarnVXI3oSiH3XRxXfKaElqmTVNUXOSlGziuUsECxP8syATPNBm4NpvhH7R84FE9/j5wKDmf9rqh1OXg+oPlFWVdGuPGr6wirmillCf6hnsocK3UPbukCFKiSn2q51olPtVyFHqz4VJg1I8whtAgJSGnt2DInuqHiJPchRgp0k0VCC3VlE9/j5wKJ7+WgLmYqMy4RC0GrQ6tp2YPhGLNQg3RYalzola6+n2NPicPHfKJ7/HzgUT38tJakeDA0X4dDFx15lnYaAB0ukKqW3d57VTv2ALasrQ75ho+cCie/x84FE8rr2l/jUploPhFSkfVYJD/TYGdOgOAaPhMzWuyQL3k5GM+QrODWfPzGmdp451olPtVzrQ7+xZMEpqu23n4H4H8bTBOB9/mNpr7CPahx6bbOocaLa6ODAU9sEb9TmTckp9qudaJT8icW0iCRr0kecr/iTHiBZxZE+SUrWOvn65L9tTg6vsCBj/t6QqcP/7j3rrfJoWr2IaoQSr5twxRIGaQCC/6M3+IhFMOErBUQ67WitXv2SMM8jl1N9kMrDVCY1k9ZRvFGF7a479ekc5BOhl3FbMtYGByIEAVl4ujLYqw1iFjGRlP2b4ScLD11bzP3yiidetFE6VeI9TcQUKFT4NUvr8kgy02BFPhK3Vw0Ykhf1zxIka9RR6FQBlp+4IDfeljSaJ/Xr2s6RbsPbfbANrJhiZ5U0hr4ftW/8DX3HRdY/Una8i1FOypPfpnuCleWNvuUbsbQRZP+YUJajIgHzgUUDx1fyr3z2jJZEo/CvtjIGqb6IQIxvy1TM+HBY9gvu061tCK/zo9m77vw9j5V2GW78ZiaNsxiFh+0VsJfA/ZFWXAPwXazyp40/9gAijfjP5SGXyKFs+SX0uOKY+sSLkf1imphq5SXuz4+hXbZbR84GuI4eCaXOYWtdbhmMF/Kam6PDVRPf4+eZGkmobxewVLKOlIA4FE9/j5wKJ7/In+ff3U5XpNk9/j5wKJ7/HzgUT4Cg+PoVu+tEp9qudaJT7VccAAD+/iLAAAAAAAeeli/f4gB6wjlme00Frqv6g6Po+TH96x9ZnuwdrarcOpNpASgjEtRlfCL6k79ehJVRazXgo3MidQvLq6bBsOoipsx3bZOH5nuBvo9/938F/9x+qelQviDc1i4ohfCxy2j2dq0AV/LBZ2Y9+aSu3LG8dtXgACe1uZFoUjbZxK6IRoTfywH/eT+w9SK2X+qfrq1+LWLnwgFOlmv+39FS5aLbmlsKi1sDjSEnGzegjjJZ5jKG+z6joU+utijtaGzmBgToIceMO/d3Aqe9b6sZX/LyQ9tlwV1hHwgxrPEdde+C1M0fJuwMSHsTgP0CRSbINYwqjAR1hTbcqweP2HtqI4Mru+Nrr2TFEGvAzs1V+uCGE+TqHV5psOdKq7UCOuHTM/XjyR7Z4IrSFIS207DTzYMBU+Hbpet+Jh+QJ+luajboKJbwdO4ATcGO7giXbYshzp1qFBsCwP2xzhd4JejQBGtxbuiR3veHXC1kO2d1lwhn8eeYrX8/TIWhCZUqHRoKarwEvqhU0hPjlFXMhXiaRDdQqkSq39+lNw4CT7pkJ9zZXTpgQN4RQXAOEOKy5zdXg9URqFb7j1AwFa3gvzQ4l0P9w0OttwsFfL37gtDEdxemegxTXC0GLH8TKhtmExD4vY3bLlCzDnIKZpYEM4GqpN4Tgdq4pxZGifAB0h89tjyl/SWuaLpoG4ONJmV8o9ivBetibUAlpEEjaKqwhuMy2kWB5qudJ1iSJGBKxl1qCJ16jr52eu+jm98d0ux+zd9MFjPW8UYTDluqLFJRRwKpykSy2vyUUwfIaKXwjeFgw8m7I4avg9/DSg6oDc2TgncD2ryTnvcz/1PLLdjIKrasLgPkUHoa1lPxlEwTyGIUy/dAz1u5AQu2KPDvnwzukADt6KLYiaLaJOVney6ax7VW/494I1OUmsMOwa8vh/1jw4Ah7NCnqIP6ARexDAL0AwmEQtO7UxUNtfnhg5e82fzzTiPrr3AnwIjvkh7piSDo4AJjkSUbSfMWf92w4vvr8gSCc+7I/jd+9Rxs4hmOL4kMgCtMt0UHJ8tSOSenu5pzd8WaTgv6sNn1Kh55KEp/y7+aicHSDcNg+9IEwivQG8bgisSlVnTvqL+BJ/CS9z30E4lhD5nB3tna9SOyoktZUgMTH1I8Bo3j8X7xxcw5O3rNgDEQ1wuf9fSUyPoGo7LL2d17+zoGcmu0fa+AcPOnnGRS49dnKR8L4ZRvk7yZ+I/DhX+Cidm1abSju/CmBQXZwiTJzI0sXxt68abKNMfRdjpla6yVxOSPXYahDL8O1JoKevEq3n7baWhGZ430oVsUz6vOkTlPA7nNMyGXXeLfQm+hob2aGkMrJpYa+DxH/urmuz4S7l0oaEGYUe+4w+v7v2THLA+k0HXicBKHnMO86welOETC0UjnecsF2XokUTBTi1cHoE1S6CCBCx00Gqxf3r1tgQA9QKpAYR3rSHRNFfmxKRHuQwfqGImDEJJ7OWtJiDuNLBj6NGw3N5KHtAldFc9sRpUm/bSjFSUBj9CH+8PYzvv84fvIXofWgZprEtPyz0rjr1KVJdYxbxNy85KAA4eeKXcr+7jXEBwbrNkIMQJDG/axtinIe8vuNdGldNPZJ/3ZcOX1TOjkEgK8tNJt+P2OlqUHPJkQwTYgrOCcTMAu1KYGVO09aPtbN8uvoN+BKoDXPdGX7jbKCr9EjrxI7D4oWS+OLeY63PCwClInVS0erutkA5dVysoFTQxoH9VUDcHmzU0ajtBGV1Om8zcc/Y8Y5ZYpHwmcqWsLmIe4JhnpudEpYUpt0H26QH7riqX/p1CoKWpHcNPn4r7eyEnMJ4OPdiqQDSP382ucAsdX8komo+bCFdJRo77wa2z6xwNeK9D6Kf4kmcLpLdL2Z4Vwar7769s19NnY60akw+u5kYDWDjmwLWLRnSwzQrQme5zWHHjXrHGGF9cGtOADn9/CX37eaEMVw5jZSN4SJ8Tw28pwiNRJ3m7DyBMnUR4hiZzZRL4Bi9HCKrOXCr9NgYenwbgG0AA1lpuzet+quo4vCPieNDgiXpWVMBbKt47VemANw1nAufG7hKxGfD6QsKy11joH2yvAfkUlVrUhNXcJb1oIK/bAkGaNA/Cn+/4CRN9k8xAwRMFHf9u4LHMbKpBRB2MW/xTmF4Jh59uUUP6gEsLiuTOaMrIRCPEEx515coBEpzRNzUAaHm4fZAXIgVssRprv9Ev4IjpGsQ6anLwLQSVkMJuBI5er4N7tuYS1e5rtWjWq8ItEqYEENDbamiYrqAxqsUHFclqw6Fpw+Pv3+m80epe+WSbMKHsuXazTKVChepQyno2oVIZ/LnD2pOI+UDar8vXW76sPoKxuL6PRVrpNcwcTx0qBKY7HZFohZGN+BK3qMwMs5g4NuUYWOKeL5k81vXRuzLx8NNkBuRwAyDaCEXXWeEpz8id0R9+CkU66vQ7Yy9qIbGHP22eqxKXyFJqJ7GGM06JiZXkWRAONZGb6jpVpOBxKCIZpjTlyZT3lMU3WtlO5Gy56hc9L1KKiQD20cp6CgnWwpYpU75vpDThwCahfDpjZDEF+MCxJ8Xh84KseOwL0c38UgVbhPVpM7SG8kpDBNwUMfQ6rgaCTm9R/KLlpYslNZgLuzeSTsN359oL4PWC5aoMD+2yeoJWAbQk1nnrMIBJiIaosk6YP/4TIPMGCNJ2n5kYwenWORYGO/eG/9EKHXfOrMLlOLcYCVKT9OQ+aAkjS2qgeRCZz4O9tIAWhRN1qqlQDg+Xa2m+8y8GV/RF4LIDDgzO9eLUb2R6h+x1j2jmjx1B2xapFqNym+SH2OnAbJ9DpcN8HOkGwOPVvzVljpqFQsj801NNMeHn+i90j+A54PoAAyjJWp3dBGDK98xb3ywO0yl+eSpau0rtRBgbOmcFQKoyjM5uxMhc8Cm5TjKvs17c8op21L7Xf0jgCVitDFFtjSmIacGbZTVycoDzyMe3a5Lvg8PaOxivR/5Pi3rTIy7ZQAD3wOn6f9qiWSCw687SvRab0vjjv8xFn1V5vRosmHK8g3ILbde6F1LxJbkxefD9hHNTLM/JR3fRIx8hykh2KWMp7yiCOVynMKxbX9CmN1w9UkUvPVQ7FFIIdSRvqTOdHNM3UiPXeREdXj8U6rFdkyurr/BDoXwRBhWE9bh/oYXmsJ4zdVgCI2Oudl3NsRRj7nKMkrRKvAnpreVW5eQaiHdDeyjs1L2y6zpHgeHDMNGmln8MsDFnvKH13fF2mqUQzYiupHH7zX4bbJYcGpHZoyEbQ0yvfsdHVGgkgpBIAhFCeNJ7PLrCngaG5qWB7uDeMzhqVDeTSUyBy8dbvt2cmcBvtZCIqRiVzGgKKWFiZ/EHxkgboUoRBkh4Rho7dS0j9JFEGkHv/2Fy+D1cviRA0+8k/rakZMfYe2CkrHCa7kBfgu2wF1KCm9xwpF7WPRlXK/vOCY+aJ70rK5LVOpSWLzvkp4zC+BuTiKE9TmVPa2GEm5LsvvnHIG8frhiN6dTuRqFP4LvY7vwQiS/7JZU4CeXq7rEnNiYLi2/JgI1MLm7IJlXgozYsh7DsANeLqMGu3/wbRWQbB3nNaf8gMOKnegwXF+gJ8Tb2QCR+vCpSEmWOZmJfXKcJ0tPRD4/kT9RZoKDsPw9ymON+T3ZZqRcFDTURwp9X8zXjfvRhaYxI9EfRM8FXu65lAXUbCECs+9CEs+hr1AjCtebmizigCzNlZZdybSzo8K65UEm9+h234fvzcj5xaRDaqXef0pOIYcevgL7wcZxH7Q6W25/t3zPMYwbjQem+8vWHlTyspkHez++Dh++kKWn3hqZpsY4GhGUQ1UspOEvi8c/FzL5e0ur0+3oAFPpap8L7opm0a4AWRQ0y44PBRfYvgC6NwPw/WRJgXheS/AMCOP1GiSq3skN0ZiaV+Hvc5xwhmfkcUeIhzaLqw9YR7V1Up0IH0/9TmmBDBxrTKUbo2Cr60Axu5OJqxjw0TWRvMqExO7BRqbIl5Nz/5Odha29Q8fvZkwsZg51fJREH/xuHYj/bVACIdyY6OfXwKyJm/H8ttfN3/7UqIzSof807L6vRArxYTuusFyciIVnIQgAR2mXjMblUdIMj6GgzU3bvIGShS7ccboil8vkM2UgA3yz+aVYuqYCAIMuR+2Xt/NNhx6GcUfzUHbfeuNeQW9tSDN7luT06di1EXB1coDL01vUc1vC4X8WHTzJ/NvEdDDFpf1zHSn+S2dvL36su9TueMuybcImTRUkvgwVLQ/56Kw2MMRu/qJfC5TKcUFVEfOf72kEB9+T7U7J/nS3NcJQZ5RUPHg/bH13qDxhtJawP3FD9mN1N+sKp1c08bsqc5STaa8svKJTLuoUTuQY+cNCjTrMo83nQRQf+yIizDwD51i1HucEcZa2w49QunDGSwTC99UdMgs4rWbj80Pj7fIVktWKBGtrU8xirevWsWsOwpmQ/R3fOXP9rStXmbfy5MJ5psko0h+JpB5f4iDjRNzIdiYV6igQEHtQkhb6CNInA6OTU8qQHkA8Ax2HyVwW5Wn5oYHb2Umgx2QT02/4/so3QZvLxPMecc/njzSjohID5vHHcFoN2zwZoIl/2Ucxuc1rCTNrCPKANtEMUXk/f/41ZruM+sHA05/9Gc8QFpmxmr0IpTzPMlvlpa/8TnrVR2tf/BUaBmsMz7jgixNM38uerk2Oh7zyLa5UEb1OCg8I2sNJ8mHHZYIGwR7wquH1PMFQuchm3Wxleu1YgBextbeBzwsNpEgQh/ZkCupVNw5mVJeqE4pmqGMmrEYE3GLfL05I71X5Ys+u8qNeXeXC+pJnN5CDxs44/fodiset4a+UDHJVCAQG8PjXXHKfyCgTY2b2oQQTz3hPcGglmgnnbZM7UL64tN+q9scMgdUk8WWpoz5VZJQrqSUgALEyApI0NiRMG6/AgQddhelwhiZhMA3o0qi03Y2lYvDcA1QTwY+4B0OacT7EP4vNlSIc+Fb90fme60NhGt9RZ6BZj7mFHHMv9qn4R6QqcF/u+ZMnSqo0k7kK/8yXJnYc0f2j1O41XHjtGmdifHv3kEMPkRaMuO+sdsVUVNdlgHCJ/gyKLxu0eV76pdEgRp/p16z/C/XCkPrIabSiayowgrCmI8oIJA1QbNBl9m6VRzkqZWi2zQRaLTy+iUNmrgs8ka/nSxPW1Oba26PEMs1oLIyBLWCuVwtmiQ0HfPhyOykPiLspB76VtOgl2WZayysNaUNjKvyHb43Ruq30Q0QSWKF4wCM80O6Ke5iCoy0ng0MZO7i2OzugCGaXnWVx+cckTpHGKEEwzEwW/VSwyYLaWb3dYJjopvZRo/U5cKqTDWXPMH7hWvZP4pVNaz9UgzoVBGh+xa7S2IquQPrZlMjLx4rgH+21DRcrDKELlQHCj6sWOuCPAoaZlSUt1nJeyRiai345kk6klbkVEb3W9ywxJ4n8UECATEB6n9BJYYtp0I/ZACb+jkrZc24mSASLgBIjwjOJc0ohgRdh8vbpqtW2G6pAvZSQ/khb7tVemQNL4Z5L8wAeekparc6ozwqDU/bNbW4GHEE5AvsHhneFUp4v5SmL0oBmaI5OurfkNGc1QYvxigqSiIQOQWWsKPMQpyRRSU6T67a+7ewLe/O27YWQvdQowIu04zUuyElX+fhdYUipmSB6gctiRxUYQwaAsQIFaTZmYLWSmb7NJH6DsbOYYgujstRbDVmE+7LXq2KTYHjAbHXDiFEgs3tof+NEE4Wb4GVWeqXoEyPhFZIX3rvY2YLN9q8b1cUdYvTnYgAETuuLVlvsKUC90i6b1Y2SoJaG4HUEjNzzRcG99dZ1fLRtxh3rluHkMvOZHp+PRvipFdRKCkilgm+dLA4G2QJ7SOraZurrBzNtEuoF+Pn7e+l70fdpPguIG27SHx5TbOda9RZQgMQJMbdHkW/T61li06tn/MfzPNI5MsBbp8yNuvdSqhD26BO0JSMaaXyKIUbbJpKVxHVAnpp0l/wKRlETxme7pVkzEkt6PIeTYhqiczAdIHZSQ/OzHJHjglwD0aisiGesXeGtWZsw0MmwAFU9fVBGc96t4JGCp/pGdQwAi4MBzdFrgCDzExEszmg9VI4xEEF4xIFRl8FrNGHdMFqLV0vz8hw9XW4rq+XzcRxTl/6RPpxmRG/2E9F1mj9joAIvUTkRBXwxDNhh5fzEmsf74qta1M98DARN5we3wb3RwHaaNdkyulvjqx0jrncL3/ElEZgXXEiCI5vLQmGP4YRinfcbdzfUS/+KH9oaR5fvCS92u6TPoY1Tu1JZpxsTe6xDUJYAIKgurwTRI2/D1wNzLP60X1rJBY8jjSQXRAAAA=;fontSize=32;" vertex="1" parent="lkz7h4dLqbm93Tn8HokA-154">
          <mxGeometry x="74.5" y="119" width="31.1" height="26" as="geometry" />
        </mxCell>
        <mxCell id="lkz7h4dLqbm93Tn8HokA-210" value="&lt;font color=&quot;#ff3333&quot;&gt;同步完成&lt;/font&gt;" style="text;html=1;resizable=0;autosize=1;align=center;verticalAlign=middle;points=[];fillColor=none;strokeColor=none;rounded=0;" vertex="1" parent="lkz7h4dLqbm93Tn8HokA-154">
          <mxGeometry x="152.5" y="76" width="60" height="20" as="geometry" />
        </mxCell>
        <mxCell id="lkz7h4dLqbm93Tn8HokA-169" value="" style="group" vertex="1" connectable="0" parent="1">
          <mxGeometry x="820" y="180" width="160" height="100" as="geometry" />
        </mxCell>
        <mxCell id="lkz7h4dLqbm93Tn8HokA-167" value="" style="fillColor=#b1ddf0;strokeColor=#10739e;shadow=1;fontSize=14;align=left;spacingLeft=50;" vertex="1" parent="lkz7h4dLqbm93Tn8HokA-169">
          <mxGeometry width="160" height="100" as="geometry" />
        </mxCell>
        <mxCell id="lkz7h4dLqbm93Tn8HokA-168" value="" style="html=1;verticalLabelPosition=bottom;align=center;labelBackgroundColor=#ffffff;verticalAlign=top;strokeWidth=2;strokeColor=#0080F0;shadow=0;dashed=0;shape=mxgraph.ios7.icons.map;fontSize=22;fontColor=#FF3333;" vertex="1" parent="lkz7h4dLqbm93Tn8HokA-169">
          <mxGeometry x="50" y="30" width="80" height="50" as="geometry" />
        </mxCell>
        <mxCell id="lkz7h4dLqbm93Tn8HokA-176" value="" style="group" vertex="1" connectable="0" parent="1">
          <mxGeometry x="820" y="413.5" width="160" height="100" as="geometry" />
        </mxCell>
        <mxCell id="lkz7h4dLqbm93Tn8HokA-171" value="" style="fillColor=#b1ddf0;strokeColor=#10739e;shadow=1;fontSize=14;align=left;spacingLeft=50;" vertex="1" parent="lkz7h4dLqbm93Tn8HokA-176">
          <mxGeometry width="160" height="100" as="geometry" />
        </mxCell>
        <mxCell id="lkz7h4dLqbm93Tn8HokA-172" value="" style="html=1;verticalLabelPosition=bottom;align=center;labelBackgroundColor=#ffffff;verticalAlign=top;strokeWidth=2;strokeColor=#0080F0;shadow=0;dashed=0;shape=mxgraph.ios7.icons.map;fontSize=22;fontColor=#FF3333;" vertex="1" parent="lkz7h4dLqbm93Tn8HokA-176">
          <mxGeometry x="50" y="25" width="80" height="50" as="geometry" />
        </mxCell>
        <mxCell id="lkz7h4dLqbm93Tn8HokA-177" value="" style="fillColor=#b1ddf0;strokeColor=#10739e;shadow=1;fontSize=14;align=left;spacingLeft=50;" vertex="1" parent="1">
          <mxGeometry x="830" y="690" width="160" height="100" as="geometry" />
        </mxCell>
        <mxCell id="lkz7h4dLqbm93Tn8HokA-178" value="" style="html=1;verticalLabelPosition=bottom;align=center;labelBackgroundColor=#ffffff;verticalAlign=top;strokeWidth=2;strokeColor=#0080F0;shadow=0;dashed=0;shape=mxgraph.ios7.icons.map;fontSize=22;fontColor=#FF3333;" vertex="1" parent="1">
          <mxGeometry x="870" y="725" width="80" height="50" as="geometry" />
        </mxCell>
        <mxCell id="lkz7h4dLqbm93Tn8HokA-213" style="edgeStyle=orthogonalEdgeStyle;rounded=0;orthogonalLoop=1;jettySize=auto;html=1;fontSize=22;fontColor=#FF3333;strokeColor=#3333FF;strokeWidth=2;" edge="1" parent="1" source="lkz7h4dLqbm93Tn8HokA-179" target="lkz7h4dLqbm93Tn8HokA-177">
          <mxGeometry relative="1" as="geometry" />
        </mxCell>
        <mxCell id="lkz7h4dLqbm93Tn8HokA-179" value="" style="sketch=0;points=[[0,0,0],[0.25,0,0],[0.5,0,0],[0.75,0,0],[1,0,0],[1,0.25,0],[1,0.5,0],[1,0.75,0],[1,1,0],[0.75,1,0],[0.5,1,0],[0.25,1,0],[0,1,0],[0,0.75,0],[0,0.5,0],[0,0.25,0]];rounded=1;absoluteArcSize=1;arcSize=2;html=1;strokeColor=#d79b00;shadow=0;dashed=0;fontSize=12;align=left;verticalAlign=top;spacing=10;spacingTop=-4;fillColor=#ffe6cc;" vertex="1" parent="1">
          <mxGeometry x="560" y="690" width="170" height="100" as="geometry" />
        </mxCell>
        <mxCell id="lkz7h4dLqbm93Tn8HokA-180" value="&lt;font style=&quot;font-size: 32px&quot;&gt;地图服务&lt;/font&gt;" style="text;html=1;resizable=0;autosize=1;align=center;verticalAlign=middle;points=[];fillColor=none;strokeColor=none;rounded=0;" vertex="1" parent="1">
          <mxGeometry x="575" y="725" width="140" height="30" as="geometry" />
        </mxCell>
        <mxCell id="lkz7h4dLqbm93Tn8HokA-182" value="&lt;font style=&quot;font-size: 22px&quot;&gt;下载地图&lt;/font&gt;" style="text;html=1;resizable=0;autosize=1;align=center;verticalAlign=middle;points=[];fillColor=none;strokeColor=none;rounded=0;fontSize=32;" vertex="1" parent="1">
          <mxGeometry x="730" y="680" width="100" height="50" as="geometry" />
        </mxCell>
        <mxCell id="lkz7h4dLqbm93Tn8HokA-183" value="" style="fillColor=#dae8fc;strokeColor=#6c8ebf;shadow=1;fontSize=14;align=left;spacingLeft=50;" vertex="1" parent="1">
          <mxGeometry x="260" y="702" width="160" height="96" as="geometry" />
        </mxCell>
        <mxCell id="lkz7h4dLqbm93Tn8HokA-184" value="" style="sketch=0;aspect=fixed;html=1;points=[];align=left;image;fontSize=12;image=img/lib/mscae/Management_Groups.svg;shadow=0;dashed=0;fontFamily=Helvetica;fontColor=#9E9E9E;fillColor=#E1F5FE;" vertex="1" parent="1">
          <mxGeometry x="310" y="720" width="70.91" height="60" as="geometry" />
        </mxCell>
        <mxCell id="lkz7h4dLqbm93Tn8HokA-188" value="" style="group" vertex="1" connectable="0" parent="1">
          <mxGeometry x="-40" y="900" width="230" height="200" as="geometry" />
        </mxCell>
        <mxCell id="lkz7h4dLqbm93Tn8HokA-189" value="UI" style="rounded=1;absoluteArcSize=1;arcSize=2;html=1;strokeColor=none;gradientColor=none;shadow=0;dashed=0;fontSize=12;fontColor=#9E9E9E;align=left;verticalAlign=top;spacing=10;spacingTop=-4;fillColor=#F1F8E9;" vertex="1" parent="lkz7h4dLqbm93Tn8HokA-188">
          <mxGeometry width="230" height="200" as="geometry" />
        </mxCell>
        <mxCell id="lkz7h4dLqbm93Tn8HokA-190" value="" style="points=[[0.35,0,0],[0.98,0.51,0],[1,0.71,0],[0.67,1,0],[0,0.795,0],[0,0.65,0]];verticalLabelPosition=bottom;sketch=0;html=1;verticalAlign=top;aspect=fixed;align=center;pointerEvents=1;shape=mxgraph.cisco19.user;fillColor=#005073;strokeColor=none;" vertex="1" parent="lkz7h4dLqbm93Tn8HokA-188">
          <mxGeometry x="12" y="80" width="50" height="50" as="geometry" />
        </mxCell>
        <mxCell id="lkz7h4dLqbm93Tn8HokA-191" value="刷新" style="text;html=1;resizable=0;autosize=1;align=center;verticalAlign=middle;points=[];fillColor=none;strokeColor=none;rounded=0;" vertex="1" parent="lkz7h4dLqbm93Tn8HokA-188">
          <mxGeometry x="108.5" y="170" width="40" height="20" as="geometry" />
        </mxCell>
        <mxCell id="lkz7h4dLqbm93Tn8HokA-192" value="机器人列表" style="html=1;fillColor=none;strokeColor=none;fontSize=11;align=left;fontColor=#596780;whiteSpace=wrap;sketch=1;hachureGap=4;pointerEvents=0;fontFamily=Architects Daughter;fontSource=https%3A%2F%2Ffonts.googleapis.com%2Fcss%3Ffamily%3DArchitects%2BDaughter;" vertex="1" parent="lkz7h4dLqbm93Tn8HokA-188">
          <mxGeometry x="61.5" y="30" width="150" height="20" as="geometry" />
        </mxCell>
        <mxCell id="lkz7h4dLqbm93Tn8HokA-193" value="站点" style="html=1;fillColor=none;strokeColor=none;fontSize=11;align=left;fontColor=#596780;whiteSpace=wrap;sketch=1;hachureGap=4;pointerEvents=0;fontFamily=Architects Daughter;fontSource=https%3A%2F%2Ffonts.googleapis.com%2Fcss%3Ffamily%3DArchitects%2BDaughter;" vertex="1" parent="lkz7h4dLqbm93Tn8HokA-188">
          <mxGeometry x="168.5" y="30" width="43" height="22" as="geometry" />
        </mxCell>
        <mxCell id="lkz7h4dLqbm93Tn8HokA-194" value="" style="shape=line;strokeWidth=2;html=1;strokeColor=#DFE1E5;resizeWidth=1;sketch=1;hachureGap=4;pointerEvents=0;fontFamily=Architects Daughter;fontSource=https%3A%2F%2Ffonts.googleapis.com%2Fcss%3Ffamily%3DArchitects%2BDaughter;fontSize=20;" vertex="1" parent="lkz7h4dLqbm93Tn8HokA-188">
          <mxGeometry x="57.5" y="50" width="150" height="10" as="geometry" />
        </mxCell>
        <mxCell id="lkz7h4dLqbm93Tn8HokA-195" value="XXX" style="html=1;fillColor=none;strokeColor=none;fontSize=12;align=left;fontColor=#000000;whiteSpace=wrap;fontStyle=1;sketch=1;hachureGap=4;pointerEvents=0;fontFamily=Architects Daughter;fontSource=https%3A%2F%2Ffonts.googleapis.com%2Fcss%3Ffamily%3DArchitects%2BDaughter;" vertex="1" parent="lkz7h4dLqbm93Tn8HokA-188">
          <mxGeometry x="108.5" y="73" width="73" height="26" as="geometry" />
        </mxCell>
        <mxCell id="lkz7h4dLqbm93Tn8HokA-196" value="YYY" style="html=1;fillColor=none;strokeColor=none;fontSize=12;align=left;fontColor=#000000;whiteSpace=wrap;fontStyle=1;sketch=1;hachureGap=4;pointerEvents=0;fontFamily=Architects Daughter;fontSource=https%3A%2F%2Ffonts.googleapis.com%2Fcss%3Ffamily%3DArchitects%2BDaughter;" vertex="1" parent="lkz7h4dLqbm93Tn8HokA-188">
          <mxGeometry x="98.5" y="121" width="33" height="11" as="geometry" />
        </mxCell>
        <mxCell id="lkz7h4dLqbm93Tn8HokA-197" value="" style="shape=mxgraph.office.security.lock_protected;fillColor=#5E6C84;strokeColor=none;sketch=0;hachureGap=4;pointerEvents=0;fontFamily=Architects Daughter;fontSource=https%3A%2F%2Ffonts.googleapis.com%2Fcss%3Ffamily%3DArchitects%2BDaughter;fontSize=20;" vertex="1" parent="lkz7h4dLqbm93Tn8HokA-188">
          <mxGeometry x="181.5" y="118" width="10" height="14" as="geometry" />
        </mxCell>
        <mxCell id="lkz7h4dLqbm93Tn8HokA-198" value="" style="shape=image;verticalLabelPosition=bottom;verticalAlign=top;imageAspect=0;aspect=fixed;image=data:image/webp,UklGRooYAABXRUJQVlA4IH4YAABwuwCdASpWAvQBPpFEnkwlo60iIhFJCaASCWlu7ulSKOAQFbJMn/GerrxqiA+yzONPN/uD4s9kjcDw/0LlA/dP+7cY9E2Tz8+P8bzg+z+w6yC+s1/recz651HQRfO+UT3+PnAonv8fOBRPf4+cCie/x84FE9/j5wKJ7/HzgUT3+PnAonv8fOBRPf4+cCie/x84FE9/j5wKJcJYRIC3MNYoBpeVWtFXlx9YON6Cie/x84FE9/j5wKJhjL/mXi4f/jiiVvFUDciPOjHzkXRyRANF9U16qMusd97UjSA5ZpF5nZ/1BAipuOE5XCVCtVzrRKfarnWiU+1Hy+x+sNeKfl6lA7QnZjSKOTfQF5MVEZ6YrTuAUMe8oupkNxJIN+tURK4UtCRLdGX6jcdyYIQTRsp7X1vtVzrRKfarnWiU+xtmBiy8omEDcpDE4j7jr5VwlMT6PZ6gSVu3VKI7h+i1E65cFbteNpKMUfnl4IsJ7/HzgUT3+PnAol3Cl/uJSWwBory5yUOAyMlzuTlrK5Rhk+biAndQbWx2OvTNv//kwzsTUPhGVTaJU6daJT7Vc60Sn2q51ViDjRfVHBizDevAXbZZmNMjq/h1ntcK/CGfH2j5wKJ7/HzgUT38W6c/kv4uTxHed1/MIC+pxoI5i1Ws/NElB7Vc60Sn2q51olNkWtItGOMdzS6f4lieuMkuMWEiUeiO1rujfLo/aqbTHXnG76VZM0GWlolPtVzrRKfarkHUwmnUV9vCT/5uzfpnpOQIS73jGiSwEygRsMdh4MnTk07ncz+NETK4MFFarnWiU+1XIM3H+2hwfl9RfsTHKpm/tKLgmfBhpJbEpc4RWhHCuIju1L8XID+QD5wKJ7/HzgUT3+HkcH+5z0ih1DXINfnLTcc++YqROzW1Zv7EUPzvlE9/j5wKJ7/DnprS8iMh3K4Cz4+sVVL+XEha4kotbj9JJS+rDrYCK8Q80GCitVzrRKfarnVXI3oSiH3XRxXfKaElqmTVNUXOSlGziuUsECxP8syATPNBm4NpvhH7R84FE9/j5wKDmf9rqh1OXg+oPlFWVdGuPGr6wirmillCf6hnsocK3UPbukCFKiSn2q51olPtVyFHqz4VJg1I8whtAgJSGnt2DInuqHiJPchRgp0k0VCC3VlE9/j5wKJ7+WgLmYqMy4RC0GrQ6tp2YPhGLNQg3RYalzola6+n2NPicPHfKJ7/HzgUT38tJakeDA0X4dDFx15lnYaAB0ukKqW3d57VTv2ALasrQ75ho+cCie/x84FE8rr2l/jUploPhFSkfVYJD/TYGdOgOAaPhMzWuyQL3k5GM+QrODWfPzGmdp451olPtVzrQ7+xZMEpqu23n4H4H8bTBOB9/mNpr7CPahx6bbOocaLa6ODAU9sEb9TmTckp9qudaJT8icW0iCRr0kecr/iTHiBZxZE+SUrWOvn65L9tTg6vsCBj/t6QqcP/7j3rrfJoWr2IaoQSr5twxRIGaQCC/6M3+IhFMOErBUQ67WitXv2SMM8jl1N9kMrDVCY1k9ZRvFGF7a479ekc5BOhl3FbMtYGByIEAVl4ujLYqw1iFjGRlP2b4ScLD11bzP3yiidetFE6VeI9TcQUKFT4NUvr8kgy02BFPhK3Vw0Ykhf1zxIka9RR6FQBlp+4IDfeljSaJ/Xr2s6RbsPbfbANrJhiZ5U0hr4ftW/8DX3HRdY/Una8i1FOypPfpnuCleWNvuUbsbQRZP+YUJajIgHzgUUDx1fyr3z2jJZEo/CvtjIGqb6IQIxvy1TM+HBY9gvu061tCK/zo9m77vw9j5V2GW78ZiaNsxiFh+0VsJfA/ZFWXAPwXazyp40/9gAijfjP5SGXyKFs+SX0uOKY+sSLkf1imphq5SXuz4+hXbZbR84GuI4eCaXOYWtdbhmMF/Kam6PDVRPf4+eZGkmobxewVLKOlIA4FE9/j5wKJ7/In+ff3U5XpNk9/j5wKJ7/HzgUT4Cg+PoVu+tEp9qudaJT7VccAAD+/iLAAAAAAAeeli/f4gB6wjlme00Frqv6g6Po+TH96x9ZnuwdrarcOpNpASgjEtRlfCL6k79ehJVRazXgo3MidQvLq6bBsOoipsx3bZOH5nuBvo9/938F/9x+qelQviDc1i4ohfCxy2j2dq0AV/LBZ2Y9+aSu3LG8dtXgACe1uZFoUjbZxK6IRoTfywH/eT+w9SK2X+qfrq1+LWLnwgFOlmv+39FS5aLbmlsKi1sDjSEnGzegjjJZ5jKG+z6joU+utijtaGzmBgToIceMO/d3Aqe9b6sZX/LyQ9tlwV1hHwgxrPEdde+C1M0fJuwMSHsTgP0CRSbINYwqjAR1hTbcqweP2HtqI4Mru+Nrr2TFEGvAzs1V+uCGE+TqHV5psOdKq7UCOuHTM/XjyR7Z4IrSFIS207DTzYMBU+Hbpet+Jh+QJ+luajboKJbwdO4ATcGO7giXbYshzp1qFBsCwP2xzhd4JejQBGtxbuiR3veHXC1kO2d1lwhn8eeYrX8/TIWhCZUqHRoKarwEvqhU0hPjlFXMhXiaRDdQqkSq39+lNw4CT7pkJ9zZXTpgQN4RQXAOEOKy5zdXg9URqFb7j1AwFa3gvzQ4l0P9w0OttwsFfL37gtDEdxemegxTXC0GLH8TKhtmExD4vY3bLlCzDnIKZpYEM4GqpN4Tgdq4pxZGifAB0h89tjyl/SWuaLpoG4ONJmV8o9ivBetibUAlpEEjaKqwhuMy2kWB5qudJ1iSJGBKxl1qCJ16jr52eu+jm98d0ux+zd9MFjPW8UYTDluqLFJRRwKpykSy2vyUUwfIaKXwjeFgw8m7I4avg9/DSg6oDc2TgncD2ryTnvcz/1PLLdjIKrasLgPkUHoa1lPxlEwTyGIUy/dAz1u5AQu2KPDvnwzukADt6KLYiaLaJOVney6ax7VW/494I1OUmsMOwa8vh/1jw4Ah7NCnqIP6ARexDAL0AwmEQtO7UxUNtfnhg5e82fzzTiPrr3AnwIjvkh7piSDo4AJjkSUbSfMWf92w4vvr8gSCc+7I/jd+9Rxs4hmOL4kMgCtMt0UHJ8tSOSenu5pzd8WaTgv6sNn1Kh55KEp/y7+aicHSDcNg+9IEwivQG8bgisSlVnTvqL+BJ/CS9z30E4lhD5nB3tna9SOyoktZUgMTH1I8Bo3j8X7xxcw5O3rNgDEQ1wuf9fSUyPoGo7LL2d17+zoGcmu0fa+AcPOnnGRS49dnKR8L4ZRvk7yZ+I/DhX+Cidm1abSju/CmBQXZwiTJzI0sXxt68abKNMfRdjpla6yVxOSPXYahDL8O1JoKevEq3n7baWhGZ430oVsUz6vOkTlPA7nNMyGXXeLfQm+hob2aGkMrJpYa+DxH/urmuz4S7l0oaEGYUe+4w+v7v2THLA+k0HXicBKHnMO86welOETC0UjnecsF2XokUTBTi1cHoE1S6CCBCx00Gqxf3r1tgQA9QKpAYR3rSHRNFfmxKRHuQwfqGImDEJJ7OWtJiDuNLBj6NGw3N5KHtAldFc9sRpUm/bSjFSUBj9CH+8PYzvv84fvIXofWgZprEtPyz0rjr1KVJdYxbxNy85KAA4eeKXcr+7jXEBwbrNkIMQJDG/axtinIe8vuNdGldNPZJ/3ZcOX1TOjkEgK8tNJt+P2OlqUHPJkQwTYgrOCcTMAu1KYGVO09aPtbN8uvoN+BKoDXPdGX7jbKCr9EjrxI7D4oWS+OLeY63PCwClInVS0erutkA5dVysoFTQxoH9VUDcHmzU0ajtBGV1Om8zcc/Y8Y5ZYpHwmcqWsLmIe4JhnpudEpYUpt0H26QH7riqX/p1CoKWpHcNPn4r7eyEnMJ4OPdiqQDSP382ucAsdX8komo+bCFdJRo77wa2z6xwNeK9D6Kf4kmcLpLdL2Z4Vwar7769s19NnY60akw+u5kYDWDjmwLWLRnSwzQrQme5zWHHjXrHGGF9cGtOADn9/CX37eaEMVw5jZSN4SJ8Tw28pwiNRJ3m7DyBMnUR4hiZzZRL4Bi9HCKrOXCr9NgYenwbgG0AA1lpuzet+quo4vCPieNDgiXpWVMBbKt47VemANw1nAufG7hKxGfD6QsKy11joH2yvAfkUlVrUhNXcJb1oIK/bAkGaNA/Cn+/4CRN9k8xAwRMFHf9u4LHMbKpBRB2MW/xTmF4Jh59uUUP6gEsLiuTOaMrIRCPEEx515coBEpzRNzUAaHm4fZAXIgVssRprv9Ev4IjpGsQ6anLwLQSVkMJuBI5er4N7tuYS1e5rtWjWq8ItEqYEENDbamiYrqAxqsUHFclqw6Fpw+Pv3+m80epe+WSbMKHsuXazTKVChepQyno2oVIZ/LnD2pOI+UDar8vXW76sPoKxuL6PRVrpNcwcTx0qBKY7HZFohZGN+BK3qMwMs5g4NuUYWOKeL5k81vXRuzLx8NNkBuRwAyDaCEXXWeEpz8id0R9+CkU66vQ7Yy9qIbGHP22eqxKXyFJqJ7GGM06JiZXkWRAONZGb6jpVpOBxKCIZpjTlyZT3lMU3WtlO5Gy56hc9L1KKiQD20cp6CgnWwpYpU75vpDThwCahfDpjZDEF+MCxJ8Xh84KseOwL0c38UgVbhPVpM7SG8kpDBNwUMfQ6rgaCTm9R/KLlpYslNZgLuzeSTsN359oL4PWC5aoMD+2yeoJWAbQk1nnrMIBJiIaosk6YP/4TIPMGCNJ2n5kYwenWORYGO/eG/9EKHXfOrMLlOLcYCVKT9OQ+aAkjS2qgeRCZz4O9tIAWhRN1qqlQDg+Xa2m+8y8GV/RF4LIDDgzO9eLUb2R6h+x1j2jmjx1B2xapFqNym+SH2OnAbJ9DpcN8HOkGwOPVvzVljpqFQsj801NNMeHn+i90j+A54PoAAyjJWp3dBGDK98xb3ywO0yl+eSpau0rtRBgbOmcFQKoyjM5uxMhc8Cm5TjKvs17c8op21L7Xf0jgCVitDFFtjSmIacGbZTVycoDzyMe3a5Lvg8PaOxivR/5Pi3rTIy7ZQAD3wOn6f9qiWSCw687SvRab0vjjv8xFn1V5vRosmHK8g3ILbde6F1LxJbkxefD9hHNTLM/JR3fRIx8hykh2KWMp7yiCOVynMKxbX9CmN1w9UkUvPVQ7FFIIdSRvqTOdHNM3UiPXeREdXj8U6rFdkyurr/BDoXwRBhWE9bh/oYXmsJ4zdVgCI2Oudl3NsRRj7nKMkrRKvAnpreVW5eQaiHdDeyjs1L2y6zpHgeHDMNGmln8MsDFnvKH13fF2mqUQzYiupHH7zX4bbJYcGpHZoyEbQ0yvfsdHVGgkgpBIAhFCeNJ7PLrCngaG5qWB7uDeMzhqVDeTSUyBy8dbvt2cmcBvtZCIqRiVzGgKKWFiZ/EHxkgboUoRBkh4Rho7dS0j9JFEGkHv/2Fy+D1cviRA0+8k/rakZMfYe2CkrHCa7kBfgu2wF1KCm9xwpF7WPRlXK/vOCY+aJ70rK5LVOpSWLzvkp4zC+BuTiKE9TmVPa2GEm5LsvvnHIG8frhiN6dTuRqFP4LvY7vwQiS/7JZU4CeXq7rEnNiYLi2/JgI1MLm7IJlXgozYsh7DsANeLqMGu3/wbRWQbB3nNaf8gMOKnegwXF+gJ8Tb2QCR+vCpSEmWOZmJfXKcJ0tPRD4/kT9RZoKDsPw9ymON+T3ZZqRcFDTURwp9X8zXjfvRhaYxI9EfRM8FXu65lAXUbCECs+9CEs+hr1AjCtebmizigCzNlZZdybSzo8K65UEm9+h234fvzcj5xaRDaqXef0pOIYcevgL7wcZxH7Q6W25/t3zPMYwbjQem+8vWHlTyspkHez++Dh++kKWn3hqZpsY4GhGUQ1UspOEvi8c/FzL5e0ur0+3oAFPpap8L7opm0a4AWRQ0y44PBRfYvgC6NwPw/WRJgXheS/AMCOP1GiSq3skN0ZiaV+Hvc5xwhmfkcUeIhzaLqw9YR7V1Up0IH0/9TmmBDBxrTKUbo2Cr60Axu5OJqxjw0TWRvMqExO7BRqbIl5Nz/5Odha29Q8fvZkwsZg51fJREH/xuHYj/bVACIdyY6OfXwKyJm/H8ttfN3/7UqIzSof807L6vRArxYTuusFyciIVnIQgAR2mXjMblUdIMj6GgzU3bvIGShS7ccboil8vkM2UgA3yz+aVYuqYCAIMuR+2Xt/NNhx6GcUfzUHbfeuNeQW9tSDN7luT06di1EXB1coDL01vUc1vC4X8WHTzJ/NvEdDDFpf1zHSn+S2dvL36su9TueMuybcImTRUkvgwVLQ/56Kw2MMRu/qJfC5TKcUFVEfOf72kEB9+T7U7J/nS3NcJQZ5RUPHg/bH13qDxhtJawP3FD9mN1N+sKp1c08bsqc5STaa8svKJTLuoUTuQY+cNCjTrMo83nQRQf+yIizDwD51i1HucEcZa2w49QunDGSwTC99UdMgs4rWbj80Pj7fIVktWKBGtrU8xirevWsWsOwpmQ/R3fOXP9rStXmbfy5MJ5psko0h+JpB5f4iDjRNzIdiYV6igQEHtQkhb6CNInA6OTU8qQHkA8Ax2HyVwW5Wn5oYHb2Umgx2QT02/4/so3QZvLxPMecc/njzSjohID5vHHcFoN2zwZoIl/2Ucxuc1rCTNrCPKANtEMUXk/f/41ZruM+sHA05/9Gc8QFpmxmr0IpTzPMlvlpa/8TnrVR2tf/BUaBmsMz7jgixNM38uerk2Oh7zyLa5UEb1OCg8I2sNJ8mHHZYIGwR7wquH1PMFQuchm3Wxleu1YgBextbeBzwsNpEgQh/ZkCupVNw5mVJeqE4pmqGMmrEYE3GLfL05I71X5Ys+u8qNeXeXC+pJnN5CDxs44/fodiset4a+UDHJVCAQG8PjXXHKfyCgTY2b2oQQTz3hPcGglmgnnbZM7UL64tN+q9scMgdUk8WWpoz5VZJQrqSUgALEyApI0NiRMG6/AgQddhelwhiZhMA3o0qi03Y2lYvDcA1QTwY+4B0OacT7EP4vNlSIc+Fb90fme60NhGt9RZ6BZj7mFHHMv9qn4R6QqcF/u+ZMnSqo0k7kK/8yXJnYc0f2j1O41XHjtGmdifHv3kEMPkRaMuO+sdsVUVNdlgHCJ/gyKLxu0eV76pdEgRp/p16z/C/XCkPrIabSiayowgrCmI8oIJA1QbNBl9m6VRzkqZWi2zQRaLTy+iUNmrgs8ka/nSxPW1Oba26PEMs1oLIyBLWCuVwtmiQ0HfPhyOykPiLspB76VtOgl2WZayysNaUNjKvyHb43Ruq30Q0QSWKF4wCM80O6Ke5iCoy0ng0MZO7i2OzugCGaXnWVx+cckTpHGKEEwzEwW/VSwyYLaWb3dYJjopvZRo/U5cKqTDWXPMH7hWvZP4pVNaz9UgzoVBGh+xa7S2IquQPrZlMjLx4rgH+21DRcrDKELlQHCj6sWOuCPAoaZlSUt1nJeyRiai345kk6klbkVEb3W9ywxJ4n8UECATEB6n9BJYYtp0I/ZACb+jkrZc24mSASLgBIjwjOJc0ohgRdh8vbpqtW2G6pAvZSQ/khb7tVemQNL4Z5L8wAeekparc6ozwqDU/bNbW4GHEE5AvsHhneFUp4v5SmL0oBmaI5OurfkNGc1QYvxigqSiIQOQWWsKPMQpyRRSU6T67a+7ewLe/O27YWQvdQowIu04zUuyElX+fhdYUipmSB6gctiRxUYQwaAsQIFaTZmYLWSmb7NJH6DsbOYYgujstRbDVmE+7LXq2KTYHjAbHXDiFEgs3tof+NEE4Wb4GVWeqXoEyPhFZIX3rvY2YLN9q8b1cUdYvTnYgAETuuLVlvsKUC90i6b1Y2SoJaG4HUEjNzzRcG99dZ1fLRtxh3rluHkMvOZHp+PRvipFdRKCkilgm+dLA4G2QJ7SOraZurrBzNtEuoF+Pn7e+l70fdpPguIG27SHx5TbOda9RZQgMQJMbdHkW/T61li06tn/MfzPNI5MsBbp8yNuvdSqhD26BO0JSMaaXyKIUbbJpKVxHVAnpp0l/wKRlETxme7pVkzEkt6PIeTYhqiczAdIHZSQ/OzHJHjglwD0aisiGesXeGtWZsw0MmwAFU9fVBGc96t4JGCp/pGdQwAi4MBzdFrgCDzExEszmg9VI4xEEF4xIFRl8FrNGHdMFqLV0vz8hw9XW4rq+XzcRxTl/6RPpxmRG/2E9F1mj9joAIvUTkRBXwxDNhh5fzEmsf74qta1M98DARN5we3wb3RwHaaNdkyulvjqx0jrncL3/ElEZgXXEiCI5vLQmGP4YRinfcbdzfUS/+KH9oaR5fvCS92u6TPoY1Tu1JZpxsTe6xDUJYAIKgurwTRI2/D1wNzLP60X1rJBY8jjSQXRAAAA=;fontSize=32;" vertex="1" parent="lkz7h4dLqbm93Tn8HokA-188">
          <mxGeometry x="74.5" y="76" width="31.1" height="26" as="geometry" />
        </mxCell>
        <mxCell id="lkz7h4dLqbm93Tn8HokA-199" value="" style="shape=image;verticalLabelPosition=bottom;verticalAlign=top;imageAspect=0;aspect=fixed;image=data:image/webp,UklGRooYAABXRUJQVlA4IH4YAABwuwCdASpWAvQBPpFEnkwlo60iIhFJCaASCWlu7ulSKOAQFbJMn/GerrxqiA+yzONPN/uD4s9kjcDw/0LlA/dP+7cY9E2Tz8+P8bzg+z+w6yC+s1/recz651HQRfO+UT3+PnAonv8fOBRPf4+cCie/x84FE9/j5wKJ7/HzgUT3+PnAonv8fOBRPf4+cCie/x84FE9/j5wKJcJYRIC3MNYoBpeVWtFXlx9YON6Cie/x84FE9/j5wKJhjL/mXi4f/jiiVvFUDciPOjHzkXRyRANF9U16qMusd97UjSA5ZpF5nZ/1BAipuOE5XCVCtVzrRKfarnWiU+1Hy+x+sNeKfl6lA7QnZjSKOTfQF5MVEZ6YrTuAUMe8oupkNxJIN+tURK4UtCRLdGX6jcdyYIQTRsp7X1vtVzrRKfarnWiU+xtmBiy8omEDcpDE4j7jr5VwlMT6PZ6gSVu3VKI7h+i1E65cFbteNpKMUfnl4IsJ7/HzgUT3+PnAol3Cl/uJSWwBory5yUOAyMlzuTlrK5Rhk+biAndQbWx2OvTNv//kwzsTUPhGVTaJU6daJT7Vc60Sn2q51ViDjRfVHBizDevAXbZZmNMjq/h1ntcK/CGfH2j5wKJ7/HzgUT38W6c/kv4uTxHed1/MIC+pxoI5i1Ws/NElB7Vc60Sn2q51olNkWtItGOMdzS6f4lieuMkuMWEiUeiO1rujfLo/aqbTHXnG76VZM0GWlolPtVzrRKfarkHUwmnUV9vCT/5uzfpnpOQIS73jGiSwEygRsMdh4MnTk07ncz+NETK4MFFarnWiU+1XIM3H+2hwfl9RfsTHKpm/tKLgmfBhpJbEpc4RWhHCuIju1L8XID+QD5wKJ7/HzgUT3+HkcH+5z0ih1DXINfnLTcc++YqROzW1Zv7EUPzvlE9/j5wKJ7/DnprS8iMh3K4Cz4+sVVL+XEha4kotbj9JJS+rDrYCK8Q80GCitVzrRKfarnVXI3oSiH3XRxXfKaElqmTVNUXOSlGziuUsECxP8syATPNBm4NpvhH7R84FE9/j5wKDmf9rqh1OXg+oPlFWVdGuPGr6wirmillCf6hnsocK3UPbukCFKiSn2q51olPtVyFHqz4VJg1I8whtAgJSGnt2DInuqHiJPchRgp0k0VCC3VlE9/j5wKJ7+WgLmYqMy4RC0GrQ6tp2YPhGLNQg3RYalzola6+n2NPicPHfKJ7/HzgUT38tJakeDA0X4dDFx15lnYaAB0ukKqW3d57VTv2ALasrQ75ho+cCie/x84FE8rr2l/jUploPhFSkfVYJD/TYGdOgOAaPhMzWuyQL3k5GM+QrODWfPzGmdp451olPtVzrQ7+xZMEpqu23n4H4H8bTBOB9/mNpr7CPahx6bbOocaLa6ODAU9sEb9TmTckp9qudaJT8icW0iCRr0kecr/iTHiBZxZE+SUrWOvn65L9tTg6vsCBj/t6QqcP/7j3rrfJoWr2IaoQSr5twxRIGaQCC/6M3+IhFMOErBUQ67WitXv2SMM8jl1N9kMrDVCY1k9ZRvFGF7a479ekc5BOhl3FbMtYGByIEAVl4ujLYqw1iFjGRlP2b4ScLD11bzP3yiidetFE6VeI9TcQUKFT4NUvr8kgy02BFPhK3Vw0Ykhf1zxIka9RR6FQBlp+4IDfeljSaJ/Xr2s6RbsPbfbANrJhiZ5U0hr4ftW/8DX3HRdY/Una8i1FOypPfpnuCleWNvuUbsbQRZP+YUJajIgHzgUUDx1fyr3z2jJZEo/CvtjIGqb6IQIxvy1TM+HBY9gvu061tCK/zo9m77vw9j5V2GW78ZiaNsxiFh+0VsJfA/ZFWXAPwXazyp40/9gAijfjP5SGXyKFs+SX0uOKY+sSLkf1imphq5SXuz4+hXbZbR84GuI4eCaXOYWtdbhmMF/Kam6PDVRPf4+eZGkmobxewVLKOlIA4FE9/j5wKJ7/In+ff3U5XpNk9/j5wKJ7/HzgUT4Cg+PoVu+tEp9qudaJT7VccAAD+/iLAAAAAAAeeli/f4gB6wjlme00Frqv6g6Po+TH96x9ZnuwdrarcOpNpASgjEtRlfCL6k79ehJVRazXgo3MidQvLq6bBsOoipsx3bZOH5nuBvo9/938F/9x+qelQviDc1i4ohfCxy2j2dq0AV/LBZ2Y9+aSu3LG8dtXgACe1uZFoUjbZxK6IRoTfywH/eT+w9SK2X+qfrq1+LWLnwgFOlmv+39FS5aLbmlsKi1sDjSEnGzegjjJZ5jKG+z6joU+utijtaGzmBgToIceMO/d3Aqe9b6sZX/LyQ9tlwV1hHwgxrPEdde+C1M0fJuwMSHsTgP0CRSbINYwqjAR1hTbcqweP2HtqI4Mru+Nrr2TFEGvAzs1V+uCGE+TqHV5psOdKq7UCOuHTM/XjyR7Z4IrSFIS207DTzYMBU+Hbpet+Jh+QJ+luajboKJbwdO4ATcGO7giXbYshzp1qFBsCwP2xzhd4JejQBGtxbuiR3veHXC1kO2d1lwhn8eeYrX8/TIWhCZUqHRoKarwEvqhU0hPjlFXMhXiaRDdQqkSq39+lNw4CT7pkJ9zZXTpgQN4RQXAOEOKy5zdXg9URqFb7j1AwFa3gvzQ4l0P9w0OttwsFfL37gtDEdxemegxTXC0GLH8TKhtmExD4vY3bLlCzDnIKZpYEM4GqpN4Tgdq4pxZGifAB0h89tjyl/SWuaLpoG4ONJmV8o9ivBetibUAlpEEjaKqwhuMy2kWB5qudJ1iSJGBKxl1qCJ16jr52eu+jm98d0ux+zd9MFjPW8UYTDluqLFJRRwKpykSy2vyUUwfIaKXwjeFgw8m7I4avg9/DSg6oDc2TgncD2ryTnvcz/1PLLdjIKrasLgPkUHoa1lPxlEwTyGIUy/dAz1u5AQu2KPDvnwzukADt6KLYiaLaJOVney6ax7VW/494I1OUmsMOwa8vh/1jw4Ah7NCnqIP6ARexDAL0AwmEQtO7UxUNtfnhg5e82fzzTiPrr3AnwIjvkh7piSDo4AJjkSUbSfMWf92w4vvr8gSCc+7I/jd+9Rxs4hmOL4kMgCtMt0UHJ8tSOSenu5pzd8WaTgv6sNn1Kh55KEp/y7+aicHSDcNg+9IEwivQG8bgisSlVnTvqL+BJ/CS9z30E4lhD5nB3tna9SOyoktZUgMTH1I8Bo3j8X7xxcw5O3rNgDEQ1wuf9fSUyPoGo7LL2d17+zoGcmu0fa+AcPOnnGRS49dnKR8L4ZRvk7yZ+I/DhX+Cidm1abSju/CmBQXZwiTJzI0sXxt68abKNMfRdjpla6yVxOSPXYahDL8O1JoKevEq3n7baWhGZ430oVsUz6vOkTlPA7nNMyGXXeLfQm+hob2aGkMrJpYa+DxH/urmuz4S7l0oaEGYUe+4w+v7v2THLA+k0HXicBKHnMO86welOETC0UjnecsF2XokUTBTi1cHoE1S6CCBCx00Gqxf3r1tgQA9QKpAYR3rSHRNFfmxKRHuQwfqGImDEJJ7OWtJiDuNLBj6NGw3N5KHtAldFc9sRpUm/bSjFSUBj9CH+8PYzvv84fvIXofWgZprEtPyz0rjr1KVJdYxbxNy85KAA4eeKXcr+7jXEBwbrNkIMQJDG/axtinIe8vuNdGldNPZJ/3ZcOX1TOjkEgK8tNJt+P2OlqUHPJkQwTYgrOCcTMAu1KYGVO09aPtbN8uvoN+BKoDXPdGX7jbKCr9EjrxI7D4oWS+OLeY63PCwClInVS0erutkA5dVysoFTQxoH9VUDcHmzU0ajtBGV1Om8zcc/Y8Y5ZYpHwmcqWsLmIe4JhnpudEpYUpt0H26QH7riqX/p1CoKWpHcNPn4r7eyEnMJ4OPdiqQDSP382ucAsdX8komo+bCFdJRo77wa2z6xwNeK9D6Kf4kmcLpLdL2Z4Vwar7769s19NnY60akw+u5kYDWDjmwLWLRnSwzQrQme5zWHHjXrHGGF9cGtOADn9/CX37eaEMVw5jZSN4SJ8Tw28pwiNRJ3m7DyBMnUR4hiZzZRL4Bi9HCKrOXCr9NgYenwbgG0AA1lpuzet+quo4vCPieNDgiXpWVMBbKt47VemANw1nAufG7hKxGfD6QsKy11joH2yvAfkUlVrUhNXcJb1oIK/bAkGaNA/Cn+/4CRN9k8xAwRMFHf9u4LHMbKpBRB2MW/xTmF4Jh59uUUP6gEsLiuTOaMrIRCPEEx515coBEpzRNzUAaHm4fZAXIgVssRprv9Ev4IjpGsQ6anLwLQSVkMJuBI5er4N7tuYS1e5rtWjWq8ItEqYEENDbamiYrqAxqsUHFclqw6Fpw+Pv3+m80epe+WSbMKHsuXazTKVChepQyno2oVIZ/LnD2pOI+UDar8vXW76sPoKxuL6PRVrpNcwcTx0qBKY7HZFohZGN+BK3qMwMs5g4NuUYWOKeL5k81vXRuzLx8NNkBuRwAyDaCEXXWeEpz8id0R9+CkU66vQ7Yy9qIbGHP22eqxKXyFJqJ7GGM06JiZXkWRAONZGb6jpVpOBxKCIZpjTlyZT3lMU3WtlO5Gy56hc9L1KKiQD20cp6CgnWwpYpU75vpDThwCahfDpjZDEF+MCxJ8Xh84KseOwL0c38UgVbhPVpM7SG8kpDBNwUMfQ6rgaCTm9R/KLlpYslNZgLuzeSTsN359oL4PWC5aoMD+2yeoJWAbQk1nnrMIBJiIaosk6YP/4TIPMGCNJ2n5kYwenWORYGO/eG/9EKHXfOrMLlOLcYCVKT9OQ+aAkjS2qgeRCZz4O9tIAWhRN1qqlQDg+Xa2m+8y8GV/RF4LIDDgzO9eLUb2R6h+x1j2jmjx1B2xapFqNym+SH2OnAbJ9DpcN8HOkGwOPVvzVljpqFQsj801NNMeHn+i90j+A54PoAAyjJWp3dBGDK98xb3ywO0yl+eSpau0rtRBgbOmcFQKoyjM5uxMhc8Cm5TjKvs17c8op21L7Xf0jgCVitDFFtjSmIacGbZTVycoDzyMe3a5Lvg8PaOxivR/5Pi3rTIy7ZQAD3wOn6f9qiWSCw687SvRab0vjjv8xFn1V5vRosmHK8g3ILbde6F1LxJbkxefD9hHNTLM/JR3fRIx8hykh2KWMp7yiCOVynMKxbX9CmN1w9UkUvPVQ7FFIIdSRvqTOdHNM3UiPXeREdXj8U6rFdkyurr/BDoXwRBhWE9bh/oYXmsJ4zdVgCI2Oudl3NsRRj7nKMkrRKvAnpreVW5eQaiHdDeyjs1L2y6zpHgeHDMNGmln8MsDFnvKH13fF2mqUQzYiupHH7zX4bbJYcGpHZoyEbQ0yvfsdHVGgkgpBIAhFCeNJ7PLrCngaG5qWB7uDeMzhqVDeTSUyBy8dbvt2cmcBvtZCIqRiVzGgKKWFiZ/EHxkgboUoRBkh4Rho7dS0j9JFEGkHv/2Fy+D1cviRA0+8k/rakZMfYe2CkrHCa7kBfgu2wF1KCm9xwpF7WPRlXK/vOCY+aJ70rK5LVOpSWLzvkp4zC+BuTiKE9TmVPa2GEm5LsvvnHIG8frhiN6dTuRqFP4LvY7vwQiS/7JZU4CeXq7rEnNiYLi2/JgI1MLm7IJlXgozYsh7DsANeLqMGu3/wbRWQbB3nNaf8gMOKnegwXF+gJ8Tb2QCR+vCpSEmWOZmJfXKcJ0tPRD4/kT9RZoKDsPw9ymON+T3ZZqRcFDTURwp9X8zXjfvRhaYxI9EfRM8FXu65lAXUbCECs+9CEs+hr1AjCtebmizigCzNlZZdybSzo8K65UEm9+h234fvzcj5xaRDaqXef0pOIYcevgL7wcZxH7Q6W25/t3zPMYwbjQem+8vWHlTyspkHez++Dh++kKWn3hqZpsY4GhGUQ1UspOEvi8c/FzL5e0ur0+3oAFPpap8L7opm0a4AWRQ0y44PBRfYvgC6NwPw/WRJgXheS/AMCOP1GiSq3skN0ZiaV+Hvc5xwhmfkcUeIhzaLqw9YR7V1Up0IH0/9TmmBDBxrTKUbo2Cr60Axu5OJqxjw0TWRvMqExO7BRqbIl5Nz/5Odha29Q8fvZkwsZg51fJREH/xuHYj/bVACIdyY6OfXwKyJm/H8ttfN3/7UqIzSof807L6vRArxYTuusFyciIVnIQgAR2mXjMblUdIMj6GgzU3bvIGShS7ccboil8vkM2UgA3yz+aVYuqYCAIMuR+2Xt/NNhx6GcUfzUHbfeuNeQW9tSDN7luT06di1EXB1coDL01vUc1vC4X8WHTzJ/NvEdDDFpf1zHSn+S2dvL36su9TueMuybcImTRUkvgwVLQ/56Kw2MMRu/qJfC5TKcUFVEfOf72kEB9+T7U7J/nS3NcJQZ5RUPHg/bH13qDxhtJawP3FD9mN1N+sKp1c08bsqc5STaa8svKJTLuoUTuQY+cNCjTrMo83nQRQf+yIizDwD51i1HucEcZa2w49QunDGSwTC99UdMgs4rWbj80Pj7fIVktWKBGtrU8xirevWsWsOwpmQ/R3fOXP9rStXmbfy5MJ5psko0h+JpB5f4iDjRNzIdiYV6igQEHtQkhb6CNInA6OTU8qQHkA8Ax2HyVwW5Wn5oYHb2Umgx2QT02/4/so3QZvLxPMecc/njzSjohID5vHHcFoN2zwZoIl/2Ucxuc1rCTNrCPKANtEMUXk/f/41ZruM+sHA05/9Gc8QFpmxmr0IpTzPMlvlpa/8TnrVR2tf/BUaBmsMz7jgixNM38uerk2Oh7zyLa5UEb1OCg8I2sNJ8mHHZYIGwR7wquH1PMFQuchm3Wxleu1YgBextbeBzwsNpEgQh/ZkCupVNw5mVJeqE4pmqGMmrEYE3GLfL05I71X5Ys+u8qNeXeXC+pJnN5CDxs44/fodiset4a+UDHJVCAQG8PjXXHKfyCgTY2b2oQQTz3hPcGglmgnnbZM7UL64tN+q9scMgdUk8WWpoz5VZJQrqSUgALEyApI0NiRMG6/AgQddhelwhiZhMA3o0qi03Y2lYvDcA1QTwY+4B0OacT7EP4vNlSIc+Fb90fme60NhGt9RZ6BZj7mFHHMv9qn4R6QqcF/u+ZMnSqo0k7kK/8yXJnYc0f2j1O41XHjtGmdifHv3kEMPkRaMuO+sdsVUVNdlgHCJ/gyKLxu0eV76pdEgRp/p16z/C/XCkPrIabSiayowgrCmI8oIJA1QbNBl9m6VRzkqZWi2zQRaLTy+iUNmrgs8ka/nSxPW1Oba26PEMs1oLIyBLWCuVwtmiQ0HfPhyOykPiLspB76VtOgl2WZayysNaUNjKvyHb43Ruq30Q0QSWKF4wCM80O6Ke5iCoy0ng0MZO7i2OzugCGaXnWVx+cckTpHGKEEwzEwW/VSwyYLaWb3dYJjopvZRo/U5cKqTDWXPMH7hWvZP4pVNaz9UgzoVBGh+xa7S2IquQPrZlMjLx4rgH+21DRcrDKELlQHCj6sWOuCPAoaZlSUt1nJeyRiai345kk6klbkVEb3W9ywxJ4n8UECATEB6n9BJYYtp0I/ZACb+jkrZc24mSASLgBIjwjOJc0ohgRdh8vbpqtW2G6pAvZSQ/khb7tVemQNL4Z5L8wAeekparc6ozwqDU/bNbW4GHEE5AvsHhneFUp4v5SmL0oBmaI5OurfkNGc1QYvxigqSiIQOQWWsKPMQpyRRSU6T67a+7ewLe/O27YWQvdQowIu04zUuyElX+fhdYUipmSB6gctiRxUYQwaAsQIFaTZmYLWSmb7NJH6DsbOYYgujstRbDVmE+7LXq2KTYHjAbHXDiFEgs3tof+NEE4Wb4GVWeqXoEyPhFZIX3rvY2YLN9q8b1cUdYvTnYgAETuuLVlvsKUC90i6b1Y2SoJaG4HUEjNzzRcG99dZ1fLRtxh3rluHkMvOZHp+PRvipFdRKCkilgm+dLA4G2QJ7SOraZurrBzNtEuoF+Pn7e+l70fdpPguIG27SHx5TbOda9RZQgMQJMbdHkW/T61li06tn/MfzPNI5MsBbp8yNuvdSqhD26BO0JSMaaXyKIUbbJpKVxHVAnpp0l/wKRlETxme7pVkzEkt6PIeTYhqiczAdIHZSQ/OzHJHjglwD0aisiGesXeGtWZsw0MmwAFU9fVBGc96t4JGCp/pGdQwAi4MBzdFrgCDzExEszmg9VI4xEEF4xIFRl8FrNGHdMFqLV0vz8hw9XW4rq+XzcRxTl/6RPpxmRG/2E9F1mj9joAIvUTkRBXwxDNhh5fzEmsf74qta1M98DARN5we3wb3RwHaaNdkyulvjqx0jrncL3/ElEZgXXEiCI5vLQmGP4YRinfcbdzfUS/+KH9oaR5fvCS92u6TPoY1Tu1JZpxsTe6xDUJYAIKgurwTRI2/D1wNzLP60X1rJBY8jjSQXRAAAA=;fontSize=32;" vertex="1" parent="lkz7h4dLqbm93Tn8HokA-188">
          <mxGeometry x="74.5" y="119" width="31.1" height="26" as="geometry" />
        </mxCell>
        <mxCell id="lkz7h4dLqbm93Tn8HokA-200" value="" style="shape=mxgraph.office.security.lock_protected;fillColor=#5E6C84;strokeColor=none;sketch=0;hachureGap=4;pointerEvents=0;fontFamily=Architects Daughter;fontSource=https%3A%2F%2Ffonts.googleapis.com%2Fcss%3Ffamily%3DArchitects%2BDaughter;fontSize=20;" vertex="1" parent="lkz7h4dLqbm93Tn8HokA-188">
          <mxGeometry x="181.5" y="76" width="10" height="14" as="geometry" />
        </mxCell>
        <mxCell id="lkz7h4dLqbm93Tn8HokA-201" value="" style="fillColor=#b1ddf0;strokeColor=#10739e;shadow=1;fontSize=14;align=left;spacingLeft=50;" vertex="1" parent="1">
          <mxGeometry x="820" y="940" width="160" height="100" as="geometry" />
        </mxCell>
        <mxCell id="lkz7h4dLqbm93Tn8HokA-202" value="" style="html=1;verticalLabelPosition=bottom;align=center;labelBackgroundColor=#ffffff;verticalAlign=top;strokeWidth=2;strokeColor=#0080F0;shadow=0;dashed=0;shape=mxgraph.ios7.icons.map;fontSize=22;fontColor=#FF3333;" vertex="1" parent="1">
          <mxGeometry x="870" y="975" width="80" height="50" as="geometry" />
        </mxCell>
        <mxCell id="lkz7h4dLqbm93Tn8HokA-203" value="" style="sketch=0;points=[[0,0,0],[0.25,0,0],[0.5,0,0],[0.75,0,0],[1,0,0],[1,0.25,0],[1,0.5,0],[1,0.75,0],[1,1,0],[0.75,1,0],[0.5,1,0],[0.25,1,0],[0,1,0],[0,0.75,0],[0,0.5,0],[0,0.25,0]];rounded=1;absoluteArcSize=1;arcSize=2;html=1;strokeColor=#d79b00;shadow=0;dashed=0;fontSize=12;align=left;verticalAlign=top;spacing=10;spacingTop=-4;fillColor=#ffe6cc;" vertex="1" parent="1">
          <mxGeometry x="560" y="940" width="170" height="100" as="geometry" />
        </mxCell>
        <mxCell id="lkz7h4dLqbm93Tn8HokA-204" style="edgeStyle=orthogonalEdgeStyle;rounded=0;orthogonalLoop=1;jettySize=auto;html=1;entryX=1.031;entryY=0.396;entryDx=0;entryDy=0;entryPerimeter=0;fontSize=22;fontColor=#FF3333;strokeWidth=2;strokeColor=#3333FF;" edge="1" parent="1" target="lkz7h4dLqbm93Tn8HokA-208">
          <mxGeometry relative="1" as="geometry">
            <mxPoint x="575" y="990.0160000000001" as="sourcePoint" />
          </mxGeometry>
        </mxCell>
        <mxCell id="lkz7h4dLqbm93Tn8HokA-208" value="" style="fillColor=#dae8fc;strokeColor=#6c8ebf;shadow=1;fontSize=14;align=left;spacingLeft=50;" vertex="1" parent="1">
          <mxGeometry x="260" y="952" width="160" height="96" as="geometry" />
        </mxCell>
        <mxCell id="lkz7h4dLqbm93Tn8HokA-209" value="" style="sketch=0;aspect=fixed;html=1;points=[];align=left;image;fontSize=12;image=img/lib/mscae/Management_Groups.svg;shadow=0;dashed=0;fontFamily=Helvetica;fontColor=#9E9E9E;fillColor=#E1F5FE;" vertex="1" parent="1">
          <mxGeometry x="310" y="970" width="70.91" height="60" as="geometry" />
        </mxCell>
        <mxCell id="lkz7h4dLqbm93Tn8HokA-211" value="&lt;font style=&quot;font-size: 32px&quot;&gt;RCC&lt;/font&gt;" style="text;html=1;resizable=0;autosize=1;align=center;verticalAlign=middle;points=[];fillColor=none;strokeColor=none;rounded=0;" vertex="1" parent="1">
          <mxGeometry x="610" y="975" width="90" height="30" as="geometry" />
        </mxCell>
        <mxCell id="lkz7h4dLqbm93Tn8HokA-214" style="edgeStyle=orthogonalEdgeStyle;rounded=0;html=1;labelBackgroundColor=none;startFill=1;startSize=4;endArrow=blockThin;endFill=1;endSize=4;jettySize=auto;orthogonalLoop=1;strokeColor=#9E9E9E;strokeWidth=2;fontSize=12;fontColor=#000000;align=left;dashed=0;exitX=0;exitY=0.5;exitDx=0;exitDy=0;exitPerimeter=0;" edge="1" parent="1" source="lkz7h4dLqbm93Tn8HokA-179">
          <mxGeometry relative="1" as="geometry">
            <mxPoint x="470" y="739.5" as="sourcePoint" />
            <mxPoint x="440" y="739.5" as="targetPoint" />
          </mxGeometry>
        </mxCell>
        <mxCell id="lkz7h4dLqbm93Tn8HokA-215" style="edgeStyle=orthogonalEdgeStyle;rounded=0;html=1;labelBackgroundColor=none;startFill=1;startSize=4;endArrow=blockThin;endFill=1;endSize=4;jettySize=auto;orthogonalLoop=1;strokeColor=#9E9E9E;strokeWidth=2;fontSize=12;fontColor=#000000;align=left;dashed=0;entryX=1;entryY=0.5;entryDx=0;entryDy=0;" edge="1" parent="1" target="lkz7h4dLqbm93Tn8HokA-155">
          <mxGeometry relative="1" as="geometry">
            <mxPoint x="250" y="749.5" as="sourcePoint" />
            <mxPoint x="220" y="749.5" as="targetPoint" />
          </mxGeometry>
        </mxCell>
        <mxCell id="lkz7h4dLqbm93Tn8HokA-216" value="&lt;font style=&quot;font-size: 22px&quot;&gt;下载完成&lt;/font&gt;" style="text;html=1;resizable=0;autosize=1;align=center;verticalAlign=middle;points=[];fillColor=none;strokeColor=none;rounded=0;fontSize=32;" vertex="1" parent="1">
          <mxGeometry x="445" y="680" width="100" height="50" as="geometry" />
        </mxCell>
        <mxCell id="lkz7h4dLqbm93Tn8HokA-217" value="&lt;font style=&quot;font-size: 22px&quot;&gt;站点切换完成&lt;/font&gt;" style="text;html=1;resizable=0;autosize=1;align=center;verticalAlign=middle;points=[];fillColor=none;strokeColor=none;rounded=0;fontSize=32;" vertex="1" parent="1">
          <mxGeometry x="420" y="940" width="150" height="50" as="geometry" />
        </mxCell>
        <mxCell id="lkz7h4dLqbm93Tn8HokA-218" style="edgeStyle=orthogonalEdgeStyle;rounded=0;html=1;labelBackgroundColor=none;startFill=1;startSize=4;endArrow=blockThin;endFill=1;endSize=4;jettySize=auto;orthogonalLoop=1;strokeColor=#9E9E9E;strokeWidth=2;fontSize=12;fontColor=#000000;align=left;dashed=0;entryX=1;entryY=0.5;entryDx=0;entryDy=0;" edge="1" parent="1" target="lkz7h4dLqbm93Tn8HokA-189">
          <mxGeometry relative="1" as="geometry">
            <mxPoint x="260" y="999.5" as="sourcePoint" />
            <mxPoint x="200" y="1000" as="targetPoint" />
          </mxGeometry>
        </mxCell>
        <mxCell id="lkz7h4dLqbm93Tn8HokA-220" value="机器端空闲时，执行站点数据同步" style="text;html=1;resizable=0;autosize=1;align=center;verticalAlign=middle;points=[];fillColor=none;strokeColor=none;rounded=0;fontSize=22;fontColor=#FF3333;" vertex="1" parent="1">
          <mxGeometry x="510" y="535" width="350" height="30" as="geometry" />
        </mxCell>
        <mxCell id="lkz7h4dLqbm93Tn8HokA-221" style="edgeStyle=orthogonalEdgeStyle;curved=1;rounded=0;orthogonalLoop=1;jettySize=auto;html=1;fontSize=22;fontColor=#FF3333;strokeColor=#3333FF;strokeWidth=2;exitX=0.465;exitY=1.035;exitDx=0;exitDy=0;exitPerimeter=0;" edge="1" parent="1">
          <mxGeometry relative="1" as="geometry">
            <mxPoint x="624.0500000000002" y="1043.5" as="sourcePoint" />
            <mxPoint x="510" y="990" as="targetPoint" />
            <Array as="points">
              <mxPoint x="624" y="1062.5" />
              <mxPoint x="510" y="1062.5" />
            </Array>
          </mxGeometry>
        </mxCell>
        <mxCell id="lkz7h4dLqbm93Tn8HokA-222" value="站点数据同步完成，切换站点" style="text;html=1;resizable=0;autosize=1;align=center;verticalAlign=middle;points=[];fillColor=none;strokeColor=none;rounded=0;fontSize=22;fontColor=#FF3333;" vertex="1" parent="1">
          <mxGeometry x="555" y="1060" width="300" height="30" as="geometry" />
        </mxCell>
      </root>
    </mxGraphModel>
  </diagram>
</mxfile>
